<ttFont>
<head>
    <!-- Most of this table will be recalculated by the compiler -->
    <tableVersion value="1.0"/>
    <fontRevision value="1.0"/>
    <checkSumAdjustment value="0x73ffd7a6"/>
    <magicNumber value="0x5f0f3cf5"/>
    <flags value="00000000 00011011"/>
    <unitsPerEm value="1000"/>
    <created value="Sat Dec  6 13:43:37 2025"/>
    <modified value="Sat Dec  6 13:49:45 2025"/>
    <xMin value="-33"/>
    <yMin value="-250"/>
    <xMax value="945"/>
    <yMax value="749"/>
    <macStyle value="00000000 00000000"/>
    <lowestRecPPEM value="6"/>
    <fontDirectionHint value="2"/>
    <indexToLocFormat value="0"/>
    <glyphDataFormat value="0"/>
  </head>
    <TTGlyph name="A" xMin="23" yMin="0" xMax="669" yMax="707">
      <contour>
        <pt x="585" y="63" on="1"/>
        <pt x="590" y="49" on="0"/>
        <pt x="602" y="34" on="0"/>
        <pt x="622" y="27" on="0"/>
        <pt x="649" y="26" on="0"/>
        <pt x="669" y="26" on="1"/>
        <pt x="669" y="0" on="1"/>
        <pt x="660" y="1" on="0"/>
        <pt x="634" y="2" on="0"/>
        <pt x="606" y="2" on="0"/>
        <pt x="579" y="2" on="0"/>
        <pt x="569" y="2" on="1"/>
        <pt x="557" y="2" on="0"/>
        <pt x="528" y="2" on="0"/>
        <pt x="497" y="2" on="0"/>
        <pt x="468" y="1" on="0"/>
        <pt x="457" y="0" on="1"/>
        <pt x="457" y="26" on="1"/>
        <pt x="464" y="26" on="0"/>
        <pt x="485" y="27" on="0"/>
        <pt x="505" y="32" on="0"/>
        <pt x="519" y="43" on="0"/>
        <pt x="519" y="53" on="1"/>
        <pt x="519" y="56" on="0"/>
        <pt x="518" y="62" on="0"/>
        <pt x="514" y="71" on="1"/>
        <pt x="454" y="241" on="1"/>
        <pt x="192" y="241" on="1"/>
        <pt x="139" y="92" on="1"/>
        <pt x="137" y="87" on="0"/>
        <pt x="135" y="79" on="0"/>
        <pt x="135" y="72" on="1"/>
        <pt x="135" y="68" on="0"/>
        <pt x="139" y="53" on="0"/>
        <pt x="150" y="38" on="0"/>
        <pt x="171" y="27" on="0"/>
        <pt x="189" y="26" on="1"/>
        <pt x="189" y="0" on="1"/>
        <pt x="171" y="2" on="0"/>
        <pt x="119" y="2" on="0"/>
        <pt x="100" y="2" on="1"/>
        <pt x="93" y="2" on="0"/>
        <pt x="72" y="2" on="0"/>
        <pt x="50" y="2" on="0"/>
        <pt x="30" y="1" on="0"/>
        <pt x="23" y="0" on="1"/>
        <pt x="23" y="26" on="1"/>
        <pt x="36" y="26" on="0"/>
        <pt x="63" y="31" on="0"/>
        <pt x="89" y="45" on="0"/>
        <pt x="110" y="71" on="0"/>
        <pt x="117" y="91" on="1"/>
        <pt x="329" y="691" on="1"/>
        <pt x="333" y="701" on="0"/>
        <pt x="338" y="707" on="0"/>
        <pt x="346" y="707" on="1"/>
        <pt x="354" y="707" on="0"/>
        <pt x="359" y="701" on="0"/>
        <pt x="363" y="691" on="1"/>
      </contour>
      <contour>
        <pt x="201" y="267" on="1"/>
        <pt x="445" y="267" on="1"/>
        <pt x="323" y="611" on="1"/>
      </contour>
    </TTGlyph>
    <TTGlyph name="AE" xMin="23" yMin="0" xMax="816" yMax="683">
      <contour>
        <pt x="780" y="0" on="1"/>
        <pt x="325" y="0" on="1"/>
        <pt x="325" y="26" on="1"/>
        <pt x="347" y="26" on="0"/>
        <pt x="371" y="29" on="0"/>
        <pt x="383" y="38" on="0"/>
        <pt x="385" y="55" on="0"/>
        <pt x="385" y="68" on="1"/>
        <pt x="385" y="315" on="1"/>
        <pt x="219" y="315" on="1"/>
        <pt x="141" y="97" on="1"/>
        <pt x="139" y="91" on="0"/>
        <pt x="135" y="79" on="0"/>
        <pt x="135" y="72" on="1"/>
        <pt x="135" y="69" on="0"/>
        <pt x="138" y="55" on="0"/>
        <pt x="148" y="39" on="0"/>
        <pt x="170" y="27" on="0"/>
        <pt x="189" y="26" on="1"/>
        <pt x="189" y="0" on="1"/>
        <pt x="172" y="2" on="0"/>
        <pt x="118" y="2" on="0"/>
        <pt x="100" y="2" on="1"/>
        <pt x="93" y="2" on="0"/>
        <pt x="72" y="2" on="0"/>
        <pt x="50" y="2" on="0"/>
        <pt x="29" y="1" on="0"/>
        <pt x="23" y="0" on="1"/>
        <pt x="23" y="26" on="1"/>
        <pt x="35" y="26" on="0"/>
        <pt x="62" y="31" on="0"/>
        <pt x="88" y="45" on="0"/>
        <pt x="110" y="70" on="0"/>
        <pt x="117" y="91" on="1"/>
        <pt x="318" y="656" on="1"/>
        <pt x="311" y="657" on="0"/>
        <pt x="295" y="657" on="0"/>
        <pt x="288" y="657" on="1"/>
        <pt x="252" y="657" on="1"/>
        <pt x="252" y="683" on="1"/>
        <pt x="766" y="683" on="1"/>
        <pt x="790" y="462" on="1"/>
        <pt x="772" y="462" on="1"/>
        <pt x="766" y="509" on="0"/>
        <pt x="753" y="582" on="0"/>
        <pt x="719" y="631" on="0"/>
        <pt x="655" y="657" on="0"/>
        <pt x="598" y="657" on="1"/>
        <pt x="488" y="657" on="1"/>
        <pt x="473" y="657" on="0"/>
        <pt x="456" y="654" on="0"/>
        <pt x="448" y="646" on="0"/>
        <pt x="446" y="631" on="0"/>
        <pt x="446" y="618" on="1"/>
        <pt x="446" y="341" on="1"/>
        <pt x="540" y="341" on="1"/>
        <pt x="575" y="341" on="0"/>
        <pt x="615" y="354" on="0"/>
        <pt x="636" y="382" on="0"/>
        <pt x="642" y="427" on="0"/>
        <pt x="642" y="458" on="1"/>
        <pt x="660" y="458" on="1"/>
        <pt x="660" y="198" on="1"/>
        <pt x="642" y="198" on="1"/>
        <pt x="642" y="230" on="0"/>
        <pt x="636" y="274" on="0"/>
        <pt x="615" y="302" on="0"/>
        <pt x="575" y="315" on="0"/>
        <pt x="540" y="315" on="1"/>
        <pt x="446" y="315" on="1"/>
        <pt x="446" y="65" on="1"/>
        <pt x="446" y="52" on="0"/>
        <pt x="448" y="37" on="0"/>
        <pt x="456" y="29" on="0"/>
        <pt x="473" y="26" on="0"/>
        <pt x="488" y="26" on="1"/>
        <pt x="598" y="26" on="1"/>
        <pt x="660" y="26" on="0"/>
        <pt x="732" y="55" on="0"/>
        <pt x="772" y="112" on="0"/>
        <pt x="790" y="197" on="0"/>
        <pt x="798" y="253" on="1"/>
        <pt x="816" y="253" on="1"/>
      </contour>
      <contour>
        <pt x="228" y="341" on="1"/>
        <pt x="385" y="341" on="1"/>
        <pt x="385" y="609" on="1"/>
        <pt x="385" y="616" on="0"/>
        <pt x="384" y="632" on="0"/>
        <pt x="375" y="646" on="0"/>
        <pt x="357" y="655" on="0"/>
        <pt x="340" y="655" on="1"/>
      </contour>
    </TTGlyph>
    <TTGlyph name="B" xMin="52" yMin="0" xMax="607" yMax="683">
      <contour>
        <pt x="370" y="683" on="1"/>
        <pt x="418" y="683" on="0"/>
        <pt x="496" y="654" on="0"/>
        <pt x="551" y="606" on="0"/>
        <pt x="581" y="546" on="0"/>
        <pt x="581" y="515" on="1"/>
        <pt x="581" y="487" on="0"/>
        <pt x="557" y="435" on="0"/>
        <pt x="514" y="393" on="0"/>
        <pt x="454" y="363" on="0"/>
        <pt x="418" y="356" on="1"/>
        <pt x="458" y="353" on="0"/>
        <pt x="527" y="324" on="0"/>
        <pt x="578" y="277" on="0"/>
        <pt x="607" y="216" on="0"/>
        <pt x="607" y="182" on="1"/>
        <pt x="607" y="148" on="0"/>
        <pt x="577" y="82" on="0"/>
        <pt x="522" y="31" on="0"/>
        <pt x="444" y="0" on="0"/>
        <pt x="396" y="0" on="1"/>
        <pt x="52" y="0" on="1"/>
        <pt x="52" y="26" on="1"/>
        <pt x="78" y="26" on="0"/>
        <pt x="109" y="27" on="0"/>
        <pt x="126" y="36" on="0"/>
        <pt x="132" y="54" on="0"/>
        <pt x="132" y="71" on="1"/>
        <pt x="132" y="612" on="1"/>
        <pt x="132" y="629" on="0"/>
        <pt x="126" y="647" on="0"/>
        <pt x="109" y="656" on="0"/>
        <pt x="78" y="657" on="0"/>
        <pt x="52" y="657" on="1"/>
        <pt x="52" y="683" on="1"/>
      </contour>
      <contour>
        <pt x="339" y="363" on="1"/>
        <pt x="380" y="363" on="0"/>
        <pt x="442" y="389" on="0"/>
        <pt x="486" y="432" on="0"/>
        <pt x="508" y="487" on="0"/>
        <pt x="508" y="515" on="1"/>
        <pt x="508" y="538" on="0"/>
        <pt x="491" y="588" on="0"/>
        <pt x="456" y="630" on="0"/>
        <pt x="402" y="657" on="0"/>
        <pt x="365" y="657" on="1"/>
        <pt x="237" y="657" on="1"/>
        <pt x="222" y="657" on="0"/>
        <pt x="205" y="654" on="0"/>
        <pt x="197" y="646" on="0"/>
        <pt x="195" y="631" on="0"/>
        <pt x="195" y="618" on="1"/>
        <pt x="195" y="363" on="1"/>
      </contour>
      <contour>
        <pt x="367" y="26" on="1"/>
        <pt x="408" y="26" on="0"/>
        <pt x="470" y="55" on="0"/>
        <pt x="512" y="100" on="0"/>
        <pt x="533" y="156" on="0"/>
        <pt x="533" y="183" on="1"/>
        <pt x="533" y="210" on="0"/>
        <pt x="514" y="268" on="0"/>
        <pt x="476" y="316" on="0"/>
        <pt x="419" y="347" on="0"/>
        <pt x="380" y="347" on="1"/>
        <pt x="195" y="347" on="1"/>
        <pt x="195" y="65" on="1"/>
        <pt x="195" y="52" on="0"/>
        <pt x="197" y="37" on="0"/>
        <pt x="205" y="29" on="0"/>
        <pt x="222" y="26" on="0"/>
        <pt x="237" y="26" on="1"/>
      </contour>
    </TTGlyph>
    <TTGlyph name="C" xMin="46" yMin="-16" xMax="621" yMax="699">
      <contour>
        <pt x="621" y="442" on="1"/>
        <pt x="621" y="428" on="0"/>
        <pt x="618" y="422" on="0"/>
        <pt x="610" y="422" on="1"/>
        <pt x="603" y="422" on="0"/>
        <pt x="601" y="427" on="0"/>
        <pt x="599" y="436" on="1"/>
        <pt x="592" y="488" on="0"/>
        <pt x="555" y="575" on="0"/>
        <pt x="500" y="638" on="0"/>
        <pt x="427" y="673" on="0"/>
        <pt x="385" y="673" on="1"/>
        <pt x="349" y="673" on="0"/>
        <pt x="257" y="643" on="0"/>
        <pt x="177" y="568" on="0"/>
        <pt x="122" y="440" on="0"/>
        <pt x="122" y="342" on="1"/>
        <pt x="122" y="245" on="0"/>
        <pt x="176" y="116" on="0"/>
        <pt x="256" y="41" on="0"/>
        <pt x="349" y="10" on="0"/>
        <pt x="387" y="10" on="1"/>
        <pt x="428" y="10" on="0"/>
        <pt x="503" y="41" on="0"/>
        <pt x="562" y="100" on="0"/>
        <pt x="600" y="184" on="0"/>
        <pt x="603" y="236" on="1"/>
        <pt x="604" y="243" on="0"/>
        <pt x="606" y="248" on="0"/>
        <pt x="612" y="248" on="1"/>
        <pt x="619" y="248" on="0"/>
        <pt x="621" y="242" on="0"/>
        <pt x="621" y="234" on="1"/>
        <pt x="621" y="191" on="0"/>
        <pt x="587" y="102" on="0"/>
        <pt x="522" y="30" on="0"/>
        <pt x="430" y="-16" on="0"/>
        <pt x="373" y="-16" on="1"/>
        <pt x="309" y="-16" on="0"/>
        <pt x="190" y="37" on="0"/>
        <pt x="100" y="133" on="0"/>
        <pt x="46" y="264" on="0"/>
        <pt x="46" y="342" on="1"/>
        <pt x="46" y="419" on="0"/>
        <pt x="100" y="550" on="0"/>
        <pt x="190" y="645" on="0"/>
        <pt x="308" y="699" on="0"/>
        <pt x="372" y="699" on="1"/>
        <pt x="430" y="699" on="0"/>
        <pt x="521" y="648" on="0"/>
        <pt x="558" y="601" on="1"/>
        <pt x="602" y="685" on="1"/>
        <pt x="607" y="694" on="0"/>
        <pt x="611" y="698" on="0"/>
        <pt x="614" y="698" on="1"/>
        <pt x="619" y="698" on="0"/>
        <pt x="621" y="693" on="0"/>
        <pt x="621" y="679" on="1"/>
      </contour>
    </TTGlyph>
    <TTGlyph name="D" xMin="52" yMin="0" xMax="660" yMax="683">
      <contour>
        <pt x="370" y="683" on="1"/>
        <pt x="431" y="683" on="0"/>
        <pt x="537" y="628" on="0"/>
        <pt x="615" y="533" on="0"/>
        <pt x="660" y="407" on="0"/>
        <pt x="660" y="336" on="1"/>
        <pt x="660" y="266" on="0"/>
        <pt x="615" y="143" on="0"/>
        <pt x="536" y="52" on="0"/>
        <pt x="430" y="0" on="0"/>
        <pt x="370" y="0" on="1"/>
        <pt x="52" y="0" on="1"/>
        <pt x="52" y="26" on="1"/>
        <pt x="78" y="26" on="0"/>
        <pt x="109" y="27" on="0"/>
        <pt x="126" y="36" on="0"/>
        <pt x="132" y="54" on="0"/>
        <pt x="132" y="71" on="1"/>
        <pt x="132" y="612" on="1"/>
        <pt x="132" y="629" on="0"/>
        <pt x="126" y="647" on="0"/>
        <pt x="109" y="656" on="0"/>
        <pt x="78" y="657" on="0"/>
        <pt x="52" y="657" on="1"/>
        <pt x="52" y="683" on="1"/>
      </contour>
      <contour>
        <pt x="350" y="26" on="1"/>
        <pt x="386" y="26" on="0"/>
        <pt x="443" y="44" on="0"/>
        <pt x="486" y="70" on="0"/>
        <pt x="517" y="99" on="0"/>
        <pt x="526" y="111" on="1"/>
        <pt x="533" y="121" on="0"/>
        <pt x="554" y="154" on="0"/>
        <pt x="573" y="207" on="0"/>
        <pt x="586" y="283" on="0"/>
        <pt x="586" y="336" on="1"/>
        <pt x="586" y="438" on="0"/>
        <pt x="536" y="564" on="0"/>
        <pt x="463" y="633" on="0"/>
        <pt x="381" y="657" on="0"/>
        <pt x="350" y="657" on="1"/>
        <pt x="238" y="657" on="1"/>
        <pt x="223" y="657" on="0"/>
        <pt x="206" y="654" on="0"/>
        <pt x="198" y="646" on="0"/>
        <pt x="196" y="631" on="0"/>
        <pt x="196" y="618" on="1"/>
        <pt x="196" y="65" on="1"/>
        <pt x="196" y="52" on="0"/>
        <pt x="198" y="37" on="0"/>
        <pt x="206" y="29" on="0"/>
        <pt x="223" y="26" on="0"/>
        <pt x="238" y="26" on="1"/>
      </contour>
    </TTGlyph>
    <TTGlyph name="E" xMin="51" yMin="0" xMax="607" yMax="681">
      <contour>
        <pt x="571" y="0" on="1"/>
        <pt x="51" y="0" on="1"/>
        <pt x="51" y="26" on="1"/>
        <pt x="77" y="26" on="0"/>
        <pt x="108" y="27" on="0"/>
        <pt x="125" y="36" on="0"/>
        <pt x="131" y="54" on="0"/>
        <pt x="131" y="71" on="1"/>
        <pt x="131" y="610" on="1"/>
        <pt x="131" y="627" on="0"/>
        <pt x="125" y="645" on="0"/>
        <pt x="108" y="654" on="0"/>
        <pt x="77" y="655" on="0"/>
        <pt x="51" y="655" on="1"/>
        <pt x="51" y="681" on="1"/>
        <pt x="557" y="681" on="1"/>
        <pt x="581" y="460" on="1"/>
        <pt x="563" y="460" on="1"/>
        <pt x="558" y="510" on="0"/>
        <pt x="542" y="583" on="0"/>
        <pt x="503" y="631" on="0"/>
        <pt x="434" y="655" on="0"/>
        <pt x="376" y="655" on="1"/>
        <pt x="239" y="655" on="1"/>
        <pt x="224" y="655" on="0"/>
        <pt x="207" y="652" on="0"/>
        <pt x="199" y="644" on="0"/>
        <pt x="197" y="629" on="0"/>
        <pt x="197" y="616" on="1"/>
        <pt x="197" y="367" on="1"/>
        <pt x="291" y="367" on="1"/>
        <pt x="326" y="367" on="0"/>
        <pt x="367" y="380" on="0"/>
        <pt x="388" y="409" on="0"/>
        <pt x="394" y="453" on="0"/>
        <pt x="394" y="484" on="1"/>
        <pt x="412" y="484" on="1"/>
        <pt x="412" y="224" on="1"/>
        <pt x="394" y="224" on="1"/>
        <pt x="394" y="255" on="0"/>
        <pt x="388" y="299" on="0"/>
        <pt x="367" y="328" on="0"/>
        <pt x="326" y="341" on="0"/>
        <pt x="291" y="341" on="1"/>
        <pt x="197" y="341" on="1"/>
        <pt x="197" y="65" on="1"/>
        <pt x="197" y="52" on="0"/>
        <pt x="199" y="37" on="0"/>
        <pt x="207" y="29" on="0"/>
        <pt x="224" y="26" on="0"/>
        <pt x="239" y="26" on="1"/>
        <pt x="378" y="26" on="1"/>
        <pt x="444" y="26" on="0"/>
        <pt x="520" y="56" on="0"/>
        <pt x="562" y="113" on="0"/>
        <pt x="581" y="198" on="0"/>
        <pt x="589" y="253" on="1"/>
        <pt x="607" y="253" on="1"/>
      </contour>
    </TTGlyph>
    <TTGlyph name="F" xMin="51" yMin="0" xMax="568" yMax="681">
      <contour>
        <pt x="568" y="460" on="1"/>
        <pt x="550" y="460" on="1"/>
        <pt x="545" y="510" on="0"/>
        <pt x="529" y="583" on="0"/>
        <pt x="492" y="631" on="0"/>
        <pt x="425" y="655" on="0"/>
        <pt x="368" y="655" on="1"/>
        <pt x="239" y="655" on="1"/>
        <pt x="224" y="655" on="0"/>
        <pt x="207" y="652" on="0"/>
        <pt x="199" y="644" on="0"/>
        <pt x="197" y="629" on="0"/>
        <pt x="197" y="616" on="1"/>
        <pt x="197" y="354" on="1"/>
        <pt x="287" y="354" on="1"/>
        <pt x="322" y="354" on="0"/>
        <pt x="362" y="367" on="0"/>
        <pt x="383" y="395" on="0"/>
        <pt x="389" y="440" on="0"/>
        <pt x="389" y="471" on="1"/>
        <pt x="407" y="471" on="1"/>
        <pt x="407" y="211" on="1"/>
        <pt x="389" y="211" on="1"/>
        <pt x="389" y="243" on="0"/>
        <pt x="383" y="287" on="0"/>
        <pt x="362" y="315" on="0"/>
        <pt x="322" y="328" on="0"/>
        <pt x="287" y="328" on="1"/>
        <pt x="197" y="328" on="1"/>
        <pt x="197" y="72" on="1"/>
        <pt x="197" y="59" on="0"/>
        <pt x="200" y="41" on="0"/>
        <pt x="215" y="30" on="0"/>
        <pt x="247" y="26" on="0"/>
        <pt x="275" y="26" on="1"/>
        <pt x="297" y="26" on="1"/>
        <pt x="297" y="0" on="1"/>
        <pt x="266" y="2" on="0"/>
        <pt x="198" y="2" on="0"/>
        <pt x="167" y="2" on="1"/>
        <pt x="155" y="2" on="0"/>
        <pt x="124" y="2" on="0"/>
        <pt x="92" y="2" on="0"/>
        <pt x="62" y="1" on="0"/>
        <pt x="51" y="0" on="1"/>
        <pt x="51" y="26" on="1"/>
        <pt x="77" y="26" on="0"/>
        <pt x="108" y="27" on="0"/>
        <pt x="125" y="36" on="0"/>
        <pt x="131" y="54" on="0"/>
        <pt x="131" y="71" on="1"/>
        <pt x="131" y="610" on="1"/>
        <pt x="131" y="627" on="0"/>
        <pt x="125" y="645" on="0"/>
        <pt x="108" y="654" on="0"/>
        <pt x="77" y="655" on="0"/>
        <pt x="51" y="655" on="1"/>
        <pt x="51" y="681" on="1"/>
        <pt x="544" y="681" on="1"/>
      </contour>
    </TTGlyph>
    <TTGlyph name="G" xMin="46" yMin="-16" xMax="686" yMax="699">
      <contour>
        <pt x="621" y="20" on="1"/>
        <pt x="621" y="6" on="0"/>
        <pt x="619" y="1" on="0"/>
        <pt x="615" y="1" on="1"/>
        <pt x="611" y="1" on="0"/>
        <pt x="578" y="39" on="0"/>
        <pt x="565" y="70" on="1"/>
        <pt x="553" y="49" on="0"/>
        <pt x="514" y="16" on="0"/>
        <pt x="463" y="-5" on="0"/>
        <pt x="404" y="-16" on="0"/>
        <pt x="374" y="-16" on="1"/>
        <pt x="308" y="-16" on="0"/>
        <pt x="189" y="38" on="0"/>
        <pt x="99" y="134" on="0"/>
        <pt x="46" y="265" on="0"/>
        <pt x="46" y="342" on="1"/>
        <pt x="46" y="419" on="0"/>
        <pt x="100" y="550" on="0"/>
        <pt x="190" y="645" on="0"/>
        <pt x="308" y="699" on="0"/>
        <pt x="372" y="699" on="1"/>
        <pt x="430" y="699" on="0"/>
        <pt x="521" y="648" on="0"/>
        <pt x="558" y="601" on="1"/>
        <pt x="602" y="685" on="1"/>
        <pt x="607" y="694" on="0"/>
        <pt x="611" y="698" on="0"/>
        <pt x="614" y="698" on="1"/>
        <pt x="619" y="698" on="0"/>
        <pt x="621" y="693" on="0"/>
        <pt x="621" y="679" on="1"/>
        <pt x="621" y="442" on="1"/>
        <pt x="621" y="428" on="0"/>
        <pt x="618" y="422" on="0"/>
        <pt x="610" y="422" on="1"/>
        <pt x="603" y="422" on="0"/>
        <pt x="601" y="427" on="0"/>
        <pt x="599" y="436" on="1"/>
        <pt x="592" y="488" on="0"/>
        <pt x="555" y="575" on="0"/>
        <pt x="500" y="638" on="0"/>
        <pt x="427" y="673" on="0"/>
        <pt x="385" y="673" on="1"/>
        <pt x="349" y="673" on="0"/>
        <pt x="257" y="643" on="0"/>
        <pt x="177" y="568" on="0"/>
        <pt x="122" y="440" on="0"/>
        <pt x="122" y="342" on="1"/>
        <pt x="122" y="244" on="0"/>
        <pt x="178" y="116" on="0"/>
        <pt x="261" y="40" on="0"/>
        <pt x="355" y="10" on="0"/>
        <pt x="394" y="10" on="1"/>
        <pt x="406" y="10" on="0"/>
        <pt x="459" y="16" on="0"/>
        <pt x="513" y="40" on="0"/>
        <pt x="555" y="88" on="0"/>
        <pt x="555" y="129" on="1"/>
        <pt x="555" y="195" on="1"/>
        <pt x="555" y="209" on="0"/>
        <pt x="552" y="227" on="0"/>
        <pt x="535" y="237" on="0"/>
        <pt x="499" y="242" on="0"/>
        <pt x="467" y="242" on="1"/>
        <pt x="437" y="242" on="1"/>
        <pt x="437" y="268" on="1"/>
        <pt x="451" y="268" on="0"/>
        <pt x="492" y="267" on="0"/>
        <pt x="534" y="266" on="0"/>
        <pt x="571" y="266" on="0"/>
        <pt x="581" y="266" on="1"/>
        <pt x="591" y="266" on="0"/>
        <pt x="620" y="266" on="0"/>
        <pt x="650" y="266" on="0"/>
        <pt x="677" y="267" on="0"/>
        <pt x="686" y="268" on="1"/>
        <pt x="686" y="242" on="1"/>
        <pt x="663" y="242" on="0"/>
        <pt x="637" y="239" on="0"/>
        <pt x="624" y="230" on="0"/>
        <pt x="621" y="213" on="0"/>
        <pt x="621" y="199" on="1"/>
      </contour>
    </TTGlyph>
    <TTGlyph name="Gamma" xMin="51" yMin="0" xMax="542" yMax="681">
      <contour>
        <pt x="542" y="460" on="1"/>
        <pt x="524" y="460" on="1"/>
        <pt x="518" y="507" on="0"/>
        <pt x="505" y="580" on="0"/>
        <pt x="471" y="629" on="0"/>
        <pt x="406" y="655" on="0"/>
        <pt x="349" y="655" on="1"/>
        <pt x="239" y="655" on="1"/>
        <pt x="224" y="655" on="0"/>
        <pt x="207" y="652" on="0"/>
        <pt x="199" y="644" on="0"/>
        <pt x="197" y="629" on="0"/>
        <pt x="197" y="616" on="1"/>
        <pt x="197" y="72" on="1"/>
        <pt x="197" y="59" on="0"/>
        <pt x="200" y="41" on="0"/>
        <pt x="215" y="30" on="0"/>
        <pt x="247" y="26" on="0"/>
        <pt x="275" y="26" on="1"/>
        <pt x="297" y="26" on="1"/>
        <pt x="297" y="0" on="1"/>
        <pt x="266" y="2" on="0"/>
        <pt x="198" y="2" on="0"/>
        <pt x="167" y="2" on="1"/>
        <pt x="155" y="2" on="0"/>
        <pt x="124" y="2" on="0"/>
        <pt x="92" y="2" on="0"/>
        <pt x="62" y="1" on="0"/>
        <pt x="51" y="0" on="1"/>
        <pt x="51" y="26" on="1"/>
        <pt x="77" y="26" on="0"/>
        <pt x="108" y="27" on="0"/>
        <pt x="125" y="36" on="0"/>
        <pt x="131" y="54" on="0"/>
        <pt x="131" y="71" on="1"/>
        <pt x="131" y="610" on="1"/>
        <pt x="131" y="627" on="0"/>
        <pt x="125" y="645" on="0"/>
        <pt x="108" y="654" on="0"/>
        <pt x="77" y="655" on="0"/>
        <pt x="51" y="655" on="1"/>
        <pt x="51" y="681" on="1"/>
        <pt x="518" y="681" on="1"/>
      </contour>
    </TTGlyph>
    <TTGlyph name="H" xMin="51" yMin="0" xMax="641" yMax="683">
      <contour>
        <pt x="561" y="71" on="1"/>
        <pt x="561" y="54" on="0"/>
        <pt x="567" y="36" on="0"/>
        <pt x="584" y="27" on="0"/>
        <pt x="615" y="26" on="0"/>
        <pt x="641" y="26" on="1"/>
        <pt x="641" y="0" on="1"/>
        <pt x="630" y="1" on="0"/>
        <pt x="601" y="2" on="0"/>
        <pt x="570" y="2" on="0"/>
        <pt x="540" y="2" on="0"/>
        <pt x="528" y="2" on="1"/>
        <pt x="516" y="2" on="0"/>
        <pt x="486" y="2" on="0"/>
        <pt x="455" y="2" on="0"/>
        <pt x="426" y="1" on="0"/>
        <pt x="415" y="0" on="1"/>
        <pt x="415" y="26" on="1"/>
        <pt x="441" y="26" on="0"/>
        <pt x="472" y="27" on="0"/>
        <pt x="489" y="36" on="0"/>
        <pt x="495" y="54" on="0"/>
        <pt x="495" y="71" on="1"/>
        <pt x="495" y="342" on="1"/>
        <pt x="197" y="342" on="1"/>
        <pt x="197" y="71" on="1"/>
        <pt x="197" y="54" on="0"/>
        <pt x="203" y="36" on="0"/>
        <pt x="220" y="27" on="0"/>
        <pt x="251" y="26" on="0"/>
        <pt x="277" y="26" on="1"/>
        <pt x="277" y="0" on="1"/>
        <pt x="266" y="1" on="0"/>
        <pt x="237" y="2" on="0"/>
        <pt x="206" y="2" on="0"/>
        <pt x="176" y="2" on="0"/>
        <pt x="164" y="2" on="1"/>
        <pt x="152" y="2" on="0"/>
        <pt x="122" y="2" on="0"/>
        <pt x="91" y="2" on="0"/>
        <pt x="62" y="1" on="0"/>
        <pt x="51" y="0" on="1"/>
        <pt x="51" y="26" on="1"/>
        <pt x="77" y="26" on="0"/>
        <pt x="108" y="27" on="0"/>
        <pt x="125" y="36" on="0"/>
        <pt x="131" y="54" on="0"/>
        <pt x="131" y="71" on="1"/>
        <pt x="131" y="612" on="1"/>
        <pt x="131" y="629" on="0"/>
        <pt x="125" y="647" on="0"/>
        <pt x="108" y="656" on="0"/>
        <pt x="77" y="657" on="0"/>
        <pt x="51" y="657" on="1"/>
        <pt x="51" y="683" on="1"/>
        <pt x="62" y="682" on="0"/>
        <pt x="91" y="681" on="0"/>
        <pt x="122" y="681" on="0"/>
        <pt x="152" y="681" on="0"/>
        <pt x="164" y="681" on="1"/>
        <pt x="176" y="681" on="0"/>
        <pt x="206" y="681" on="0"/>
        <pt x="237" y="681" on="0"/>
        <pt x="266" y="682" on="0"/>
        <pt x="277" y="683" on="1"/>
        <pt x="277" y="657" on="1"/>
        <pt x="251" y="657" on="0"/>
        <pt x="220" y="656" on="0"/>
        <pt x="203" y="647" on="0"/>
        <pt x="197" y="629" on="0"/>
        <pt x="197" y="612" on="1"/>
        <pt x="197" y="368" on="1"/>
        <pt x="495" y="368" on="1"/>
        <pt x="495" y="612" on="1"/>
        <pt x="495" y="629" on="0"/>
        <pt x="489" y="647" on="0"/>
        <pt x="472" y="656" on="0"/>
        <pt x="441" y="657" on="0"/>
        <pt x="415" y="657" on="1"/>
        <pt x="415" y="683" on="1"/>
        <pt x="426" y="682" on="0"/>
        <pt x="455" y="681" on="0"/>
        <pt x="486" y="681" on="0"/>
        <pt x="516" y="681" on="0"/>
        <pt x="528" y="681" on="1"/>
        <pt x="540" y="681" on="0"/>
        <pt x="570" y="681" on="0"/>
        <pt x="601" y="681" on="0"/>
        <pt x="630" y="682" on="0"/>
        <pt x="641" y="683" on="1"/>
        <pt x="641" y="657" on="1"/>
        <pt x="615" y="657" on="0"/>
        <pt x="584" y="656" on="0"/>
        <pt x="567" y="647" on="0"/>
        <pt x="561" y="629" on="0"/>
        <pt x="561" y="612" on="1"/>
      </contour>
    </TTGlyph>
    <TTGlyph name="I" xMin="47" yMin="0" xMax="281" yMax="683">
      <contour>
        <pt x="197" y="71" on="1"/>
        <pt x="197" y="54" on="0"/>
        <pt x="203" y="36" on="0"/>
        <pt x="221" y="27" on="0"/>
        <pt x="254" y="26" on="0"/>
        <pt x="281" y="26" on="1"/>
        <pt x="281" y="0" on="1"/>
        <pt x="257" y="2" on="0"/>
        <pt x="190" y="2" on="0"/>
        <pt x="164" y="2" on="1"/>
        <pt x="138" y="2" on="0"/>
        <pt x="71" y="2" on="0"/>
        <pt x="47" y="0" on="1"/>
        <pt x="47" y="26" on="1"/>
        <pt x="74" y="26" on="0"/>
        <pt x="107" y="27" on="0"/>
        <pt x="125" y="36" on="0"/>
        <pt x="131" y="54" on="0"/>
        <pt x="131" y="71" on="1"/>
        <pt x="131" y="612" on="1"/>
        <pt x="131" y="629" on="0"/>
        <pt x="125" y="647" on="0"/>
        <pt x="107" y="656" on="0"/>
        <pt x="74" y="657" on="0"/>
        <pt x="47" y="657" on="1"/>
        <pt x="47" y="683" on="1"/>
        <pt x="71" y="681" on="0"/>
        <pt x="138" y="681" on="0"/>
        <pt x="164" y="681" on="1"/>
        <pt x="190" y="681" on="0"/>
        <pt x="257" y="681" on="0"/>
        <pt x="281" y="683" on="1"/>
        <pt x="281" y="657" on="1"/>
        <pt x="254" y="657" on="0"/>
        <pt x="221" y="656" on="0"/>
        <pt x="203" y="647" on="0"/>
        <pt x="197" y="629" on="0"/>
        <pt x="197" y="612" on="1"/>
      </contour>
    </TTGlyph>
    <TTGlyph name="J" xMin="53" yMin="-16" xMax="419" yMax="683">
      <contour>
        <pt x="295" y="610" on="1"/>
        <pt x="295" y="624" on="0"/>
        <pt x="292" y="642" on="0"/>
        <pt x="277" y="652" on="0"/>
        <pt x="244" y="657" on="0"/>
        <pt x="215" y="657" on="1"/>
        <pt x="191" y="657" on="1"/>
        <pt x="191" y="683" on="1"/>
        <pt x="223" y="681" on="0"/>
        <pt x="289" y="681" on="0"/>
        <pt x="321" y="681" on="1"/>
        <pt x="330" y="681" on="0"/>
        <pt x="363" y="682" on="0"/>
        <pt x="394" y="682" on="0"/>
        <pt x="418" y="683" on="0"/>
        <pt x="419" y="683" on="1"/>
        <pt x="419" y="657" on="1"/>
        <pt x="396" y="657" on="0"/>
        <pt x="364" y="652" on="0"/>
        <pt x="361" y="638" on="1"/>
        <pt x="359" y="633" on="0"/>
        <pt x="359" y="600" on="0"/>
        <pt x="359" y="587" on="1"/>
        <pt x="359" y="167" on="1"/>
        <pt x="359" y="142" on="0"/>
        <pt x="359" y="129" on="0"/>
        <pt x="358" y="124" on="1"/>
        <pt x="354" y="93" on="0"/>
        <pt x="324" y="41" on="0"/>
        <pt x="280" y="4" on="0"/>
        <pt x="225" y="-16" on="0"/>
        <pt x="196" y="-16" on="1"/>
        <pt x="165" y="-16" on="0"/>
        <pt x="113" y="5" on="0"/>
        <pt x="75" y="41" on="0"/>
        <pt x="53" y="87" on="0"/>
        <pt x="53" y="112" on="1"/>
        <pt x="53" y="134" on="0"/>
        <pt x="78" y="156" on="0"/>
        <pt x="96" y="156" on="1"/>
        <pt x="115" y="156" on="0"/>
        <pt x="138" y="132" on="0"/>
        <pt x="138" y="114" on="1"/>
        <pt x="138" y="91" on="0"/>
        <pt x="109" y="71" on="0"/>
        <pt x="95" y="71" on="1"/>
        <pt x="90" y="71" on="0"/>
        <pt x="82" y="73" on="1"/>
        <pt x="92" y="50" on="0"/>
        <pt x="122" y="22" on="0"/>
        <pt x="154" y="6" on="0"/>
        <pt x="184" y="0" on="0"/>
        <pt x="194" y="0" on="1"/>
        <pt x="213" y="0" on="0"/>
        <pt x="249" y="20" on="0"/>
        <pt x="278" y="58" on="0"/>
        <pt x="295" y="113" on="0"/>
        <pt x="295" y="147" on="1"/>
      </contour>
    </TTGlyph>
    <TTGlyph name="K" xMin="51" yMin="0" xMax="685" yMax="683">
      <contour>
        <pt x="592" y="78" on="1"/>
        <pt x="603" y="61" on="0"/>
        <pt x="622" y="40" on="0"/>
        <pt x="642" y="29" on="0"/>
        <pt x="667" y="26" on="0"/>
        <pt x="685" y="26" on="1"/>
        <pt x="685" y="0" on="1"/>
        <pt x="668" y="2" on="0"/>
        <pt x="615" y="2" on="0"/>
        <pt x="597" y="2" on="1"/>
        <pt x="572" y="2" on="0"/>
        <pt x="510" y="2" on="0"/>
        <pt x="486" y="0" on="1"/>
        <pt x="486" y="26" on="1"/>
        <pt x="491" y="26" on="0"/>
        <pt x="505" y="27" on="0"/>
        <pt x="518" y="32" on="0"/>
        <pt x="527" y="42" on="0"/>
        <pt x="527" y="52" on="1"/>
        <pt x="527" y="60" on="0"/>
        <pt x="519" y="77" on="0"/>
        <pt x="514" y="85" on="1"/>
        <pt x="325" y="375" on="1"/>
        <pt x="197" y="248" on="1"/>
        <pt x="197" y="71" on="1"/>
        <pt x="197" y="54" on="0"/>
        <pt x="203" y="36" on="0"/>
        <pt x="220" y="27" on="0"/>
        <pt x="251" y="26" on="0"/>
        <pt x="277" y="26" on="1"/>
        <pt x="277" y="0" on="1"/>
        <pt x="266" y="1" on="0"/>
        <pt x="237" y="2" on="0"/>
        <pt x="206" y="2" on="0"/>
        <pt x="176" y="2" on="0"/>
        <pt x="164" y="2" on="1"/>
        <pt x="152" y="2" on="0"/>
        <pt x="122" y="2" on="0"/>
        <pt x="91" y="2" on="0"/>
        <pt x="62" y="1" on="0"/>
        <pt x="51" y="0" on="1"/>
        <pt x="51" y="26" on="1"/>
        <pt x="77" y="26" on="0"/>
        <pt x="108" y="27" on="0"/>
        <pt x="125" y="36" on="0"/>
        <pt x="131" y="54" on="0"/>
        <pt x="131" y="71" on="1"/>
        <pt x="131" y="612" on="1"/>
        <pt x="131" y="629" on="0"/>
        <pt x="125" y="647" on="0"/>
        <pt x="108" y="656" on="0"/>
        <pt x="77" y="657" on="0"/>
        <pt x="51" y="657" on="1"/>
        <pt x="51" y="683" on="1"/>
        <pt x="62" y="682" on="0"/>
        <pt x="91" y="681" on="0"/>
        <pt x="122" y="681" on="0"/>
        <pt x="152" y="681" on="0"/>
        <pt x="164" y="681" on="1"/>
        <pt x="176" y="681" on="0"/>
        <pt x="206" y="681" on="0"/>
        <pt x="237" y="681" on="0"/>
        <pt x="266" y="682" on="0"/>
        <pt x="277" y="683" on="1"/>
        <pt x="277" y="657" on="1"/>
        <pt x="251" y="657" on="0"/>
        <pt x="220" y="656" on="0"/>
        <pt x="203" y="647" on="0"/>
        <pt x="197" y="629" on="0"/>
        <pt x="197" y="612" on="1"/>
        <pt x="197" y="273" on="1"/>
        <pt x="529" y="606" on="1"/>
        <pt x="532" y="611" on="0"/>
        <pt x="537" y="625" on="0"/>
        <pt x="537" y="630" on="1"/>
        <pt x="537" y="635" on="0"/>
        <pt x="527" y="655" on="0"/>
        <pt x="507" y="657" on="1"/>
        <pt x="507" y="683" on="1"/>
        <pt x="517" y="682" on="0"/>
        <pt x="543" y="681" on="0"/>
        <pt x="570" y="681" on="0"/>
        <pt x="597" y="681" on="0"/>
        <pt x="607" y="681" on="1"/>
        <pt x="622" y="681" on="0"/>
        <pt x="657" y="682" on="0"/>
        <pt x="672" y="683" on="1"/>
        <pt x="672" y="657" on="1"/>
        <pt x="630" y="655" on="0"/>
        <pt x="569" y="618" on="0"/>
        <pt x="542" y="592" on="1"/>
        <pt x="369" y="419" on="1"/>
      </contour>
    </TTGlyph>
    <TTGlyph name="L" xMin="51" yMin="0" xMax="542" yMax="683">
      <contour>
        <pt x="518" y="0" on="1"/>
        <pt x="51" y="0" on="1"/>
        <pt x="51" y="26" on="1"/>
        <pt x="77" y="26" on="0"/>
        <pt x="108" y="27" on="0"/>
        <pt x="125" y="36" on="0"/>
        <pt x="131" y="54" on="0"/>
        <pt x="131" y="71" on="1"/>
        <pt x="131" y="612" on="1"/>
        <pt x="131" y="629" on="0"/>
        <pt x="125" y="647" on="0"/>
        <pt x="108" y="656" on="0"/>
        <pt x="77" y="657" on="0"/>
        <pt x="51" y="657" on="1"/>
        <pt x="51" y="683" on="1"/>
        <pt x="62" y="682" on="0"/>
        <pt x="92" y="681" on="0"/>
        <pt x="124" y="681" on="0"/>
        <pt x="155" y="681" on="0"/>
        <pt x="167" y="681" on="1"/>
        <pt x="198" y="681" on="0"/>
        <pt x="266" y="681" on="0"/>
        <pt x="297" y="683" on="1"/>
        <pt x="297" y="657" on="1"/>
        <pt x="275" y="657" on="1"/>
        <pt x="247" y="657" on="0"/>
        <pt x="215" y="653" on="0"/>
        <pt x="200" y="642" on="0"/>
        <pt x="197" y="625" on="0"/>
        <pt x="197" y="611" on="1"/>
        <pt x="197" y="65" on="1"/>
        <pt x="197" y="52" on="0"/>
        <pt x="199" y="37" on="0"/>
        <pt x="207" y="29" on="0"/>
        <pt x="224" y="26" on="0"/>
        <pt x="239" y="26" on="1"/>
        <pt x="332" y="26" on="1"/>
        <pt x="396" y="26" on="0"/>
        <pt x="470" y="69" on="0"/>
        <pt x="508" y="136" on="0"/>
        <pt x="521" y="216" on="0"/>
        <pt x="524" y="253" on="1"/>
        <pt x="542" y="253" on="1"/>
      </contour>
    </TTGlyph>
    <TTGlyph name="Lambda" xMin="23" yMin="0" xMax="617" yMax="707">
      <contour>
        <pt x="543" y="61" on="1"/>
        <pt x="552" y="35" on="0"/>
        <pt x="584" y="26" on="0"/>
        <pt x="617" y="26" on="1"/>
        <pt x="617" y="0" on="1"/>
        <pt x="608" y="1" on="0"/>
        <pt x="584" y="2" on="0"/>
        <pt x="558" y="2" on="0"/>
        <pt x="532" y="2" on="0"/>
        <pt x="523" y="2" on="1"/>
        <pt x="511" y="2" on="0"/>
        <pt x="482" y="2" on="0"/>
        <pt x="452" y="2" on="0"/>
        <pt x="423" y="1" on="0"/>
        <pt x="412" y="0" on="1"/>
        <pt x="412" y="26" on="1"/>
        <pt x="420" y="26" on="0"/>
        <pt x="442" y="27" on="0"/>
        <pt x="461" y="32" on="0"/>
        <pt x="475" y="44" on="0"/>
        <pt x="475" y="54" on="1"/>
        <pt x="475" y="56" on="0"/>
        <pt x="474" y="62" on="0"/>
        <pt x="470" y="73" on="1"/>
        <pt x="296" y="601" on="1"/>
        <pt x="130" y="96" on="1"/>
        <pt x="128" y="88" on="0"/>
        <pt x="125" y="78" on="0"/>
        <pt x="125" y="73" on="1"/>
        <pt x="125" y="70" on="0"/>
        <pt x="128" y="56" on="0"/>
        <pt x="139" y="40" on="0"/>
        <pt x="161" y="27" on="0"/>
        <pt x="181" y="26" on="1"/>
        <pt x="181" y="0" on="1"/>
        <pt x="163" y="2" on="0"/>
        <pt x="112" y="2" on="0"/>
        <pt x="93" y="2" on="1"/>
        <pt x="79" y="2" on="0"/>
        <pt x="36" y="1" on="0"/>
        <pt x="23" y="0" on="1"/>
        <pt x="23" y="26" on="1"/>
        <pt x="48" y="27" on="0"/>
        <pt x="93" y="52" on="0"/>
        <pt x="107" y="92" on="1"/>
        <pt x="304" y="690" on="1"/>
        <pt x="308" y="702" on="0"/>
        <pt x="312" y="707" on="0"/>
        <pt x="320" y="707" on="1"/>
        <pt x="328" y="707" on="0"/>
        <pt x="332" y="702" on="0"/>
        <pt x="336" y="690" on="1"/>
      </contour>
    </TTGlyph>
    <TTGlyph name="M" xMin="53" yMin="0" xMax="796" yMax="683">
      <contour>
        <pt x="425" y="81" on="1"/>
        <pt x="641" y="667" on="1"/>
        <pt x="646" y="678" on="0"/>
        <pt x="653" y="683" on="0"/>
        <pt x="669" y="683" on="1"/>
        <pt x="796" y="683" on="1"/>
        <pt x="796" y="657" on="1"/>
        <pt x="770" y="657" on="0"/>
        <pt x="739" y="656" on="0"/>
        <pt x="722" y="647" on="0"/>
        <pt x="716" y="629" on="0"/>
        <pt x="716" y="612" on="1"/>
        <pt x="716" y="71" on="1"/>
        <pt x="716" y="54" on="0"/>
        <pt x="722" y="36" on="0"/>
        <pt x="739" y="27" on="0"/>
        <pt x="770" y="26" on="0"/>
        <pt x="796" y="26" on="1"/>
        <pt x="796" y="0" on="1"/>
        <pt x="786" y="1" on="0"/>
        <pt x="757" y="2" on="0"/>
        <pt x="726" y="2" on="0"/>
        <pt x="696" y="2" on="0"/>
        <pt x="685" y="2" on="1"/>
        <pt x="674" y="2" on="0"/>
        <pt x="645" y="2" on="0"/>
        <pt x="614" y="2" on="0"/>
        <pt x="585" y="1" on="0"/>
        <pt x="575" y="0" on="1"/>
        <pt x="575" y="26" on="1"/>
        <pt x="601" y="26" on="0"/>
        <pt x="632" y="27" on="0"/>
        <pt x="649" y="36" on="0"/>
        <pt x="655" y="54" on="0"/>
        <pt x="655" y="71" on="1"/>
        <pt x="655" y="658" on="1"/>
        <pt x="654" y="658" on="1"/>
        <pt x="417" y="16" on="1"/>
        <pt x="414" y="8" on="0"/>
        <pt x="409" y="0" on="0"/>
        <pt x="403" y="0" on="1"/>
        <pt x="397" y="0" on="0"/>
        <pt x="392" y="8" on="0"/>
        <pt x="389" y="16" on="1"/>
        <pt x="154" y="653" on="1"/>
        <pt x="153" y="653" on="1"/>
        <pt x="153" y="98" on="1"/>
        <pt x="153" y="89" on="0"/>
        <pt x="156" y="64" on="0"/>
        <pt x="171" y="41" on="0"/>
        <pt x="203" y="26" on="0"/>
        <pt x="233" y="26" on="1"/>
        <pt x="233" y="0" on="1"/>
        <pt x="224" y="1" on="0"/>
        <pt x="201" y="2" on="0"/>
        <pt x="176" y="2" on="0"/>
        <pt x="152" y="2" on="0"/>
        <pt x="143" y="2" on="1"/>
        <pt x="134" y="2" on="0"/>
        <pt x="110" y="2" on="0"/>
        <pt x="85" y="2" on="0"/>
        <pt x="62" y="1" on="0"/>
        <pt x="53" y="0" on="1"/>
        <pt x="53" y="26" on="1"/>
        <pt x="83" y="26" on="0"/>
        <pt x="116" y="41" on="0"/>
        <pt x="131" y="64" on="0"/>
        <pt x="133" y="89" on="0"/>
        <pt x="133" y="98" on="1"/>
        <pt x="133" y="612" on="1"/>
        <pt x="133" y="629" on="0"/>
        <pt x="127" y="647" on="0"/>
        <pt x="110" y="656" on="0"/>
        <pt x="79" y="657" on="0"/>
        <pt x="53" y="657" on="1"/>
        <pt x="53" y="683" on="1"/>
        <pt x="181" y="683" on="1"/>
        <pt x="197" y="683" on="0"/>
        <pt x="204" y="678" on="0"/>
        <pt x="209" y="667" on="1"/>
      </contour>
    </TTGlyph>
    <TTGlyph name="N" xMin="51" yMin="0" xMax="641" yMax="683">
      <contour>
        <pt x="541" y="122" on="1"/>
        <pt x="541" y="585" on="1"/>
        <pt x="541" y="594" on="0"/>
        <pt x="539" y="619" on="0"/>
        <pt x="524" y="642" on="0"/>
        <pt x="491" y="657" on="0"/>
        <pt x="461" y="657" on="1"/>
        <pt x="461" y="683" on="1"/>
        <pt x="478" y="682" on="0"/>
        <pt x="532" y="681" on="0"/>
        <pt x="551" y="681" on="1"/>
        <pt x="570" y="681" on="0"/>
        <pt x="624" y="682" on="0"/>
        <pt x="641" y="683" on="1"/>
        <pt x="641" y="657" on="1"/>
        <pt x="611" y="657" on="0"/>
        <pt x="579" y="642" on="0"/>
        <pt x="564" y="619" on="0"/>
        <pt x="561" y="594" on="0"/>
        <pt x="561" y="585" on="1"/>
        <pt x="561" y="22" on="1"/>
        <pt x="561" y="8" on="0"/>
        <pt x="559" y="0" on="0"/>
        <pt x="551" y="0" on="1"/>
        <pt x="547" y="0" on="0"/>
        <pt x="541" y="3" on="0"/>
        <pt x="536" y="12" on="1"/>
        <pt x="165" y="619" on="1"/>
        <pt x="160" y="627" on="0"/>
        <pt x="156" y="632" on="0"/>
        <pt x="151" y="637" on="1"/>
        <pt x="151" y="98" on="1"/>
        <pt x="151" y="89" on="0"/>
        <pt x="154" y="64" on="0"/>
        <pt x="169" y="41" on="0"/>
        <pt x="201" y="26" on="0"/>
        <pt x="231" y="26" on="1"/>
        <pt x="231" y="0" on="1"/>
        <pt x="222" y="1" on="0"/>
        <pt x="199" y="2" on="0"/>
        <pt x="174" y="2" on="0"/>
        <pt x="150" y="2" on="0"/>
        <pt x="141" y="2" on="1"/>
        <pt x="132" y="2" on="0"/>
        <pt x="108" y="2" on="0"/>
        <pt x="83" y="2" on="0"/>
        <pt x="60" y="1" on="0"/>
        <pt x="51" y="0" on="1"/>
        <pt x="51" y="26" on="1"/>
        <pt x="81" y="26" on="0"/>
        <pt x="114" y="41" on="0"/>
        <pt x="129" y="64" on="0"/>
        <pt x="131" y="89" on="0"/>
        <pt x="131" y="98" on="1"/>
        <pt x="131" y="651" on="1"/>
        <pt x="129" y="652" on="0"/>
        <pt x="100" y="657" on="0"/>
        <pt x="70" y="657" on="1"/>
        <pt x="51" y="657" on="1"/>
        <pt x="51" y="683" on="1"/>
        <pt x="178" y="683" on="1"/>
        <pt x="192" y="683" on="0"/>
        <pt x="200" y="679" on="0"/>
        <pt x="205" y="671" on="1"/>
      </contour>
    </TTGlyph>
    <TTGlyph name="O" xMin="46" yMin="-16" xMax="673" yMax="699">
      <contour>
        <pt x="673" y="340" on="1"/>
        <pt x="673" y="265" on="0"/>
        <pt x="623" y="135" on="0"/>
        <pt x="537" y="39" on="0"/>
        <pt x="423" y="-16" on="0"/>
        <pt x="359" y="-16" on="1"/>
        <pt x="296" y="-16" on="0"/>
        <pt x="183" y="38" on="0"/>
        <pt x="97" y="134" on="0"/>
        <pt x="46" y="264" on="0"/>
        <pt x="46" y="340" on="1"/>
        <pt x="46" y="416" on="0"/>
        <pt x="96" y="547" on="0"/>
        <pt x="182" y="644" on="0"/>
        <pt x="296" y="699" on="0"/>
        <pt x="360" y="699" on="1"/>
        <pt x="422" y="699" on="0"/>
        <pt x="536" y="644" on="0"/>
        <pt x="622" y="548" on="0"/>
        <pt x="673" y="417" on="0"/>
      </contour>
      <contour>
        <pt x="360" y="2" on="1"/>
        <pt x="401" y="2" on="0"/>
        <pt x="486" y="44" on="0"/>
        <pt x="554" y="130" on="0"/>
        <pt x="597" y="263" on="0"/>
        <pt x="597" y="353" on="1"/>
        <pt x="597" y="440" on="0"/>
        <pt x="552" y="565" on="0"/>
        <pt x="483" y="644" on="0"/>
        <pt x="399" y="681" on="0"/>
        <pt x="359" y="681" on="1"/>
        <pt x="321" y="681" on="0"/>
        <pt x="238" y="645" on="0"/>
        <pt x="168" y="566" on="0"/>
        <pt x="122" y="442" on="0"/>
        <pt x="122" y="353" on="1"/>
        <pt x="122" y="264" on="0"/>
        <pt x="164" y="132" on="0"/>
        <pt x="232" y="45" on="0"/>
        <pt x="317" y="2" on="0"/>
      </contour>
    </TTGlyph>
    <TTGlyph name="OE" xMin="59" yMin="-16" xMax="921" yMax="699">
      <contour>
        <pt x="885" y="0" on="1"/>
        <pt x="509" y="0" on="1"/>
        <pt x="499" y="0" on="0"/>
        <pt x="474" y="-2" on="0"/>
        <pt x="446" y="-7" on="1"/>
        <pt x="430" y="-10" on="0"/>
        <pt x="407" y="-14" on="0"/>
        <pt x="391" y="-15" on="0"/>
        <pt x="378" y="-16" on="0"/>
        <pt x="371" y="-16" on="1"/>
        <pt x="310" y="-16" on="0"/>
        <pt x="197" y="38" on="0"/>
        <pt x="111" y="133" on="0"/>
        <pt x="59" y="263" on="0"/>
        <pt x="59" y="340" on="1"/>
        <pt x="59" y="418" on="0"/>
        <pt x="111" y="549" on="0"/>
        <pt x="197" y="645" on="0"/>
        <pt x="310" y="699" on="0"/>
        <pt x="371" y="699" on="1"/>
        <pt x="385" y="699" on="0"/>
        <pt x="413" y="696" on="0"/>
        <pt x="444" y="690" on="1"/>
        <pt x="473" y="685" on="0"/>
        <pt x="499" y="683" on="0"/>
        <pt x="509" y="683" on="1"/>
        <pt x="871" y="683" on="1"/>
        <pt x="895" y="462" on="1"/>
        <pt x="877" y="462" on="1"/>
        <pt x="872" y="511" on="0"/>
        <pt x="857" y="584" on="0"/>
        <pt x="821" y="633" on="0"/>
        <pt x="756" y="657" on="0"/>
        <pt x="700" y="657" on="1"/>
        <pt x="575" y="657" on="1"/>
        <pt x="560" y="657" on="0"/>
        <pt x="543" y="654" on="0"/>
        <pt x="535" y="646" on="0"/>
        <pt x="533" y="631" on="0"/>
        <pt x="533" y="618" on="1"/>
        <pt x="533" y="368" on="1"/>
        <pt x="648" y="368" on="1"/>
        <pt x="686" y="368" on="0"/>
        <pt x="730" y="381" on="0"/>
        <pt x="753" y="409" on="0"/>
        <pt x="760" y="453" on="0"/>
        <pt x="760" y="485" on="1"/>
        <pt x="778" y="485" on="1"/>
        <pt x="778" y="225" on="1"/>
        <pt x="760" y="225" on="1"/>
        <pt x="760" y="257" on="0"/>
        <pt x="753" y="302" on="0"/>
        <pt x="729" y="330" on="0"/>
        <pt x="685" y="342" on="0"/>
        <pt x="648" y="342" on="1"/>
        <pt x="533" y="342" on="1"/>
        <pt x="533" y="65" on="1"/>
        <pt x="533" y="52" on="0"/>
        <pt x="535" y="37" on="0"/>
        <pt x="543" y="29" on="0"/>
        <pt x="560" y="26" on="0"/>
        <pt x="575" y="26" on="1"/>
        <pt x="699" y="26" on="1"/>
        <pt x="763" y="26" on="0"/>
        <pt x="836" y="55" on="0"/>
        <pt x="877" y="113" on="0"/>
        <pt x="895" y="198" on="0"/>
        <pt x="903" y="253" on="1"/>
        <pt x="921" y="253" on="1"/>
      </contour>
      <contour>
        <pt x="477" y="497" on="1"/>
        <pt x="477" y="553" on="0"/>
        <pt x="467" y="625" on="0"/>
        <pt x="443" y="667" on="0"/>
        <pt x="402" y="683" on="0"/>
        <pt x="372" y="683" on="1"/>
        <pt x="326" y="683" on="0"/>
        <pt x="240" y="635" on="0"/>
        <pt x="173" y="549" on="0"/>
        <pt x="133" y="428" on="0"/>
        <pt x="133" y="354" on="1"/>
        <pt x="133" y="278" on="0"/>
        <pt x="172" y="149" on="0"/>
        <pt x="238" y="54" on="0"/>
        <pt x="325" y="0" on="0"/>
        <pt x="373" y="0" on="1"/>
        <pt x="403" y="0" on="0"/>
        <pt x="443" y="17" on="0"/>
        <pt x="467" y="59" on="0"/>
        <pt x="477" y="131" on="0"/>
        <pt x="477" y="186" on="1"/>
      </contour>
    </TTGlyph>
    <TTGlyph name="Oslash" xMin="46" yMin="-54" xMax="673" yMax="737">
      <contour>
        <pt x="558" y="618" on="1"/>
        <pt x="617" y="562" on="0"/>
        <pt x="673" y="416" on="0"/>
        <pt x="673" y="340" on="1"/>
        <pt x="673" y="265" on="0"/>
        <pt x="623" y="135" on="0"/>
        <pt x="537" y="39" on="0"/>
        <pt x="423" y="-16" on="0"/>
        <pt x="359" y="-16" on="1"/>
        <pt x="346" y="-16" on="0"/>
        <pt x="307" y="-12" on="0"/>
        <pt x="259" y="2" on="0"/>
        <pt x="204" y="29" on="0"/>
        <pt x="174" y="52" on="1"/>
        <pt x="102" y="-54" on="1"/>
        <pt x="88" y="-44" on="1"/>
        <pt x="161" y="65" on="1"/>
        <pt x="123" y="102" on="0"/>
        <pt x="77" y="179" on="0"/>
        <pt x="53" y="252" on="0"/>
        <pt x="46" y="316" on="0"/>
        <pt x="46" y="340" on="1"/>
        <pt x="46" y="416" on="0"/>
        <pt x="96" y="547" on="0"/>
        <pt x="182" y="644" on="0"/>
        <pt x="296" y="699" on="0"/>
        <pt x="360" y="699" on="1"/>
        <pt x="417" y="699" on="0"/>
        <pt x="507" y="659" on="0"/>
        <pt x="545" y="631" on="1"/>
        <pt x="617" y="737" on="1"/>
        <pt x="631" y="727" on="1"/>
      </contour>
      <contour>
        <pt x="526" y="604" on="1"/>
        <pt x="520" y="611" on="0"/>
        <pt x="493" y="638" on="0"/>
        <pt x="450" y="664" on="0"/>
        <pt x="394" y="683" on="0"/>
        <pt x="359" y="683" on="1"/>
        <pt x="339" y="683" on="0"/>
        <pt x="286" y="672" on="0"/>
        <pt x="232" y="643" on="0"/>
        <pt x="179" y="593" on="0"/>
        <pt x="137" y="517" on="0"/>
        <pt x="112" y="411" on="0"/>
        <pt x="112" y="340" on="1"/>
        <pt x="112" y="255" on="0"/>
        <pt x="147" y="138" on="0"/>
        <pt x="180" y="93" on="1"/>
      </contour>
      <contour>
        <pt x="192" y="78" on="1"/>
        <pt x="202" y="69" on="0"/>
        <pt x="232" y="42" on="0"/>
        <pt x="273" y="17" on="0"/>
        <pt x="326" y="0" on="0"/>
        <pt x="359" y="0" on="1"/>
        <pt x="391" y="0" on="0"/>
        <pt x="477" y="28" on="0"/>
        <pt x="554" y="103" on="0"/>
        <pt x="607" y="236" on="0"/>
        <pt x="607" y="340" on="1"/>
        <pt x="607" y="419" on="0"/>
        <pt x="574" y="542" on="0"/>
        <pt x="538" y="590" on="1"/>
      </contour>
    </TTGlyph>
    <TTGlyph name="P" xMin="52" yMin="0" xMax="581" yMax="683">
      <contour>
        <pt x="198" y="71" on="1"/>
        <pt x="198" y="54" on="0"/>
        <pt x="204" y="36" on="0"/>
        <pt x="221" y="27" on="0"/>
        <pt x="252" y="26" on="0"/>
        <pt x="278" y="26" on="1"/>
        <pt x="278" y="0" on="1"/>
        <pt x="267" y="1" on="0"/>
        <pt x="238" y="2" on="0"/>
        <pt x="207" y="2" on="0"/>
        <pt x="177" y="2" on="0"/>
        <pt x="165" y="2" on="1"/>
        <pt x="153" y="2" on="0"/>
        <pt x="123" y="2" on="0"/>
        <pt x="92" y="2" on="0"/>
        <pt x="63" y="1" on="0"/>
        <pt x="52" y="0" on="1"/>
        <pt x="52" y="26" on="1"/>
        <pt x="78" y="26" on="0"/>
        <pt x="109" y="27" on="0"/>
        <pt x="126" y="36" on="0"/>
        <pt x="132" y="54" on="0"/>
        <pt x="132" y="71" on="1"/>
        <pt x="132" y="612" on="1"/>
        <pt x="132" y="629" on="0"/>
        <pt x="126" y="647" on="0"/>
        <pt x="109" y="656" on="0"/>
        <pt x="78" y="657" on="0"/>
        <pt x="52" y="657" on="1"/>
        <pt x="52" y="683" on="1"/>
        <pt x="358" y="683" on="1"/>
        <pt x="407" y="683" on="0"/>
        <pt x="489" y="653" on="0"/>
        <pt x="548" y="602" on="0"/>
        <pt x="581" y="536" on="0"/>
        <pt x="581" y="500" on="1"/>
        <pt x="581" y="464" on="0"/>
        <pt x="548" y="400" on="0"/>
        <pt x="488" y="350" on="0"/>
        <pt x="406" y="321" on="0"/>
        <pt x="358" y="321" on="1"/>
        <pt x="198" y="321" on="1"/>
      </contour>
      <contour>
        <pt x="339" y="342" on="1"/>
        <pt x="385" y="342" on="0"/>
        <pt x="448" y="366" on="0"/>
        <pt x="487" y="408" on="0"/>
        <pt x="505" y="466" on="0"/>
        <pt x="505" y="500" on="1"/>
        <pt x="505" y="531" on="0"/>
        <pt x="489" y="588" on="0"/>
        <pt x="451" y="631" on="0"/>
        <pt x="387" y="657" on="0"/>
        <pt x="339" y="657" on="1"/>
        <pt x="238" y="657" on="1"/>
        <pt x="223" y="657" on="0"/>
        <pt x="206" y="654" on="0"/>
        <pt x="198" y="646" on="0"/>
        <pt x="196" y="631" on="0"/>
        <pt x="196" y="618" on="1"/>
        <pt x="196" y="342" on="1"/>
      </contour>
    </TTGlyph>
    <TTGlyph name="Phi" xMin="46" yMin="0" xMax="621" yMax="683">
      <contour>
        <pt x="364" y="72" on="1"/>
        <pt x="364" y="59" on="0"/>
        <pt x="367" y="41" on="0"/>
        <pt x="382" y="30" on="0"/>
        <pt x="414" y="26" on="0"/>
        <pt x="442" y="26" on="1"/>
        <pt x="464" y="26" on="1"/>
        <pt x="464" y="0" on="1"/>
        <pt x="433" y="2" on="0"/>
        <pt x="365" y="2" on="0"/>
        <pt x="333" y="2" on="1"/>
        <pt x="301" y="2" on="0"/>
        <pt x="232" y="2" on="0"/>
        <pt x="201" y="0" on="1"/>
        <pt x="201" y="26" on="1"/>
        <pt x="223" y="26" on="1"/>
        <pt x="252" y="26" on="0"/>
        <pt x="283" y="30" on="0"/>
        <pt x="298" y="41" on="0"/>
        <pt x="301" y="59" on="0"/>
        <pt x="301" y="72" on="1"/>
        <pt x="301" y="129" on="1"/>
        <pt x="244" y="134" on="0"/>
        <pt x="150" y="173" on="0"/>
        <pt x="83" y="231" on="0"/>
        <pt x="46" y="303" on="0"/>
        <pt x="46" y="342" on="1"/>
        <pt x="46" y="379" on="0"/>
        <pt x="82" y="451" on="0"/>
        <pt x="148" y="509" on="0"/>
        <pt x="242" y="549" on="0"/>
        <pt x="301" y="554" on="1"/>
        <pt x="301" y="611" on="1"/>
        <pt x="301" y="625" on="0"/>
        <pt x="298" y="642" on="0"/>
        <pt x="283" y="653" on="0"/>
        <pt x="252" y="657" on="0"/>
        <pt x="223" y="657" on="1"/>
        <pt x="201" y="657" on="1"/>
        <pt x="201" y="683" on="1"/>
        <pt x="232" y="681" on="0"/>
        <pt x="301" y="681" on="0"/>
        <pt x="333" y="681" on="1"/>
        <pt x="365" y="681" on="0"/>
        <pt x="433" y="681" on="0"/>
        <pt x="464" y="683" on="1"/>
        <pt x="464" y="657" on="1"/>
        <pt x="442" y="657" on="1"/>
        <pt x="414" y="657" on="0"/>
        <pt x="382" y="653" on="0"/>
        <pt x="367" y="642" on="0"/>
        <pt x="364" y="625" on="0"/>
        <pt x="364" y="611" on="1"/>
        <pt x="364" y="554" on="1"/>
        <pt x="423" y="549" on="0"/>
        <pt x="518" y="509" on="0"/>
        <pt x="585" y="451" on="0"/>
        <pt x="621" y="379" on="0"/>
        <pt x="621" y="341" on="1"/>
        <pt x="621" y="305" on="0"/>
        <pt x="586" y="233" on="0"/>
        <pt x="520" y="175" on="0"/>
        <pt x="425" y="134" on="0"/>
        <pt x="364" y="129" on="1"/>
      </contour>
      <contour>
        <pt x="301" y="537" on="1"/>
        <pt x="268" y="534" on="0"/>
        <pt x="204" y="510" on="0"/>
        <pt x="152" y="464" on="0"/>
        <pt x="120" y="392" on="0"/>
        <pt x="120" y="341" on="1"/>
        <pt x="120" y="291" on="0"/>
        <pt x="151" y="221" on="0"/>
        <pt x="202" y="174" on="0"/>
        <pt x="267" y="150" on="0"/>
        <pt x="301" y="146" on="1"/>
      </contour>
      <contour>
        <pt x="364" y="146" on="1"/>
        <pt x="392" y="149" on="0"/>
        <pt x="456" y="169" on="0"/>
        <pt x="511" y="214" on="0"/>
        <pt x="547" y="287" on="0"/>
        <pt x="547" y="342" on="1"/>
        <pt x="547" y="396" on="0"/>
        <pt x="512" y="468" on="0"/>
        <pt x="458" y="513" on="0"/>
        <pt x="394" y="534" on="0"/>
        <pt x="364" y="537" on="1"/>
      </contour>
    </TTGlyph>
    <TTGlyph name="Pi" xMin="51" yMin="0" xMax="641" yMax="681">
      <contour>
        <pt x="561" y="71" on="1"/>
        <pt x="561" y="54" on="0"/>
        <pt x="567" y="36" on="0"/>
        <pt x="584" y="27" on="0"/>
        <pt x="615" y="26" on="0"/>
        <pt x="641" y="26" on="1"/>
        <pt x="641" y="0" on="1"/>
        <pt x="630" y="1" on="0"/>
        <pt x="601" y="2" on="0"/>
        <pt x="570" y="2" on="0"/>
        <pt x="540" y="2" on="0"/>
        <pt x="528" y="2" on="1"/>
        <pt x="516" y="2" on="0"/>
        <pt x="486" y="2" on="0"/>
        <pt x="455" y="2" on="0"/>
        <pt x="426" y="1" on="0"/>
        <pt x="415" y="0" on="1"/>
        <pt x="415" y="26" on="1"/>
        <pt x="441" y="26" on="0"/>
        <pt x="472" y="27" on="0"/>
        <pt x="489" y="36" on="0"/>
        <pt x="495" y="54" on="0"/>
        <pt x="495" y="71" on="1"/>
        <pt x="495" y="655" on="1"/>
        <pt x="197" y="655" on="1"/>
        <pt x="197" y="71" on="1"/>
        <pt x="197" y="54" on="0"/>
        <pt x="203" y="36" on="0"/>
        <pt x="220" y="27" on="0"/>
        <pt x="251" y="26" on="0"/>
        <pt x="277" y="26" on="1"/>
        <pt x="277" y="0" on="1"/>
        <pt x="266" y="1" on="0"/>
        <pt x="237" y="2" on="0"/>
        <pt x="206" y="2" on="0"/>
        <pt x="176" y="2" on="0"/>
        <pt x="164" y="2" on="1"/>
        <pt x="152" y="2" on="0"/>
        <pt x="122" y="2" on="0"/>
        <pt x="91" y="2" on="0"/>
        <pt x="62" y="1" on="0"/>
        <pt x="51" y="0" on="1"/>
        <pt x="51" y="26" on="1"/>
        <pt x="77" y="26" on="0"/>
        <pt x="108" y="27" on="0"/>
        <pt x="125" y="36" on="0"/>
        <pt x="131" y="54" on="0"/>
        <pt x="131" y="71" on="1"/>
        <pt x="131" y="610" on="1"/>
        <pt x="131" y="627" on="0"/>
        <pt x="125" y="645" on="0"/>
        <pt x="108" y="654" on="0"/>
        <pt x="77" y="655" on="0"/>
        <pt x="51" y="655" on="1"/>
        <pt x="51" y="681" on="1"/>
        <pt x="641" y="681" on="1"/>
        <pt x="641" y="655" on="1"/>
        <pt x="615" y="655" on="0"/>
        <pt x="584" y="654" on="0"/>
        <pt x="567" y="645" on="0"/>
        <pt x="561" y="627" on="0"/>
        <pt x="561" y="610" on="1"/>
      </contour>
    </TTGlyph>
    <TTGlyph name="Psi" xMin="47" yMin="0" xMax="673" yMax="683">
      <contour>
        <pt x="390" y="147" on="1"/>
        <pt x="434" y="156" on="0"/>
        <pt x="491" y="208" on="0"/>
        <pt x="524" y="279" on="0"/>
        <pt x="537" y="361" on="0"/>
        <pt x="537" y="401" on="1"/>
        <pt x="538" y="479" on="0"/>
        <pt x="575" y="556" on="0"/>
        <pt x="625" y="556" on="1"/>
        <pt x="651" y="556" on="1"/>
        <pt x="664" y="556" on="0"/>
        <pt x="673" y="554" on="0"/>
        <pt x="673" y="548" on="1"/>
        <pt x="673" y="543" on="0"/>
        <pt x="669" y="542" on="0"/>
        <pt x="661" y="540" on="1"/>
        <pt x="642" y="536" on="0"/>
        <pt x="618" y="510" on="0"/>
        <pt x="605" y="476" on="0"/>
        <pt x="600" y="436" on="0"/>
        <pt x="600" y="419" on="1"/>
        <pt x="600" y="405" on="0"/>
        <pt x="598" y="354" on="0"/>
        <pt x="586" y="293" on="0"/>
        <pt x="560" y="229" on="0"/>
        <pt x="514" y="175" on="0"/>
        <pt x="442" y="135" on="0"/>
        <pt x="390" y="130" on="1"/>
        <pt x="390" y="72" on="1"/>
        <pt x="390" y="59" on="0"/>
        <pt x="393" y="41" on="0"/>
        <pt x="408" y="30" on="0"/>
        <pt x="440" y="26" on="0"/>
        <pt x="468" y="26" on="1"/>
        <pt x="490" y="26" on="1"/>
        <pt x="490" y="0" on="1"/>
        <pt x="459" y="2" on="0"/>
        <pt x="391" y="2" on="0"/>
        <pt x="359" y="2" on="1"/>
        <pt x="327" y="2" on="0"/>
        <pt x="258" y="2" on="0"/>
        <pt x="227" y="0" on="1"/>
        <pt x="227" y="26" on="1"/>
        <pt x="249" y="26" on="1"/>
        <pt x="278" y="26" on="0"/>
        <pt x="309" y="30" on="0"/>
        <pt x="324" y="41" on="0"/>
        <pt x="327" y="59" on="0"/>
        <pt x="327" y="72" on="1"/>
        <pt x="327" y="130" on="1"/>
        <pt x="262" y="138" on="0"/>
        <pt x="181" y="196" on="0"/>
        <pt x="136" y="275" on="0"/>
        <pt x="119" y="361" on="0"/>
        <pt x="119" y="396" on="1"/>
        <pt x="119" y="446" on="0"/>
        <pt x="105" y="503" on="0"/>
        <pt x="86" y="531" on="0"/>
        <pt x="63" y="539" on="0"/>
        <pt x="52" y="541" on="1"/>
        <pt x="48" y="541" on="0"/>
        <pt x="47" y="547" on="0"/>
        <pt x="47" y="548" on="1"/>
        <pt x="47" y="554" on="0"/>
        <pt x="56" y="556" on="0"/>
        <pt x="68" y="556" on="1"/>
        <pt x="94" y="556" on="1"/>
        <pt x="141" y="556" on="0"/>
        <pt x="181" y="484" on="0"/>
        <pt x="182" y="412" on="1"/>
        <pt x="182" y="399" on="0"/>
        <pt x="184" y="354" on="0"/>
        <pt x="192" y="300" on="0"/>
        <pt x="210" y="242" on="0"/>
        <pt x="242" y="192" on="0"/>
        <pt x="291" y="154" on="0"/>
        <pt x="327" y="147" on="1"/>
        <pt x="327" y="611" on="1"/>
        <pt x="327" y="625" on="0"/>
        <pt x="324" y="642" on="0"/>
        <pt x="309" y="653" on="0"/>
        <pt x="278" y="657" on="0"/>
        <pt x="249" y="657" on="1"/>
        <pt x="227" y="657" on="1"/>
        <pt x="227" y="683" on="1"/>
        <pt x="258" y="681" on="0"/>
        <pt x="327" y="681" on="0"/>
        <pt x="359" y="681" on="1"/>
        <pt x="391" y="681" on="0"/>
        <pt x="459" y="681" on="0"/>
        <pt x="490" y="683" on="1"/>
        <pt x="490" y="657" on="1"/>
        <pt x="468" y="657" on="1"/>
        <pt x="440" y="657" on="0"/>
        <pt x="408" y="653" on="0"/>
        <pt x="393" y="642" on="0"/>
        <pt x="390" y="625" on="0"/>
        <pt x="390" y="611" on="1"/>
      </contour>
    </TTGlyph>
    <TTGlyph name="Q" xMin="46" yMin="-195" xMax="678" yMax="699">
      <contour>
        <pt x="473" y="9" on="1"/>
        <pt x="480" y="-19" on="0"/>
        <pt x="496" y="-66" on="0"/>
        <pt x="519" y="-100" on="0"/>
        <pt x="550" y="-119" on="0"/>
        <pt x="572" y="-119" on="1"/>
        <pt x="584" y="-119" on="0"/>
        <pt x="614" y="-110" on="0"/>
        <pt x="642" y="-84" on="0"/>
        <pt x="662" y="-39" on="0"/>
        <pt x="665" y="-3" on="1"/>
        <pt x="665" y="-1" on="0"/>
        <pt x="667" y="6" on="0"/>
        <pt x="671" y="6" on="1"/>
        <pt x="676" y="6" on="0"/>
        <pt x="678" y="-3" on="0"/>
        <pt x="678" y="-11" on="1"/>
        <pt x="678" y="-18" on="0"/>
        <pt x="676" y="-51" on="0"/>
        <pt x="669" y="-92" on="0"/>
        <pt x="655" y="-135" on="0"/>
        <pt x="631" y="-172" on="0"/>
        <pt x="594" y="-195" on="0"/>
        <pt x="567" y="-195" on="1"/>
        <pt x="535" y="-195" on="0"/>
        <pt x="496" y="-168" on="0"/>
        <pt x="472" y="-118" on="0"/>
        <pt x="459" y="-46" on="0"/>
        <pt x="453" y="0" on="1"/>
        <pt x="424" y="-10" on="0"/>
        <pt x="377" y="-16" on="0"/>
        <pt x="360" y="-16" on="1"/>
        <pt x="296" y="-16" on="0"/>
        <pt x="182" y="39" on="0"/>
        <pt x="96" y="135" on="0"/>
        <pt x="46" y="265" on="0"/>
        <pt x="46" y="340" on="1"/>
        <pt x="46" y="416" on="0"/>
        <pt x="96" y="547" on="0"/>
        <pt x="182" y="644" on="0"/>
        <pt x="296" y="699" on="0"/>
        <pt x="360" y="699" on="1"/>
        <pt x="422" y="699" on="0"/>
        <pt x="536" y="644" on="0"/>
        <pt x="622" y="548" on="0"/>
        <pt x="673" y="417" on="0"/>
        <pt x="673" y="340" on="1"/>
        <pt x="673" y="284" on="0"/>
        <pt x="644" y="181" on="0"/>
        <pt x="591" y="94" on="0"/>
        <pt x="518" y="28" on="0"/>
      </contour>
      <contour>
        <pt x="306" y="10" on="1"/>
        <pt x="298" y="20" on="0"/>
        <pt x="286" y="48" on="0"/>
        <pt x="286" y="65" on="1"/>
        <pt x="286" y="79" on="0"/>
        <pt x="296" y="108" on="0"/>
        <pt x="315" y="131" on="0"/>
        <pt x="343" y="145" on="0"/>
        <pt x="361" y="145" on="1"/>
        <pt x="385" y="145" on="0"/>
        <pt x="420" y="125" on="0"/>
        <pt x="444" y="93" on="0"/>
        <pt x="459" y="53" on="0"/>
        <pt x="465" y="34" on="1"/>
        <pt x="490" y="50" on="0"/>
        <pt x="538" y="102" on="0"/>
        <pt x="576" y="177" on="0"/>
        <pt x="599" y="277" on="0"/>
        <pt x="599" y="340" on="1"/>
        <pt x="599" y="428" on="0"/>
        <pt x="556" y="556" on="0"/>
        <pt x="487" y="640" on="0"/>
        <pt x="401" y="681" on="0"/>
        <pt x="359" y="681" on="1"/>
        <pt x="319" y="681" on="0"/>
        <pt x="234" y="641" on="0"/>
        <pt x="164" y="558" on="0"/>
        <pt x="120" y="429" on="0"/>
        <pt x="120" y="340" on="1"/>
        <pt x="120" y="270" on="0"/>
        <pt x="149" y="159" on="0"/>
        <pt x="199" y="76" on="0"/>
        <pt x="267" y="22" on="0"/>
      </contour>
      <contour>
        <pt x="449" y="25" on="1"/>
        <pt x="446" y="43" on="0"/>
        <pt x="436" y="80" on="0"/>
        <pt x="416" y="110" on="0"/>
        <pt x="385" y="129" on="0"/>
        <pt x="361" y="129" on="1"/>
        <pt x="332" y="129" on="0"/>
        <pt x="302" y="88" on="0"/>
        <pt x="302" y="65" on="1"/>
        <pt x="302" y="57" on="0"/>
        <pt x="307" y="35" on="0"/>
        <pt x="321" y="16" on="0"/>
        <pt x="343" y="2" on="0"/>
        <pt x="360" y="2" on="1"/>
        <pt x="373" y="2" on="0"/>
        <pt x="419" y="9" on="0"/>
      </contour>
    </TTGlyph>
    <TTGlyph name="R" xMin="52" yMin="-16" xMax="682" yMax="683">
      <contour>
        <pt x="392" y="341" on="1"/>
        <pt x="437" y="328" on="0"/>
        <pt x="488" y="289" on="0"/>
        <pt x="514" y="245" on="0"/>
        <pt x="523" y="201" on="0"/>
        <pt x="525" y="182" on="1"/>
        <pt x="527" y="165" on="0"/>
        <pt x="530" y="140" on="0"/>
        <pt x="532" y="124" on="1"/>
        <pt x="534" y="101" on="0"/>
        <pt x="540" y="57" on="0"/>
        <pt x="554" y="22" on="0"/>
        <pt x="578" y="0" on="0"/>
        <pt x="599" y="0" on="1"/>
        <pt x="622" y="0" on="0"/>
        <pt x="660" y="38" on="0"/>
        <pt x="664" y="87" on="1"/>
        <pt x="664" y="90" on="0"/>
        <pt x="667" y="97" on="0"/>
        <pt x="673" y="97" on="1"/>
        <pt x="680" y="97" on="0"/>
        <pt x="682" y="89" on="0"/>
        <pt x="682" y="84" on="1"/>
        <pt x="682" y="78" on="0"/>
        <pt x="676" y="45" on="0"/>
        <pt x="658" y="10" on="0"/>
        <pt x="625" y="-16" on="0"/>
        <pt x="597" y="-16" on="1"/>
        <pt x="589" y="-16" on="0"/>
        <pt x="563" y="-13" on="0"/>
        <pt x="532" y="-4" on="0"/>
        <pt x="500" y="14" on="0"/>
        <pt x="486" y="29" on="1"/>
        <pt x="475" y="42" on="0"/>
        <pt x="463" y="68" on="0"/>
        <pt x="457" y="100" on="0"/>
        <pt x="456" y="139" on="0"/>
        <pt x="456" y="164" on="1"/>
        <pt x="456" y="190" on="0"/>
        <pt x="455" y="227" on="0"/>
        <pt x="447" y="257" on="0"/>
        <pt x="431" y="283" on="0"/>
        <pt x="416" y="298" on="1"/>
        <pt x="405" y="308" on="0"/>
        <pt x="356" y="334" on="0"/>
        <pt x="313" y="334" on="1"/>
        <pt x="196" y="334" on="1"/>
        <pt x="196" y="71" on="1"/>
        <pt x="196" y="54" on="0"/>
        <pt x="202" y="36" on="0"/>
        <pt x="219" y="27" on="0"/>
        <pt x="250" y="26" on="0"/>
        <pt x="276" y="26" on="1"/>
        <pt x="276" y="0" on="1"/>
        <pt x="265" y="1" on="0"/>
        <pt x="236" y="2" on="0"/>
        <pt x="205" y="2" on="0"/>
        <pt x="176" y="2" on="0"/>
        <pt x="164" y="2" on="1"/>
        <pt x="152" y="2" on="0"/>
        <pt x="123" y="2" on="0"/>
        <pt x="92" y="2" on="0"/>
        <pt x="63" y="1" on="0"/>
        <pt x="52" y="0" on="1"/>
        <pt x="52" y="26" on="1"/>
        <pt x="78" y="26" on="0"/>
        <pt x="109" y="27" on="0"/>
        <pt x="126" y="36" on="0"/>
        <pt x="132" y="54" on="0"/>
        <pt x="132" y="71" on="1"/>
        <pt x="132" y="612" on="1"/>
        <pt x="132" y="629" on="0"/>
        <pt x="126" y="647" on="0"/>
        <pt x="109" y="656" on="0"/>
        <pt x="78" y="657" on="0"/>
        <pt x="52" y="657" on="1"/>
        <pt x="52" y="683" on="1"/>
        <pt x="321" y="683" on="1"/>
        <pt x="374" y="683" on="0"/>
        <pt x="464" y="654" on="0"/>
        <pt x="530" y="604" on="0"/>
        <pt x="567" y="539" on="0"/>
        <pt x="567" y="504" on="1"/>
        <pt x="567" y="474" on="0"/>
        <pt x="539" y="421" on="0"/>
        <pt x="491" y="378" on="0"/>
        <pt x="428" y="348" on="0"/>
      </contour>
      <contour>
        <pt x="310" y="350" on="1"/>
        <pt x="338" y="350" on="0"/>
        <pt x="402" y="362" on="0"/>
        <pt x="456" y="395" on="0"/>
        <pt x="491" y="456" on="0"/>
        <pt x="491" y="504" on="1"/>
        <pt x="491" y="551" on="0"/>
        <pt x="458" y="610" on="0"/>
        <pt x="406" y="644" on="0"/>
        <pt x="342" y="657" on="0"/>
        <pt x="311" y="657" on="1"/>
        <pt x="238" y="657" on="1"/>
        <pt x="223" y="657" on="0"/>
        <pt x="206" y="654" on="0"/>
        <pt x="198" y="646" on="0"/>
        <pt x="196" y="631" on="0"/>
        <pt x="196" y="618" on="1"/>
        <pt x="196" y="350" on="1"/>
      </contour>
    </TTGlyph>
    <TTGlyph name="S" xMin="46" yMin="-16" xMax="464" yMax="699">
      <contour>
        <pt x="438" y="476" on="1"/>
        <pt x="438" y="463" on="0"/>
        <pt x="436" y="456" on="0"/>
        <pt x="429" y="456" on="1"/>
        <pt x="424" y="456" on="0"/>
        <pt x="420" y="461" on="0"/>
        <pt x="418" y="475" on="1"/>
        <pt x="407" y="569" on="0"/>
        <pt x="311" y="675" on="0"/>
        <pt x="231" y="675" on="1"/>
        <pt x="199" y="675" on="0"/>
        <pt x="148" y="651" on="0"/>
        <pt x="113" y="612" on="0"/>
        <pt x="94" y="563" on="0"/>
        <pt x="94" y="539" on="1"/>
        <pt x="94" y="515" on="0"/>
        <pt x="111" y="467" on="0"/>
        <pt x="132" y="444" on="1"/>
        <pt x="141" y="434" on="0"/>
        <pt x="160" y="420" on="0"/>
        <pt x="184" y="410" on="0"/>
        <pt x="214" y="401" on="0"/>
        <pt x="234" y="396" on="1"/>
        <pt x="255" y="391" on="0"/>
        <pt x="279" y="385" on="0"/>
        <pt x="291" y="382" on="0"/>
        <pt x="296" y="380" on="0"/>
        <pt x="299" y="379" on="1"/>
        <pt x="317" y="375" on="0"/>
        <pt x="352" y="364" on="0"/>
        <pt x="386" y="345" on="0"/>
        <pt x="418" y="315" on="0"/>
        <pt x="434" y="291" on="1"/>
        <pt x="442" y="277" on="0"/>
        <pt x="464" y="220" on="0"/>
        <pt x="464" y="181" on="1"/>
        <pt x="464" y="141" on="0"/>
        <pt x="437" y="70" on="0"/>
        <pt x="387" y="16" on="0"/>
        <pt x="319" y="-16" on="0"/>
        <pt x="278" y="-16" on="1"/>
        <pt x="260" y="-16" on="0"/>
        <pt x="213" y="-10" on="0"/>
        <pt x="163" y="8" on="0"/>
        <pt x="115" y="39" on="0"/>
        <pt x="96" y="64" on="1"/>
        <pt x="82" y="36" on="0"/>
        <pt x="77" y="23" on="0"/>
        <pt x="76" y="21" on="1"/>
        <pt x="65" y="-2" on="0"/>
        <pt x="58" y="-15" on="0"/>
        <pt x="53" y="-15" on="1"/>
        <pt x="48" y="-15" on="0"/>
        <pt x="46" y="-10" on="0"/>
        <pt x="46" y="4" on="1"/>
        <pt x="46" y="206" on="1"/>
        <pt x="46" y="221" on="0"/>
        <pt x="49" y="227" on="0"/>
        <pt x="55" y="227" on="1"/>
        <pt x="60" y="227" on="0"/>
        <pt x="63" y="222" on="0"/>
        <pt x="64" y="210" on="1"/>
        <pt x="67" y="158" on="0"/>
        <pt x="104" y="82" on="0"/>
        <pt x="163" y="33" on="0"/>
        <pt x="238" y="10" on="0"/>
        <pt x="278" y="10" on="1"/>
        <pt x="311" y="10" on="0"/>
        <pt x="362" y="36" on="0"/>
        <pt x="397" y="79" on="0"/>
        <pt x="416" y="132" on="0"/>
        <pt x="416" y="159" on="1"/>
        <pt x="416" y="201" on="0"/>
        <pt x="372" y="281" on="0"/>
        <pt x="329" y="299" on="1"/>
        <pt x="325" y="301" on="0"/>
        <pt x="305" y="306" on="0"/>
        <pt x="278" y="314" on="0"/>
        <pt x="250" y="321" on="0"/>
        <pt x="239" y="324" on="1"/>
        <pt x="209" y="332" on="0"/>
        <pt x="164" y="344" on="0"/>
        <pt x="129" y="360" on="0"/>
        <pt x="101" y="382" on="0"/>
        <pt x="87" y="399" on="1"/>
        <pt x="61" y="431" on="0"/>
        <pt x="46" y="493" on="0"/>
        <pt x="46" y="516" on="1"/>
        <pt x="46" y="554" on="0"/>
        <pt x="75" y="621" on="0"/>
        <pt x="125" y="671" on="0"/>
        <pt x="192" y="699" on="0"/>
        <pt x="230" y="699" on="1"/>
        <pt x="278" y="699" on="0"/>
        <pt x="360" y="661" on="0"/>
        <pt x="389" y="619" on="1"/>
        <pt x="419" y="685" on="1"/>
        <pt x="422" y="692" on="0"/>
        <pt x="426" y="698" on="0"/>
        <pt x="431" y="698" on="1"/>
        <pt x="436" y="698" on="0"/>
        <pt x="438" y="693" on="0"/>
        <pt x="438" y="679" on="1"/>
      </contour>
    </TTGlyph>
    <TTGlyph name="Sigma" xMin="46" yMin="0" xMax="621" yMax="683">
      <contour>
        <pt x="92" y="34" on="1"/>
        <pt x="368" y="34" on="1"/>
        <pt x="429" y="34" on="0"/>
        <pt x="513" y="49" on="0"/>
        <pt x="568" y="92" on="0"/>
        <pt x="597" y="168" on="0"/>
        <pt x="603" y="229" on="1"/>
        <pt x="621" y="229" on="1"/>
        <pt x="597" y="0" on="1"/>
        <pt x="68" y="0" on="1"/>
        <pt x="57" y="0" on="0"/>
        <pt x="47" y="2" on="0"/>
        <pt x="47" y="7" on="1"/>
        <pt x="47" y="9" on="0"/>
        <pt x="49" y="12" on="0"/>
        <pt x="54" y="19" on="1"/>
        <pt x="277" y="305" on="1"/>
        <pt x="46" y="661" on="1"/>
        <pt x="46" y="677" on="0"/>
        <pt x="52" y="683" on="0"/>
        <pt x="68" y="683" on="1"/>
        <pt x="597" y="683" on="1"/>
        <pt x="621" y="462" on="1"/>
        <pt x="603" y="462" on="1"/>
        <pt x="597" y="522" on="0"/>
        <pt x="569" y="597" on="0"/>
        <pt x="516" y="641" on="0"/>
        <pt x="432" y="657" on="0"/>
        <pt x="370" y="657" on="1"/>
        <pt x="128" y="657" on="1"/>
        <pt x="325" y="354" on="1"/>
        <pt x="326" y="352" on="0"/>
        <pt x="330" y="345" on="0"/>
        <pt x="330" y="342" on="1"/>
        <pt x="330" y="340" on="0"/>
        <pt x="328" y="335" on="0"/>
        <pt x="323" y="329" on="1"/>
      </contour>
    </TTGlyph>
    <TTGlyph name="T" xMin="28" yMin="0" xMax="639" yMax="680">
      <contour>
        <pt x="639" y="459" on="1"/>
        <pt x="621" y="459" on="1"/>
        <pt x="616" y="521" on="0"/>
        <pt x="601" y="598" on="0"/>
        <pt x="565" y="640" on="0"/>
        <pt x="497" y="654" on="0"/>
        <pt x="440" y="654" on="1"/>
        <pt x="426" y="654" on="0"/>
        <pt x="391" y="654" on="0"/>
        <pt x="385" y="653" on="1"/>
        <pt x="371" y="650" on="0"/>
        <pt x="367" y="632" on="0"/>
        <pt x="367" y="615" on="1"/>
        <pt x="367" y="73" on="1"/>
        <pt x="367" y="60" on="0"/>
        <pt x="371" y="41" on="0"/>
        <pt x="387" y="31" on="0"/>
        <pt x="422" y="26" on="0"/>
        <pt x="453" y="26" on="1"/>
        <pt x="481" y="26" on="1"/>
        <pt x="481" y="0" on="1"/>
        <pt x="445" y="1" on="0"/>
        <pt x="371" y="2" on="0"/>
        <pt x="334" y="2" on="1"/>
        <pt x="297" y="2" on="0"/>
        <pt x="223" y="1" on="0"/>
        <pt x="187" y="0" on="1"/>
        <pt x="187" y="26" on="1"/>
        <pt x="215" y="26" on="1"/>
        <pt x="246" y="26" on="0"/>
        <pt x="281" y="31" on="0"/>
        <pt x="297" y="41" on="0"/>
        <pt x="301" y="60" on="0"/>
        <pt x="301" y="73" on="1"/>
        <pt x="301" y="615" on="1"/>
        <pt x="301" y="632" on="0"/>
        <pt x="296" y="651" on="0"/>
        <pt x="282" y="653" on="1"/>
        <pt x="276" y="654" on="0"/>
        <pt x="241" y="654" on="0"/>
        <pt x="227" y="654" on="1"/>
        <pt x="169" y="654" on="0"/>
        <pt x="102" y="640" on="0"/>
        <pt x="65" y="598" on="0"/>
        <pt x="51" y="521" on="0"/>
        <pt x="46" y="459" on="1"/>
        <pt x="28" y="459" on="1"/>
        <pt x="45" y="680" on="1"/>
        <pt x="622" y="680" on="1"/>
      </contour>
    </TTGlyph>
    <TTGlyph name="Theta" xMin="46" yMin="-16" xMax="673" yMax="699">
      <contour>
        <pt x="673" y="340" on="1"/>
        <pt x="673" y="265" on="0"/>
        <pt x="623" y="135" on="0"/>
        <pt x="537" y="39" on="0"/>
        <pt x="423" y="-16" on="0"/>
        <pt x="359" y="-16" on="1"/>
        <pt x="296" y="-16" on="0"/>
        <pt x="183" y="38" on="0"/>
        <pt x="97" y="134" on="0"/>
        <pt x="46" y="264" on="0"/>
        <pt x="46" y="340" on="1"/>
        <pt x="46" y="416" on="0"/>
        <pt x="96" y="547" on="0"/>
        <pt x="182" y="644" on="0"/>
        <pt x="296" y="699" on="0"/>
        <pt x="360" y="699" on="1"/>
        <pt x="422" y="699" on="0"/>
        <pt x="536" y="644" on="0"/>
        <pt x="622" y="548" on="0"/>
        <pt x="673" y="417" on="0"/>
      </contour>
      <contour>
        <pt x="360" y="1" on="1"/>
        <pt x="401" y="1" on="0"/>
        <pt x="487" y="41" on="0"/>
        <pt x="556" y="124" on="0"/>
        <pt x="600" y="252" on="0"/>
        <pt x="600" y="340" on="1"/>
        <pt x="600" y="428" on="0"/>
        <pt x="556" y="557" on="0"/>
        <pt x="487" y="642" on="0"/>
        <pt x="401" y="683" on="0"/>
        <pt x="359" y="683" on="1"/>
        <pt x="318" y="683" on="0"/>
        <pt x="233" y="643" on="0"/>
        <pt x="163" y="559" on="0"/>
        <pt x="119" y="429" on="0"/>
        <pt x="119" y="340" on="1"/>
        <pt x="119" y="253" on="0"/>
        <pt x="162" y="126" on="0"/>
        <pt x="231" y="42" on="0"/>
        <pt x="317" y="1" on="0"/>
      </contour>
      <contour>
        <pt x="547" y="280" on="1"/>
        <pt x="529" y="280" on="1"/>
        <pt x="529" y="314" on="1"/>
        <pt x="190" y="314" on="1"/>
        <pt x="190" y="280" on="1"/>
        <pt x="172" y="280" on="1"/>
        <pt x="172" y="404" on="1"/>
        <pt x="190" y="404" on="1"/>
        <pt x="190" y="370" on="1"/>
        <pt x="529" y="370" on="1"/>
        <pt x="529" y="404" on="1"/>
        <pt x="547" y="404" on="1"/>
      </contour>
    </TTGlyph>
    <TTGlyph name="U" xMin="51" yMin="-16" xMax="641" yMax="683">
      <contour>
        <pt x="540" y="585" on="1"/>
        <pt x="540" y="594" on="0"/>
        <pt x="538" y="619" on="0"/>
        <pt x="523" y="642" on="0"/>
        <pt x="490" y="657" on="0"/>
        <pt x="460" y="657" on="1"/>
        <pt x="460" y="683" on="1"/>
        <pt x="469" y="682" on="0"/>
        <pt x="492" y="681" on="0"/>
        <pt x="517" y="681" on="0"/>
        <pt x="542" y="681" on="0"/>
        <pt x="551" y="681" on="1"/>
        <pt x="570" y="681" on="0"/>
        <pt x="624" y="682" on="0"/>
        <pt x="641" y="683" on="1"/>
        <pt x="641" y="657" on="1"/>
        <pt x="630" y="657" on="0"/>
        <pt x="602" y="653" on="0"/>
        <pt x="578" y="641" on="0"/>
        <pt x="561" y="616" on="0"/>
        <pt x="561" y="595" on="1"/>
        <pt x="561" y="215" on="1"/>
        <pt x="561" y="178" on="0"/>
        <pt x="534" y="97" on="0"/>
        <pt x="481" y="29" on="0"/>
        <pt x="405" y="-16" on="0"/>
        <pt x="356" y="-16" on="1"/>
        <pt x="313" y="-16" on="0"/>
        <pt x="231" y="20" on="0"/>
        <pt x="169" y="85" on="0"/>
        <pt x="131" y="175" on="0"/>
        <pt x="131" y="229" on="1"/>
        <pt x="131" y="612" on="1"/>
        <pt x="131" y="629" on="0"/>
        <pt x="125" y="647" on="0"/>
        <pt x="108" y="656" on="0"/>
        <pt x="77" y="657" on="0"/>
        <pt x="51" y="657" on="1"/>
        <pt x="51" y="683" on="1"/>
        <pt x="62" y="682" on="0"/>
        <pt x="91" y="681" on="0"/>
        <pt x="122" y="681" on="0"/>
        <pt x="152" y="681" on="0"/>
        <pt x="164" y="681" on="1"/>
        <pt x="176" y="681" on="0"/>
        <pt x="206" y="681" on="0"/>
        <pt x="237" y="681" on="0"/>
        <pt x="266" y="682" on="0"/>
        <pt x="277" y="683" on="1"/>
        <pt x="277" y="657" on="1"/>
        <pt x="251" y="657" on="0"/>
        <pt x="220" y="656" on="0"/>
        <pt x="203" y="647" on="0"/>
        <pt x="197" y="629" on="0"/>
        <pt x="197" y="612" on="1"/>
        <pt x="197" y="224" on="1"/>
        <pt x="197" y="211" on="0"/>
        <pt x="199" y="176" on="0"/>
        <pt x="207" y="137" on="0"/>
        <pt x="221" y="97" on="0"/>
        <pt x="233" y="79" on="1"/>
        <pt x="254" y="47" on="0"/>
        <pt x="320" y="10" on="0"/>
        <pt x="358" y="10" on="1"/>
        <pt x="394" y="10" on="0"/>
        <pt x="459" y="41" on="0"/>
        <pt x="510" y="98" on="0"/>
        <pt x="540" y="179" on="0"/>
        <pt x="540" y="229" on="1"/>
      </contour>
    </TTGlyph>
    <TTGlyph name="Upsilon" xMin="46" yMin="0" xMax="673" yMax="699">
      <contour>
        <pt x="393" y="72" on="1"/>
        <pt x="393" y="59" on="0"/>
        <pt x="396" y="41" on="0"/>
        <pt x="411" y="30" on="0"/>
        <pt x="443" y="26" on="0"/>
        <pt x="471" y="26" on="1"/>
        <pt x="493" y="26" on="1"/>
        <pt x="493" y="0" on="1"/>
        <pt x="461" y="2" on="0"/>
        <pt x="392" y="2" on="0"/>
        <pt x="360" y="2" on="1"/>
        <pt x="328" y="2" on="0"/>
        <pt x="259" y="2" on="0"/>
        <pt x="227" y="0" on="1"/>
        <pt x="227" y="26" on="1"/>
        <pt x="249" y="26" on="1"/>
        <pt x="278" y="26" on="0"/>
        <pt x="309" y="30" on="0"/>
        <pt x="324" y="41" on="0"/>
        <pt x="327" y="59" on="0"/>
        <pt x="327" y="72" on="1"/>
        <pt x="327" y="353" on="1"/>
        <pt x="327" y="368" on="0"/>
        <pt x="324" y="422" on="0"/>
        <pt x="314" y="487" on="0"/>
        <pt x="293" y="553" on="0"/>
        <pt x="257" y="608" on="0"/>
        <pt x="205" y="642" on="0"/>
        <pt x="167" y="642" on="1"/>
        <pt x="155" y="642" on="0"/>
        <pt x="123" y="634" on="0"/>
        <pt x="93" y="614" on="0"/>
        <pt x="70" y="579" on="0"/>
        <pt x="67" y="551" on="1"/>
        <pt x="66" y="545" on="0"/>
        <pt x="64" y="540" on="0"/>
        <pt x="57" y="540" on="1"/>
        <pt x="49" y="540" on="0"/>
        <pt x="46" y="545" on="0"/>
        <pt x="46" y="553" on="1"/>
        <pt x="46" y="573" on="0"/>
        <pt x="59" y="623" on="0"/>
        <pt x="89" y="668" on="0"/>
        <pt x="135" y="699" on="0"/>
        <pt x="168" y="699" on="1"/>
        <pt x="206" y="699" on="0"/>
        <pt x="263" y="670" on="0"/>
        <pt x="304" y="624" on="0"/>
        <pt x="332" y="568" on="0"/>
        <pt x="349" y="513" on="0"/>
        <pt x="358" y="467" on="0"/>
        <pt x="360" y="454" on="1"/>
        <pt x="361" y="454" on="1"/>
        <pt x="363" y="467" on="0"/>
        <pt x="371" y="513" on="0"/>
        <pt x="388" y="567" on="0"/>
        <pt x="415" y="624" on="0"/>
        <pt x="456" y="670" on="0"/>
        <pt x="513" y="699" on="0"/>
        <pt x="551" y="699" on="1"/>
        <pt x="584" y="699" on="0"/>
        <pt x="630" y="668" on="0"/>
        <pt x="659" y="623" on="0"/>
        <pt x="673" y="573" on="0"/>
        <pt x="673" y="553" on="1"/>
        <pt x="673" y="545" on="0"/>
        <pt x="670" y="540" on="0"/>
        <pt x="662" y="540" on="1"/>
        <pt x="655" y="540" on="0"/>
        <pt x="653" y="545" on="0"/>
        <pt x="652" y="551" on="1"/>
        <pt x="649" y="578" on="0"/>
        <pt x="626" y="614" on="0"/>
        <pt x="596" y="634" on="0"/>
        <pt x="564" y="642" on="0"/>
        <pt x="552" y="642" on="1"/>
        <pt x="518" y="642" on="0"/>
        <pt x="468" y="613" on="0"/>
        <pt x="433" y="566" on="0"/>
        <pt x="410" y="505" on="0"/>
        <pt x="398" y="441" on="0"/>
        <pt x="393" y="379" on="0"/>
        <pt x="393" y="353" on="1"/>
      </contour>
    </TTGlyph>
    <TTGlyph name="V" xMin="10" yMin="-16" xMax="682" yMax="683">
      <contour>
        <pt x="363" y="0" on="1"/>
        <pt x="359" y="-11" on="0"/>
        <pt x="354" y="-16" on="0"/>
        <pt x="346" y="-16" on="1"/>
        <pt x="338" y="-16" on="0"/>
        <pt x="333" y="-11" on="0"/>
        <pt x="329" y="0" on="1"/>
        <pt x="91" y="621" on="1"/>
        <pt x="87" y="633" on="0"/>
        <pt x="76" y="647" on="0"/>
        <pt x="59" y="655" on="0"/>
        <pt x="32" y="657" on="0"/>
        <pt x="10" y="657" on="1"/>
        <pt x="10" y="683" on="1"/>
        <pt x="19" y="682" on="0"/>
        <pt x="44" y="681" on="0"/>
        <pt x="71" y="681" on="0"/>
        <pt x="97" y="681" on="0"/>
        <pt x="107" y="681" on="1"/>
        <pt x="132" y="681" on="0"/>
        <pt x="195" y="681" on="0"/>
        <pt x="219" y="683" on="1"/>
        <pt x="219" y="657" on="1"/>
        <pt x="211" y="657" on="0"/>
        <pt x="190" y="656" on="0"/>
        <pt x="171" y="651" on="0"/>
        <pt x="158" y="640" on="0"/>
        <pt x="158" y="630" on="1"/>
        <pt x="158" y="625" on="0"/>
        <pt x="163" y="613" on="1"/>
        <pt x="369" y="74" on="1"/>
        <pt x="566" y="587" on="1"/>
        <pt x="568" y="593" on="0"/>
        <pt x="572" y="605" on="0"/>
        <pt x="572" y="613" on="1"/>
        <pt x="572" y="615" on="0"/>
        <pt x="570" y="629" on="0"/>
        <pt x="560" y="644" on="0"/>
        <pt x="539" y="656" on="0"/>
        <pt x="520" y="657" on="1"/>
        <pt x="520" y="683" on="1"/>
        <pt x="537" y="681" on="0"/>
        <pt x="590" y="681" on="0"/>
        <pt x="608" y="681" on="1"/>
        <pt x="627" y="681" on="0"/>
        <pt x="665" y="681" on="0"/>
        <pt x="682" y="683" on="1"/>
        <pt x="682" y="657" on="1"/>
        <pt x="657" y="657" on="0"/>
        <pt x="624" y="642" on="0"/>
        <pt x="604" y="622" on="0"/>
        <pt x="593" y="599" on="0"/>
        <pt x="590" y="591" on="1"/>
      </contour>
    </TTGlyph>
    <TTGlyph name="W" xMin="9" yMin="-16" xMax="945" yMax="683">
      <contour>
        <pt x="676" y="1" on="1"/>
        <pt x="672" y="-10" on="0"/>
        <pt x="669" y="-16" on="0"/>
        <pt x="662" y="-16" on="1"/>
        <pt x="656" y="-16" on="0"/>
        <pt x="650" y="-11" on="0"/>
        <pt x="647" y="0" on="1"/>
        <pt x="477" y="542" on="1"/>
        <pt x="307" y="0" on="1"/>
        <pt x="304" y="-11" on="0"/>
        <pt x="298" y="-16" on="0"/>
        <pt x="292" y="-16" on="1"/>
        <pt x="285" y="-16" on="0"/>
        <pt x="282" y="-10" on="0"/>
        <pt x="278" y="1" on="1"/>
        <pt x="83" y="619" on="1"/>
        <pt x="79" y="631" on="0"/>
        <pt x="72" y="646" on="0"/>
        <pt x="57" y="654" on="0"/>
        <pt x="32" y="657" on="0"/>
        <pt x="9" y="657" on="1"/>
        <pt x="9" y="683" on="1"/>
        <pt x="27" y="681" on="0"/>
        <pt x="83" y="681" on="0"/>
        <pt x="103" y="681" on="1"/>
        <pt x="115" y="681" on="0"/>
        <pt x="144" y="681" on="0"/>
        <pt x="174" y="681" on="0"/>
        <pt x="202" y="682" on="0"/>
        <pt x="213" y="683" on="1"/>
        <pt x="213" y="657" on="1"/>
        <pt x="206" y="657" on="0"/>
        <pt x="184" y="656" on="0"/>
        <pt x="163" y="651" on="0"/>
        <pt x="149" y="640" on="0"/>
        <pt x="149" y="629" on="1"/>
        <pt x="149" y="627" on="0"/>
        <pt x="150" y="622" on="0"/>
        <pt x="154" y="611" on="1"/>
        <pt x="317" y="92" on="1"/>
        <pt x="464" y="559" on="1"/>
        <pt x="465" y="561" on="0"/>
        <pt x="467" y="569" on="0"/>
        <pt x="467" y="572" on="1"/>
        <pt x="467" y="573" on="0"/>
        <pt x="462" y="591" on="0"/>
        <pt x="455" y="613" on="0"/>
        <pt x="449" y="633" on="0"/>
        <pt x="447" y="636" on="1"/>
        <pt x="443" y="643" on="0"/>
        <pt x="434" y="651" on="0"/>
        <pt x="419" y="656" on="0"/>
        <pt x="396" y="657" on="0"/>
        <pt x="379" y="657" on="1"/>
        <pt x="379" y="683" on="1"/>
        <pt x="388" y="682" on="0"/>
        <pt x="412" y="681" on="0"/>
        <pt x="438" y="681" on="0"/>
        <pt x="463" y="681" on="0"/>
        <pt x="472" y="681" on="1"/>
        <pt x="484" y="681" on="0"/>
        <pt x="513" y="681" on="0"/>
        <pt x="543" y="681" on="0"/>
        <pt x="571" y="682" on="0"/>
        <pt x="582" y="683" on="1"/>
        <pt x="582" y="657" on="1"/>
        <pt x="575" y="657" on="0"/>
        <pt x="553" y="656" on="0"/>
        <pt x="533" y="651" on="0"/>
        <pt x="519" y="640" on="0"/>
        <pt x="519" y="629" on="1"/>
        <pt x="519" y="624" on="0"/>
        <pt x="523" y="611" on="1"/>
        <pt x="686" y="91" on="1"/>
        <pt x="841" y="585" on="1"/>
        <pt x="846" y="599" on="0"/>
        <pt x="846" y="607" on="1"/>
        <pt x="846" y="625" on="0"/>
        <pt x="816" y="656" on="0"/>
        <pt x="782" y="657" on="1"/>
        <pt x="782" y="683" on="1"/>
        <pt x="800" y="681" on="0"/>
        <pt x="856" y="681" on="0"/>
        <pt x="875" y="681" on="1"/>
        <pt x="889" y="681" on="0"/>
        <pt x="932" y="682" on="0"/>
        <pt x="945" y="683" on="1"/>
        <pt x="945" y="657" on="1"/>
        <pt x="923" y="656" on="0"/>
        <pt x="895" y="644" on="0"/>
        <pt x="877" y="625" on="0"/>
        <pt x="866" y="603" on="0"/>
        <pt x="863" y="593" on="1"/>
      </contour>
    </TTGlyph>
    <TTGlyph name="X" xMin="13" yMin="0" xMax="679" yMax="683">
      <contour>
        <pt x="585" y="59" on="1"/>
        <pt x="593" y="49" on="0"/>
        <pt x="606" y="36" on="0"/>
        <pt x="625" y="28" on="0"/>
        <pt x="655" y="26" on="0"/>
        <pt x="679" y="26" on="1"/>
        <pt x="679" y="0" on="1"/>
        <pt x="670" y="1" on="0"/>
        <pt x="644" y="2" on="0"/>
        <pt x="616" y="2" on="0"/>
        <pt x="589" y="2" on="0"/>
        <pt x="579" y="2" on="1"/>
        <pt x="554" y="2" on="0"/>
        <pt x="489" y="2" on="0"/>
        <pt x="465" y="0" on="1"/>
        <pt x="465" y="26" on="1"/>
        <pt x="491" y="28" on="0"/>
        <pt x="509" y="47" on="0"/>
        <pt x="509" y="53" on="1"/>
        <pt x="509" y="55" on="0"/>
        <pt x="507" y="62" on="0"/>
        <pt x="501" y="70" on="1"/>
        <pt x="327" y="324" on="1"/>
        <pt x="167" y="92" on="1"/>
        <pt x="163" y="87" on="0"/>
        <pt x="157" y="75" on="0"/>
        <pt x="157" y="65" on="1"/>
        <pt x="157" y="53" on="0"/>
        <pt x="174" y="28" on="0"/>
        <pt x="197" y="26" on="1"/>
        <pt x="197" y="0" on="1"/>
        <pt x="188" y="1" on="0"/>
        <pt x="162" y="2" on="0"/>
        <pt x="135" y="2" on="0"/>
        <pt x="108" y="2" on="0"/>
        <pt x="98" y="2" on="1"/>
        <pt x="80" y="2" on="0"/>
        <pt x="30" y="2" on="0"/>
        <pt x="13" y="0" on="1"/>
        <pt x="13" y="26" on="1"/>
        <pt x="20" y="26" on="0"/>
        <pt x="50" y="28" on="0"/>
        <pt x="86" y="40" on="0"/>
        <pt x="124" y="66" on="0"/>
        <pt x="140" y="89" on="1"/>
        <pt x="314" y="342" on="1"/>
        <pt x="121" y="624" on="1"/>
        <pt x="113" y="636" on="0"/>
        <pt x="96" y="649" on="0"/>
        <pt x="75" y="655" on="0"/>
        <pt x="47" y="657" on="0"/>
        <pt x="26" y="657" on="1"/>
        <pt x="26" y="683" on="1"/>
        <pt x="35" y="682" on="0"/>
        <pt x="61" y="681" on="0"/>
        <pt x="89" y="681" on="0"/>
        <pt x="116" y="681" on="0"/>
        <pt x="126" y="681" on="1"/>
        <pt x="151" y="681" on="0"/>
        <pt x="216" y="681" on="0"/>
        <pt x="240" y="683" on="1"/>
        <pt x="240" y="657" on="1"/>
        <pt x="215" y="656" on="0"/>
        <pt x="196" y="637" on="0"/>
        <pt x="196" y="630" on="1"/>
        <pt x="196" y="628" on="0"/>
        <pt x="199" y="621" on="0"/>
        <pt x="204" y="613" on="1"/>
        <pt x="352" y="397" on="1"/>
        <pt x="484" y="588" on="1"/>
        <pt x="489" y="596" on="0"/>
        <pt x="496" y="609" on="0"/>
        <pt x="496" y="618" on="1"/>
        <pt x="496" y="630" on="0"/>
        <pt x="480" y="655" on="0"/>
        <pt x="456" y="657" on="1"/>
        <pt x="456" y="683" on="1"/>
        <pt x="475" y="681" on="0"/>
        <pt x="530" y="681" on="0"/>
        <pt x="555" y="681" on="1"/>
        <pt x="573" y="681" on="0"/>
        <pt x="623" y="681" on="0"/>
        <pt x="640" y="683" on="1"/>
        <pt x="640" y="657" on="1"/>
        <pt x="609" y="657" on="0"/>
        <pt x="566" y="642" on="0"/>
        <pt x="537" y="622" on="0"/>
        <pt x="519" y="600" on="0"/>
        <pt x="513" y="592" on="1"/>
        <pt x="365" y="379" on="1"/>
      </contour>
    </TTGlyph>
    <TTGlyph name="Xi" xMin="33" yMin="0" xMax="581" yMax="680">
      <contour>
        <pt x="570" y="661" on="1"/>
        <pt x="570" y="650" on="0"/>
        <pt x="572" y="619" on="0"/>
        <pt x="573" y="586" on="0"/>
        <pt x="575" y="554" on="0"/>
        <pt x="576" y="542" on="1"/>
        <pt x="558" y="542" on="1"/>
        <pt x="558" y="549" on="0"/>
        <pt x="556" y="570" on="0"/>
        <pt x="554" y="592" on="0"/>
        <pt x="551" y="612" on="0"/>
        <pt x="548" y="618" on="1"/>
        <pt x="546" y="622" on="0"/>
        <pt x="529" y="626" on="0"/>
        <pt x="506" y="628" on="0"/>
        <pt x="482" y="628" on="0"/>
        <pt x="473" y="628" on="1"/>
        <pt x="141" y="628" on="1"/>
        <pt x="137" y="628" on="0"/>
        <pt x="115" y="628" on="0"/>
        <pt x="91" y="626" on="0"/>
        <pt x="70" y="622" on="0"/>
        <pt x="68" y="619" on="1"/>
        <pt x="65" y="615" on="0"/>
        <pt x="60" y="594" on="0"/>
        <pt x="58" y="571" on="0"/>
        <pt x="56" y="549" on="0"/>
        <pt x="56" y="542" on="1"/>
        <pt x="38" y="542" on="1"/>
        <pt x="39" y="561" on="1"/>
        <pt x="39" y="572" on="0"/>
        <pt x="41" y="603" on="0"/>
        <pt x="42" y="636" on="0"/>
        <pt x="44" y="668" on="0"/>
        <pt x="45" y="680" on="1"/>
        <pt x="569" y="680" on="1"/>
      </contour>
      <contour>
        <pt x="33" y="149" on="1"/>
        <pt x="51" y="149" on="1"/>
        <pt x="53" y="119" on="0"/>
        <pt x="56" y="76" on="0"/>
        <pt x="61" y="65" on="1"/>
        <pt x="66" y="55" on="0"/>
        <pt x="113" y="52" on="0"/>
        <pt x="140" y="52" on="1"/>
        <pt x="474" y="52" on="1"/>
        <pt x="484" y="52" on="0"/>
        <pt x="509" y="52" on="0"/>
        <pt x="532" y="55" on="0"/>
        <pt x="550" y="60" on="0"/>
        <pt x="552" y="64" on="1"/>
        <pt x="557" y="75" on="0"/>
        <pt x="561" y="115" on="0"/>
        <pt x="563" y="149" on="1"/>
        <pt x="581" y="149" on="1"/>
        <pt x="574" y="0" on="1"/>
        <pt x="40" y="0" on="1"/>
      </contour>
      <contour>
        <pt x="489" y="288" on="1"/>
        <pt x="471" y="288" on="1"/>
        <pt x="471" y="328" on="1"/>
        <pt x="143" y="328" on="1"/>
        <pt x="143" y="288" on="1"/>
        <pt x="125" y="288" on="1"/>
        <pt x="125" y="420" on="1"/>
        <pt x="143" y="420" on="1"/>
        <pt x="143" y="380" on="1"/>
        <pt x="471" y="380" on="1"/>
        <pt x="471" y="420" on="1"/>
        <pt x="489" y="420" on="1"/>
      </contour>
    </TTGlyph>
    <TTGlyph name="Y" xMin="2" yMin="0" xMax="690" yMax="683">
      <contour>
        <pt x="378" y="273" on="1"/>
        <pt x="378" y="75" on="1"/>
        <pt x="378" y="57" on="0"/>
        <pt x="383" y="37" on="0"/>
        <pt x="400" y="28" on="0"/>
        <pt x="432" y="26" on="0"/>
        <pt x="459" y="26" on="1"/>
        <pt x="459" y="0" on="1"/>
        <pt x="448" y="1" on="0"/>
        <pt x="419" y="2" on="0"/>
        <pt x="388" y="2" on="0"/>
        <pt x="358" y="2" on="0"/>
        <pt x="346" y="2" on="1"/>
        <pt x="334" y="2" on="0"/>
        <pt x="305" y="2" on="0"/>
        <pt x="274" y="2" on="0"/>
        <pt x="245" y="1" on="0"/>
        <pt x="234" y="0" on="1"/>
        <pt x="234" y="26" on="1"/>
        <pt x="260" y="26" on="0"/>
        <pt x="291" y="27" on="0"/>
        <pt x="308" y="36" on="0"/>
        <pt x="314" y="54" on="0"/>
        <pt x="314" y="71" on="1"/>
        <pt x="314" y="273" on="1"/>
        <pt x="93" y="625" on="1"/>
        <pt x="86" y="636" on="0"/>
        <pt x="72" y="649" on="0"/>
        <pt x="52" y="655" on="0"/>
        <pt x="23" y="657" on="0"/>
        <pt x="2" y="657" on="1"/>
        <pt x="2" y="683" on="1"/>
        <pt x="11" y="682" on="0"/>
        <pt x="37" y="681" on="0"/>
        <pt x="65" y="681" on="0"/>
        <pt x="92" y="681" on="0"/>
        <pt x="102" y="681" on="1"/>
        <pt x="127" y="681" on="0"/>
        <pt x="192" y="681" on="0"/>
        <pt x="216" y="683" on="1"/>
        <pt x="216" y="657" on="1"/>
        <pt x="211" y="657" on="0"/>
        <pt x="194" y="656" on="0"/>
        <pt x="178" y="653" on="0"/>
        <pt x="167" y="645" on="0"/>
        <pt x="167" y="637" on="1"/>
        <pt x="167" y="632" on="0"/>
        <pt x="170" y="626" on="0"/>
        <pt x="175" y="617" on="1"/>
        <pt x="372" y="302" on="1"/>
        <pt x="552" y="591" on="1"/>
        <pt x="558" y="601" on="0"/>
        <pt x="565" y="615" on="0"/>
        <pt x="565" y="624" on="1"/>
        <pt x="565" y="655" on="0"/>
        <pt x="527" y="657" on="1"/>
        <pt x="527" y="683" on="1"/>
        <pt x="545" y="681" on="0"/>
        <pt x="597" y="681" on="0"/>
        <pt x="616" y="681" on="1"/>
        <pt x="635" y="681" on="0"/>
        <pt x="673" y="681" on="0"/>
        <pt x="690" y="683" on="1"/>
        <pt x="690" y="657" on="1"/>
        <pt x="683" y="657" on="0"/>
        <pt x="658" y="655" on="0"/>
        <pt x="627" y="643" on="0"/>
        <pt x="594" y="617" on="0"/>
        <pt x="579" y="594" on="1"/>
      </contour>
    </TTGlyph>
    <TTGlyph name="Z" xMin="46" yMin="0" xMax="521" yMax="683">
      <contour>
        <pt x="122" y="28" on="1"/>
        <pt x="296" y="28" on="1"/>
        <pt x="368" y="28" on="0"/>
        <pt x="448" y="64" on="0"/>
        <pt x="488" y="127" on="0"/>
        <pt x="500" y="212" on="0"/>
        <pt x="503" y="261" on="1"/>
        <pt x="521" y="261" on="1"/>
        <pt x="507" y="0" on="1"/>
        <pt x="68" y="0" on="1"/>
        <pt x="53" y="0" on="0"/>
        <pt x="46" y="3" on="0"/>
        <pt x="46" y="13" on="1"/>
        <pt x="46" y="18" on="0"/>
        <pt x="48" y="24" on="0"/>
        <pt x="53" y="32" on="1"/>
        <pt x="440" y="657" on="1"/>
        <pt x="275" y="657" on="1"/>
        <pt x="214" y="657" on="0"/>
        <pt x="139" y="628" on="0"/>
        <pt x="96" y="576" on="0"/>
        <pt x="79" y="505" on="0"/>
        <pt x="77" y="462" on="1"/>
        <pt x="59" y="462" on="1"/>
        <pt x="69" y="683" on="1"/>
        <pt x="494" y="683" on="1"/>
        <pt x="510" y="683" on="0"/>
        <pt x="516" y="677" on="0"/>
        <pt x="516" y="663" on="1"/>
      </contour>
    </TTGlyph>
    <TTGlyph name="a" xMin="40" yMin="-8" xMax="459" yMax="442">
      <contour>
        <pt x="360" y="115" on="1"/>
        <pt x="360" y="99" on="0"/>
        <pt x="361" y="64" on="0"/>
        <pt x="369" y="37" on="0"/>
        <pt x="386" y="19" on="0"/>
        <pt x="401" y="19" on="1"/>
        <pt x="406" y="19" on="0"/>
        <pt x="420" y="23" on="0"/>
        <pt x="432" y="38" on="0"/>
        <pt x="441" y="65" on="0"/>
        <pt x="441" y="88" on="1"/>
        <pt x="441" y="145" on="1"/>
        <pt x="459" y="145" on="1"/>
        <pt x="459" y="89" on="1"/>
        <pt x="459" y="59" on="0"/>
        <pt x="442" y="23" on="0"/>
        <pt x="418" y="3" on="0"/>
        <pt x="393" y="-4" on="0"/>
        <pt x="385" y="-4" on="1"/>
        <pt x="352" y="-4" on="0"/>
        <pt x="313" y="47" on="0"/>
        <pt x="311" y="80" on="1"/>
        <pt x="294" y="37" on="0"/>
        <pt x="225" y="-8" on="0"/>
        <pt x="183" y="-8" on="1"/>
        <pt x="163" y="-8" on="0"/>
        <pt x="113" y="1" on="0"/>
        <pt x="70" y="24" on="0"/>
        <pt x="40" y="62" on="0"/>
        <pt x="40" y="91" on="1"/>
        <pt x="40" y="120" on="0"/>
        <pt x="74" y="188" on="0"/>
        <pt x="121" y="214" on="1"/>
        <pt x="163" y="237" on="0"/>
        <pt x="262" y="252" on="0"/>
        <pt x="307" y="254" on="1"/>
        <pt x="307" y="298" on="1"/>
        <pt x="307" y="330" on="0"/>
        <pt x="288" y="377" on="0"/>
        <pt x="258" y="410" on="0"/>
        <pt x="221" y="426" on="0"/>
        <pt x="202" y="426" on="1"/>
        <pt x="189" y="426" on="0"/>
        <pt x="157" y="418" on="0"/>
        <pt x="126" y="400" on="0"/>
        <pt x="100" y="369" on="0"/>
        <pt x="92" y="345" on="1"/>
        <pt x="98" y="347" on="0"/>
        <pt x="104" y="347" on="1"/>
        <pt x="117" y="347" on="0"/>
        <pt x="140" y="330" on="0"/>
        <pt x="140" y="311" on="1"/>
        <pt x="140" y="290" on="0"/>
        <pt x="114" y="275" on="0"/>
        <pt x="104" y="275" on="1"/>
        <pt x="102" y="275" on="0"/>
        <pt x="90" y="277" on="0"/>
        <pt x="78" y="284" on="0"/>
        <pt x="68" y="300" on="0"/>
        <pt x="68" y="314" on="1"/>
        <pt x="68" y="339" on="0"/>
        <pt x="88" y="385" on="0"/>
        <pt x="124" y="421" on="0"/>
        <pt x="174" y="442" on="0"/>
        <pt x="204" y="442" on="1"/>
        <pt x="230" y="442" on="0"/>
        <pt x="290" y="424" on="0"/>
        <pt x="318" y="399" on="1"/>
        <pt x="334" y="384" on="0"/>
        <pt x="351" y="356" on="0"/>
        <pt x="359" y="323" on="0"/>
        <pt x="360" y="284" on="0"/>
        <pt x="360" y="259" on="1"/>
      </contour>
      <contour>
        <pt x="307" y="239" on="1"/>
        <pt x="283" y="238" on="0"/>
        <pt x="208" y="226" on="0"/>
        <pt x="172" y="206" on="1"/>
        <pt x="150" y="194" on="0"/>
        <pt x="123" y="164" on="0"/>
        <pt x="107" y="132" on="0"/>
        <pt x="101" y="102" on="0"/>
        <pt x="101" y="91" on="1"/>
        <pt x="101" y="56" on="0"/>
        <pt x="152" y="8" on="0"/>
        <pt x="190" y="8" on="1"/>
        <pt x="211" y="8" on="0"/>
        <pt x="252" y="24" on="0"/>
        <pt x="286" y="57" on="0"/>
        <pt x="307" y="106" on="0"/>
        <pt x="307" y="139" on="1"/>
      </contour>
    </TTGlyph>
    <TTGlyph name="acute" xMin="189" yMin="512" xMax="362" yMax="696">
      <contour>
        <pt x="200" y="512" on="1"/>
        <pt x="198" y="514" on="0"/>
        <pt x="189" y="523" on="0"/>
        <pt x="189" y="524" on="1"/>
        <pt x="189" y="525" on="0"/>
        <pt x="191" y="528" on="0"/>
        <pt x="196" y="535" on="1"/>
        <pt x="309" y="679" on="1"/>
        <pt x="317" y="688" on="0"/>
        <pt x="326" y="696" on="0"/>
        <pt x="335" y="696" on="1"/>
        <pt x="346" y="696" on="0"/>
        <pt x="362" y="680" on="0"/>
        <pt x="362" y="669" on="1"/>
        <pt x="362" y="661" on="0"/>
        <pt x="356" y="653" on="0"/>
        <pt x="347" y="645" on="1"/>
      </contour>
    </TTGlyph>
    <TTGlyph name="ae" xMin="42" yMin="-8" xMax="647" yMax="442">
      <contour>
        <pt x="360" y="235" on="1"/>
        <pt x="360" y="206" on="0"/>
        <pt x="368" y="123" on="0"/>
        <pt x="391" y="84" on="1"/>
        <pt x="405" y="61" on="0"/>
        <pt x="437" y="32" on="0"/>
        <pt x="468" y="16" on="0"/>
        <pt x="498" y="10" on="0"/>
        <pt x="509" y="10" on="1"/>
        <pt x="544" y="10" on="0"/>
        <pt x="611" y="59" on="0"/>
        <pt x="627" y="113" on="1"/>
        <pt x="629" y="121" on="0"/>
        <pt x="633" y="126" on="0"/>
        <pt x="638" y="126" on="1"/>
        <pt x="646" y="126" on="0"/>
        <pt x="646" y="118" on="1"/>
        <pt x="646" y="112" on="0"/>
        <pt x="631" y="72" on="0"/>
        <pt x="597" y="27" on="0"/>
        <pt x="543" y="-8" on="0"/>
        <pt x="503" y="-8" on="1"/>
        <pt x="487" y="-8" on="0"/>
        <pt x="447" y="0" on="0"/>
        <pt x="405" y="21" on="0"/>
        <pt x="362" y="58" on="0"/>
        <pt x="343" y="87" on="1"/>
        <pt x="336" y="69" on="0"/>
        <pt x="307" y="34" on="0"/>
        <pt x="266" y="8" on="0"/>
        <pt x="214" y="-8" on="0"/>
        <pt x="184" y="-8" on="1"/>
        <pt x="162" y="-8" on="0"/>
        <pt x="112" y="2" on="0"/>
        <pt x="70" y="24" on="0"/>
        <pt x="42" y="62" on="0"/>
        <pt x="42" y="89" on="1"/>
        <pt x="42" y="127" on="0"/>
        <pt x="89" y="193" on="0"/>
        <pt x="131" y="212" on="1"/>
        <pt x="178" y="235" on="0"/>
        <pt x="264" y="246" on="0"/>
        <pt x="307" y="248" on="1"/>
        <pt x="307" y="296" on="1"/>
        <pt x="307" y="330" on="0"/>
        <pt x="288" y="379" on="0"/>
        <pt x="257" y="411" on="0"/>
        <pt x="220" y="426" on="0"/>
        <pt x="202" y="426" on="1"/>
        <pt x="190" y="426" on="0"/>
        <pt x="158" y="419" on="0"/>
        <pt x="127" y="400" on="0"/>
        <pt x="100" y="369" on="0"/>
        <pt x="92" y="345" on="1"/>
        <pt x="98" y="347" on="0"/>
        <pt x="104" y="347" on="1"/>
        <pt x="117" y="347" on="0"/>
        <pt x="140" y="330" on="0"/>
        <pt x="140" y="311" on="1"/>
        <pt x="140" y="290" on="0"/>
        <pt x="114" y="275" on="0"/>
        <pt x="104" y="275" on="1"/>
        <pt x="102" y="275" on="0"/>
        <pt x="90" y="277" on="0"/>
        <pt x="78" y="284" on="0"/>
        <pt x="68" y="300" on="0"/>
        <pt x="68" y="314" on="1"/>
        <pt x="68" y="339" on="0"/>
        <pt x="88" y="385" on="0"/>
        <pt x="124" y="421" on="0"/>
        <pt x="174" y="442" on="0"/>
        <pt x="204" y="442" on="1"/>
        <pt x="252" y="442" on="0"/>
        <pt x="329" y="395" on="0"/>
        <pt x="348" y="359" on="1"/>
        <pt x="380" y="406" on="0"/>
        <pt x="458" y="442" on="0"/>
        <pt x="492" y="442" on="1"/>
        <pt x="531" y="442" on="0"/>
        <pt x="589" y="411" on="0"/>
        <pt x="628" y="359" on="0"/>
        <pt x="647" y="291" on="0"/>
        <pt x="647" y="253" on="1"/>
        <pt x="647" y="240" on="0"/>
        <pt x="640" y="235" on="0"/>
        <pt x="623" y="235" on="1"/>
      </contour>
      <contour>
        <pt x="593" y="250" on="1"/>
        <pt x="593" y="263" on="0"/>
        <pt x="588" y="321" on="0"/>
        <pt x="568" y="381" on="0"/>
        <pt x="527" y="426" on="0"/>
        <pt x="490" y="426" on="1"/>
        <pt x="475" y="426" on="0"/>
        <pt x="434" y="411" on="0"/>
        <pt x="395" y="372" on="0"/>
        <pt x="365" y="304" on="0"/>
        <pt x="361" y="250" on="1"/>
      </contour>
      <contour>
        <pt x="307" y="232" on="1"/>
        <pt x="247" y="231" on="0"/>
        <pt x="168" y="201" on="0"/>
        <pt x="122" y="159" on="0"/>
        <pt x="103" y="110" on="0"/>
        <pt x="103" y="89" on="1"/>
        <pt x="103" y="57" on="0"/>
        <pt x="152" y="8" on="0"/>
        <pt x="191" y="8" on="1"/>
        <pt x="216" y="8" on="0"/>
        <pt x="261" y="27" on="0"/>
        <pt x="296" y="61" on="0"/>
        <pt x="316" y="107" on="0"/>
        <pt x="316" y="133" on="1"/>
        <pt x="316" y="141" on="0"/>
        <pt x="315" y="151" on="0"/>
        <pt x="313" y="162" on="1"/>
        <pt x="308" y="183" on="0"/>
        <pt x="307" y="211" on="0"/>
      </contour>
    </TTGlyph>
    <TTGlyph name="ampersand" xMin="33" yMin="-16" xMax="678" yMax="710">
      <contour>
        <pt x="191" y="358" on="1"/>
        <pt x="168" y="424" on="0"/>
        <pt x="153" y="521" on="0"/>
        <pt x="153" y="559" on="1"/>
        <pt x="153" y="595" on="0"/>
        <pt x="174" y="652" on="0"/>
        <pt x="208" y="690" on="0"/>
        <pt x="251" y="710" on="0"/>
        <pt x="273" y="710" on="1"/>
        <pt x="297" y="710" on="0"/>
        <pt x="328" y="683" on="0"/>
        <pt x="345" y="645" on="0"/>
        <pt x="351" y="603" on="0"/>
        <pt x="351" y="588" on="1"/>
        <pt x="351" y="576" on="0"/>
        <pt x="344" y="545" on="0"/>
        <pt x="321" y="499" on="0"/>
        <pt x="276" y="434" on="0"/>
        <pt x="237" y="387" on="1"/>
        <pt x="255" y="339" on="0"/>
        <pt x="307" y="246" on="0"/>
        <pt x="356" y="171" on="0"/>
        <pt x="394" y="119" on="0"/>
        <pt x="400" y="112" on="1"/>
        <pt x="413" y="127" on="0"/>
        <pt x="439" y="162" on="0"/>
        <pt x="461" y="196" on="0"/>
        <pt x="479" y="226" on="0"/>
        <pt x="485" y="236" on="1"/>
        <pt x="517" y="290" on="0"/>
        <pt x="551" y="351" on="0"/>
        <pt x="551" y="363" on="1"/>
        <pt x="551" y="383" on="0"/>
        <pt x="516" y="404" on="0"/>
        <pt x="491" y="404" on="1"/>
        <pt x="491" y="430" on="1"/>
        <pt x="513" y="428" on="0"/>
        <pt x="574" y="428" on="0"/>
        <pt x="597" y="428" on="1"/>
        <pt x="605" y="428" on="0"/>
        <pt x="626" y="428" on="0"/>
        <pt x="649" y="428" on="0"/>
        <pt x="671" y="429" on="0"/>
        <pt x="678" y="430" on="1"/>
        <pt x="678" y="404" on="1"/>
        <pt x="640" y="403" on="0"/>
        <pt x="602" y="383" on="0"/>
        <pt x="591" y="374" on="1"/>
        <pt x="585" y="369" on="0"/>
        <pt x="570" y="347" on="0"/>
        <pt x="553" y="320" on="0"/>
        <pt x="536" y="290" on="0"/>
        <pt x="529" y="278" on="1"/>
        <pt x="504" y="233" on="0"/>
        <pt x="467" y="172" on="0"/>
        <pt x="439" y="131" on="0"/>
        <pt x="419" y="106" on="0"/>
        <pt x="412" y="97" on="1"/>
        <pt x="421" y="87" on="0"/>
        <pt x="448" y="57" on="0"/>
        <pt x="482" y="29" on="0"/>
        <pt x="522" y="10" on="0"/>
        <pt x="544" y="10" on="1"/>
        <pt x="561" y="10" on="0"/>
        <pt x="599" y="23" on="0"/>
        <pt x="632" y="50" on="0"/>
        <pt x="654" y="92" on="0"/>
        <pt x="655" y="121" on="1"/>
        <pt x="673" y="121" on="1"/>
        <pt x="672" y="90" on="0"/>
        <pt x="650" y="39" on="0"/>
        <pt x="614" y="3" on="0"/>
        <pt x="567" y="-16" on="0"/>
        <pt x="540" y="-16" on="1"/>
        <pt x="510" y="-16" on="0"/>
        <pt x="459" y="1" on="0"/>
        <pt x="419" y="25" on="0"/>
        <pt x="388" y="52" on="0"/>
        <pt x="378" y="61" on="1"/>
        <pt x="371" y="54" on="0"/>
        <pt x="341" y="28" on="0"/>
        <pt x="297" y="3" on="0"/>
        <pt x="239" y="-16" on="0"/>
        <pt x="204" y="-16" on="1"/>
        <pt x="169" y="-16" on="0"/>
        <pt x="107" y="6" on="0"/>
        <pt x="60" y="45" on="0"/>
        <pt x="33" y="97" on="0"/>
        <pt x="33" y="128" on="1"/>
        <pt x="33" y="175" on="0"/>
        <pt x="67" y="214" on="1"/>
      </contour>
      <contour>
        <pt x="231" y="406" on="1"/>
        <pt x="263" y="443" on="0"/>
        <pt x="302" y="499" on="0"/>
        <pt x="325" y="543" on="0"/>
        <pt x="333" y="576" on="0"/>
        <pt x="333" y="589" on="1"/>
        <pt x="333" y="595" on="0"/>
        <pt x="330" y="629" on="0"/>
        <pt x="319" y="665" on="0"/>
        <pt x="295" y="694" on="0"/>
        <pt x="274" y="694" on="1"/>
        <pt x="262" y="694" on="0"/>
        <pt x="236" y="683" on="0"/>
        <pt x="215" y="656" on="0"/>
        <pt x="201" y="611" on="0"/>
        <pt x="201" y="578" on="1"/>
        <pt x="201" y="537" on="0"/>
        <pt x="217" y="445" on="0"/>
      </contour>
      <contour>
        <pt x="136" y="270" on="1"/>
        <pt x="116" y="247" on="0"/>
        <pt x="97" y="189" on="0"/>
        <pt x="97" y="158" on="1"/>
        <pt x="97" y="134" on="0"/>
        <pt x="110" y="81" on="0"/>
        <pt x="139" y="38" on="0"/>
        <pt x="183" y="10" on="0"/>
        <pt x="213" y="10" on="1"/>
        <pt x="250" y="10" on="0"/>
        <pt x="328" y="40" on="0"/>
        <pt x="365" y="75" on="1"/>
        <pt x="347" y="95" on="0"/>
        <pt x="305" y="152" on="0"/>
        <pt x="260" y="221" on="0"/>
        <pt x="216" y="299" on="0"/>
        <pt x="198" y="341" on="1"/>
      </contour>
    </TTGlyph>
    <TTGlyph name="asterisk" xMin="56" yMin="319" xMax="402" yMax="749">
      <contour>
        <pt x="249" y="339" on="1"/>
        <pt x="249" y="331" on="0"/>
        <pt x="238" y="319" on="0"/>
        <pt x="229" y="319" on="1"/>
        <pt x="219" y="319" on="0"/>
        <pt x="209" y="331" on="0"/>
        <pt x="208" y="338" on="1"/>
        <pt x="221" y="519" on="1"/>
        <pt x="83" y="417" on="1"/>
        <pt x="81" y="417" on="0"/>
        <pt x="72" y="418" on="0"/>
        <pt x="63" y="422" on="0"/>
        <pt x="56" y="430" on="0"/>
        <pt x="56" y="438" on="1"/>
        <pt x="56" y="446" on="0"/>
        <pt x="64" y="453" on="0"/>
        <pt x="73" y="458" on="1"/>
        <pt x="214" y="534" on="1"/>
        <pt x="73" y="609" on="1"/>
        <pt x="65" y="614" on="0"/>
        <pt x="56" y="622" on="0"/>
        <pt x="56" y="630" on="1"/>
        <pt x="56" y="637" on="0"/>
        <pt x="66" y="651" on="0"/>
        <pt x="77" y="651" on="1"/>
        <pt x="81" y="651" on="0"/>
        <pt x="87" y="649" on="0"/>
        <pt x="95" y="642" on="1"/>
        <pt x="221" y="549" on="1"/>
        <pt x="209" y="730" on="1"/>
        <pt x="209" y="737" on="0"/>
        <pt x="220" y="749" on="0"/>
        <pt x="229" y="749" on="1"/>
        <pt x="247" y="749" on="0"/>
        <pt x="250" y="729" on="1"/>
        <pt x="237" y="549" on="1"/>
        <pt x="375" y="651" on="1"/>
        <pt x="377" y="651" on="0"/>
        <pt x="386" y="650" on="0"/>
        <pt x="395" y="646" on="0"/>
        <pt x="402" y="638" on="0"/>
        <pt x="402" y="630" on="1"/>
        <pt x="402" y="622" on="0"/>
        <pt x="394" y="615" on="0"/>
        <pt x="385" y="610" on="1"/>
        <pt x="244" y="534" on="1"/>
        <pt x="385" y="459" on="1"/>
        <pt x="393" y="454" on="0"/>
        <pt x="402" y="446" on="0"/>
        <pt x="402" y="438" on="1"/>
        <pt x="402" y="431" on="0"/>
        <pt x="392" y="417" on="0"/>
        <pt x="381" y="417" on="1"/>
        <pt x="377" y="417" on="0"/>
        <pt x="371" y="419" on="0"/>
        <pt x="363" y="426" on="1"/>
        <pt x="237" y="519" on="1"/>
      </contour>
    </TTGlyph>
    <TTGlyph name="at" xMin="46" yMin="-8" xMax="673" yMax="702">
      <contour>
        <pt x="547" y="215" on="1"/>
        <pt x="547" y="205" on="0"/>
        <pt x="549" y="181" on="0"/>
        <pt x="557" y="161" on="0"/>
        <pt x="571" y="147" on="0"/>
        <pt x="583" y="147" on="1"/>
        <pt x="609" y="147" on="0"/>
        <pt x="638" y="183" on="0"/>
        <pt x="652" y="238" on="0"/>
        <pt x="655" y="302" on="0"/>
        <pt x="655" y="330" on="1"/>
        <pt x="655" y="402" on="0"/>
        <pt x="614" y="537" on="0"/>
        <pt x="566" y="590" on="1"/>
        <pt x="518" y="641" on="0"/>
        <pt x="413" y="686" on="0"/>
        <pt x="359" y="686" on="1"/>
        <pt x="299" y="686" on="0"/>
        <pt x="192" y="634" on="0"/>
        <pt x="111" y="542" on="0"/>
        <pt x="64" y="418" on="0"/>
        <pt x="64" y="347" on="1"/>
        <pt x="64" y="280" on="0"/>
        <pt x="108" y="158" on="0"/>
        <pt x="187" y="64" on="0"/>
        <pt x="298" y="8" on="0"/>
        <pt x="364" y="8" on="1"/>
        <pt x="413" y="8" on="0"/>
        <pt x="497" y="23" on="0"/>
        <pt x="565" y="43" on="0"/>
        <pt x="614" y="65" on="0"/>
        <pt x="627" y="71" on="1"/>
        <pt x="631" y="73" on="0"/>
        <pt x="638" y="74" on="0"/>
        <pt x="651" y="74" on="1"/>
        <pt x="666" y="74" on="0"/>
        <pt x="672" y="72" on="0"/>
        <pt x="672" y="68" on="1"/>
        <pt x="672" y="65" on="0"/>
        <pt x="622" y="41" on="0"/>
        <pt x="537" y="14" on="0"/>
        <pt x="426" y="-8" on="0"/>
        <pt x="365" y="-8" on="1"/>
        <pt x="295" y="-8" on="0"/>
        <pt x="178" y="49" on="0"/>
        <pt x="93" y="147" on="0"/>
        <pt x="46" y="275" on="0"/>
        <pt x="46" y="347" on="1"/>
        <pt x="46" y="424" on="0"/>
        <pt x="97" y="554" on="0"/>
        <pt x="183" y="648" on="0"/>
        <pt x="297" y="702" on="0"/>
        <pt x="360" y="702" on="1"/>
        <pt x="412" y="702" on="0"/>
        <pt x="523" y="658" on="0"/>
        <pt x="614" y="567" on="0"/>
        <pt x="673" y="428" on="0"/>
        <pt x="673" y="334" on="1"/>
        <pt x="673" y="294" on="0"/>
        <pt x="667" y="220" on="0"/>
        <pt x="647" y="164" on="0"/>
        <pt x="610" y="131" on="0"/>
        <pt x="579" y="131" on="1"/>
        <pt x="564" y="131" on="0"/>
        <pt x="534" y="141" on="0"/>
        <pt x="509" y="161" on="0"/>
        <pt x="493" y="192" on="0"/>
        <pt x="493" y="213" on="1"/>
        <pt x="486" y="201" on="0"/>
        <pt x="462" y="173" on="0"/>
        <pt x="428" y="148" on="0"/>
        <pt x="385" y="131" on="0"/>
        <pt x="359" y="131" on="1"/>
        <pt x="323" y="131" on="0"/>
        <pt x="256" y="163" on="0"/>
        <pt x="204" y="220" on="0"/>
        <pt x="172" y="299" on="0"/>
        <pt x="172" y="347" on="1"/>
        <pt x="172" y="395" on="0"/>
        <pt x="203" y="475" on="0"/>
        <pt x="256" y="532" on="0"/>
        <pt x="323" y="563" on="0"/>
        <pt x="359" y="563" on="1"/>
        <pt x="388" y="563" on="0"/>
        <pt x="459" y="532" on="0"/>
        <pt x="491" y="485" on="1"/>
        <pt x="495" y="480" on="0"/>
        <pt x="497" y="477" on="0"/>
        <pt x="498" y="477" on="1"/>
        <pt x="526" y="477" on="1"/>
        <pt x="541" y="477" on="0"/>
        <pt x="547" y="471" on="0"/>
        <pt x="547" y="457" on="1"/>
      </contour>
      <contour>
        <pt x="494" y="423" on="1"/>
        <pt x="494" y="447" on="0"/>
        <pt x="469" y="491" on="0"/>
        <pt x="430" y="526" on="0"/>
        <pt x="383" y="547" on="0"/>
        <pt x="360" y="547" on="1"/>
        <pt x="332" y="547" on="0"/>
        <pt x="283" y="516" on="0"/>
        <pt x="246" y="462" on="0"/>
        <pt x="225" y="389" on="0"/>
        <pt x="225" y="347" on="1"/>
        <pt x="225" y="305" on="0"/>
        <pt x="246" y="232" on="0"/>
        <pt x="283" y="178" on="0"/>
        <pt x="332" y="147" on="0"/>
        <pt x="360" y="147" on="1"/>
        <pt x="392" y="147" on="0"/>
        <pt x="459" y="187" on="0"/>
        <pt x="482" y="230" on="1"/>
        <pt x="487" y="238" on="0"/>
        <pt x="491" y="247" on="0"/>
        <pt x="494" y="255" on="0"/>
        <pt x="494" y="264" on="0"/>
        <pt x="494" y="271" on="1"/>
      </contour>
    </TTGlyph>
    <TTGlyph name="b" xMin="31" yMin="-8" xMax="477" yMax="694">
      <contour>
        <pt x="150" y="366" on="1"/>
        <pt x="173" y="395" on="0"/>
        <pt x="239" y="438" on="0"/>
        <pt x="286" y="438" on="1"/>
        <pt x="324" y="438" on="0"/>
        <pt x="393" y="405" on="0"/>
        <pt x="446" y="345" on="0"/>
        <pt x="477" y="264" on="0"/>
        <pt x="477" y="216" on="1"/>
        <pt x="477" y="165" on="0"/>
        <pt x="442" y="82" on="0"/>
        <pt x="386" y="24" on="0"/>
        <pt x="314" y="-8" on="0"/>
        <pt x="276" y="-8" on="1"/>
        <pt x="232" y="-8" on="0"/>
        <pt x="168" y="36" on="0"/>
        <pt x="146" y="71" on="1"/>
        <pt x="117" y="0" on="1"/>
        <pt x="99" y="0" on="1"/>
        <pt x="99" y="603" on="1"/>
        <pt x="99" y="621" on="0"/>
        <pt x="94" y="642" on="0"/>
        <pt x="80" y="654" on="0"/>
        <pt x="53" y="657" on="0"/>
        <pt x="31" y="657" on="1"/>
        <pt x="31" y="683" on="1"/>
        <pt x="150" y="694" on="1"/>
      </contour>
      <contour>
        <pt x="152" y="117" on="1"/>
        <pt x="152" y="104" on="0"/>
        <pt x="155" y="92" on="0"/>
        <pt x="163" y="78" on="1"/>
        <pt x="175" y="56" on="0"/>
        <pt x="203" y="29" on="0"/>
        <pt x="232" y="14" on="0"/>
        <pt x="259" y="8" on="0"/>
        <pt x="271" y="8" on="1"/>
        <pt x="280" y="8" on="0"/>
        <pt x="327" y="18" on="0"/>
        <pt x="375" y="59" on="0"/>
        <pt x="413" y="143" on="0"/>
        <pt x="413" y="217" on="1"/>
        <pt x="413" y="288" on="0"/>
        <pt x="380" y="370" on="0"/>
        <pt x="336" y="411" on="0"/>
        <pt x="291" y="422" on="0"/>
        <pt x="280" y="422" on="1"/>
        <pt x="273" y="422" on="0"/>
        <pt x="246" y="419" on="0"/>
        <pt x="215" y="405" on="0"/>
        <pt x="181" y="380" on="0"/>
        <pt x="166" y="357" on="1"/>
        <pt x="155" y="341" on="0"/>
        <pt x="152" y="329" on="0"/>
        <pt x="152" y="315" on="1"/>
      </contour>
    </TTGlyph>
    <TTGlyph name="bracketleft" xMin="106" yMin="-249" xMax="235" yMax="749">
      <contour>
        <pt x="106" y="-249" on="1"/>
        <pt x="106" y="749" on="1"/>
        <pt x="235" y="749" on="1"/>
        <pt x="235" y="714" on="1"/>
        <pt x="141" y="714" on="1"/>
        <pt x="141" y="-214" on="1"/>
        <pt x="235" y="-214" on="1"/>
        <pt x="235" y="-249" on="1"/>
      </contour>
    </TTGlyph>
    <TTGlyph name="bracketright" xMin="14" yMin="-249" xMax="143" yMax="749">
      <contour>
        <pt x="143" y="-249" on="1"/>
        <pt x="14" y="-249" on="1"/>
        <pt x="14" y="-214" on="1"/>
        <pt x="108" y="-214" on="1"/>
        <pt x="108" y="714" on="1"/>
        <pt x="14" y="714" on="1"/>
        <pt x="14" y="749" on="1"/>
        <pt x="143" y="749" on="1"/>
      </contour>
    </TTGlyph>
    <TTGlyph name="breve" xMin="90" yMin="520" xMax="368" yMax="694">
      <contour>
        <pt x="368" y="694" on="1"/>
        <pt x="367" y="655" on="0"/>
        <pt x="345" y="591" on="0"/>
        <pt x="308" y="545" on="0"/>
        <pt x="258" y="520" on="0"/>
        <pt x="229" y="520" on="1"/>
        <pt x="201" y="520" on="0"/>
        <pt x="151" y="545" on="0"/>
        <pt x="113" y="591" on="0"/>
        <pt x="91" y="655" on="0"/>
        <pt x="90" y="694" on="1"/>
        <pt x="106" y="694" on="1"/>
        <pt x="107" y="660" on="0"/>
        <pt x="127" y="606" on="0"/>
        <pt x="161" y="568" on="0"/>
        <pt x="205" y="548" on="0"/>
        <pt x="229" y="548" on="1"/>
        <pt x="253" y="548" on="0"/>
        <pt x="297" y="569" on="0"/>
        <pt x="331" y="607" on="0"/>
        <pt x="351" y="661" on="0"/>
        <pt x="352" y="694" on="1"/>
      </contour>
    </TTGlyph>
    <TTGlyph name="c" xMin="33" yMin="-8" xMax="384" yMax="442">
      <contour>
        <pt x="349" y="350" on="1"/>
        <pt x="341" y="371" on="0"/>
        <pt x="312" y="399" on="0"/>
        <pt x="279" y="416" on="0"/>
        <pt x="245" y="424" on="0"/>
        <pt x="230" y="424" on="1"/>
        <pt x="208" y="424" on="0"/>
        <pt x="161" y="402" on="0"/>
        <pt x="122" y="353" on="0"/>
        <pt x="97" y="274" on="0"/>
        <pt x="97" y="217" on="1"/>
        <pt x="97" y="162" on="0"/>
        <pt x="123" y="83" on="0"/>
        <pt x="164" y="33" on="0"/>
        <pt x="214" y="10" on="0"/>
        <pt x="238" y="10" on="1"/>
        <pt x="254" y="10" on="0"/>
        <pt x="290" y="19" on="0"/>
        <pt x="325" y="41" on="0"/>
        <pt x="354" y="81" on="0"/>
        <pt x="364" y="111" on="1"/>
        <pt x="367" y="121" on="0"/>
        <pt x="371" y="125" on="0"/>
        <pt x="376" y="125" on="1"/>
        <pt x="384" y="125" on="0"/>
        <pt x="384" y="118" on="1"/>
        <pt x="384" y="114" on="0"/>
        <pt x="370" y="73" on="0"/>
        <pt x="336" y="28" on="0"/>
        <pt x="276" y="-8" on="0"/>
        <pt x="229" y="-8" on="1"/>
        <pt x="191" y="-8" on="0"/>
        <pt x="120" y="25" on="0"/>
        <pt x="66" y="84" on="0"/>
        <pt x="33" y="166" on="0"/>
        <pt x="33" y="216" on="1"/>
        <pt x="33" y="264" on="0"/>
        <pt x="64" y="347" on="0"/>
        <pt x="118" y="407" on="0"/>
        <pt x="189" y="442" on="0"/>
        <pt x="229" y="442" on="1"/>
        <pt x="258" y="442" on="0"/>
        <pt x="310" y="423" on="0"/>
        <pt x="350" y="389" on="0"/>
        <pt x="374" y="344" on="0"/>
        <pt x="374" y="317" on="1"/>
        <pt x="374" y="304" on="0"/>
        <pt x="365" y="289" on="0"/>
        <pt x="353" y="281" on="0"/>
        <pt x="341" y="279" on="0"/>
        <pt x="338" y="279" on="1"/>
        <pt x="328" y="279" on="0"/>
        <pt x="302" y="294" on="0"/>
        <pt x="302" y="315" on="1"/>
        <pt x="302" y="328" on="0"/>
        <pt x="311" y="342" on="0"/>
        <pt x="325" y="349" on="0"/>
        <pt x="342" y="350" on="0"/>
      </contour>
    </TTGlyph>
    <TTGlyph name="caron" xMin="107" yMin="519" xMax="351" yMax="635">
      <contour>
        <pt x="341" y="635" on="1"/>
        <pt x="351" y="621" on="1"/>
        <pt x="229" y="519" on="1"/>
        <pt x="107" y="621" on="1"/>
        <pt x="117" y="635" on="1"/>
        <pt x="229" y="559" on="1"/>
      </contour>
    </TTGlyph>
    <TTGlyph name="cedilla" xMin="124" yMin="-194" xMax="333" yMax="-16">
      <contour>
        <pt x="255" y="-54" on="1"/>
        <pt x="291" y="-60" on="0"/>
        <pt x="333" y="-93" on="0"/>
        <pt x="333" y="-121" on="1"/>
        <pt x="333" y="-148" on="0"/>
        <pt x="294" y="-178" on="0"/>
        <pt x="239" y="-191" on="0"/>
        <pt x="181" y="-194" on="0"/>
        <pt x="162" y="-194" on="1"/>
        <pt x="124" y="-194" on="1"/>
        <pt x="124" y="-178" on="1"/>
        <pt x="151" y="-178" on="1"/>
        <pt x="174" y="-178" on="0"/>
        <pt x="220" y="-175" on="0"/>
        <pt x="257" y="-164" on="0"/>
        <pt x="280" y="-142" on="0"/>
        <pt x="280" y="-122" on="1"/>
        <pt x="280" y="-95" on="0"/>
        <pt x="235" y="-66" on="0"/>
        <pt x="202" y="-65" on="1"/>
        <pt x="202" y="-16" on="1"/>
        <pt x="255" y="-16" on="1"/>
      </contour>
    </TTGlyph>
    <TTGlyph name="circumflex" xMin="106" yMin="546" xMax="352" yMax="694">
      <contour>
        <pt x="352" y="558" on="1"/>
        <pt x="340" y="546" on="1"/>
        <pt x="229" y="654" on="1"/>
        <pt x="118" y="546" on="1"/>
        <pt x="106" y="558" on="1"/>
        <pt x="229" y="694" on="1"/>
      </contour>
    </TTGlyph>
    <TTGlyph name="colon" xMin="84" yMin="0" xMax="166" yMax="430">
      <contour>
        <pt x="166" y="389" on="1"/>
        <pt x="166" y="370" on="0"/>
        <pt x="140" y="348" on="0"/>
        <pt x="125" y="348" on="1"/>
        <pt x="109" y="348" on="0"/>
        <pt x="84" y="370" on="0"/>
        <pt x="84" y="389" on="1"/>
        <pt x="84" y="408" on="0"/>
        <pt x="110" y="430" on="0"/>
        <pt x="125" y="430" on="1"/>
        <pt x="141" y="430" on="0"/>
        <pt x="166" y="408" on="0"/>
      </contour>
      <contour>
        <pt x="166" y="41" on="1"/>
        <pt x="166" y="22" on="0"/>
        <pt x="140" y="0" on="0"/>
        <pt x="125" y="0" on="1"/>
        <pt x="109" y="0" on="0"/>
        <pt x="84" y="22" on="0"/>
        <pt x="84" y="41" on="1"/>
        <pt x="84" y="60" on="0"/>
        <pt x="110" y="82" on="0"/>
        <pt x="125" y="82" on="1"/>
        <pt x="141" y="82" on="0"/>
        <pt x="166" y="60" on="0"/>
      </contour>
    </TTGlyph>
    <TTGlyph name="comma" xMin="84" yMin="-194" xMax="176" yMax="82">
      <contour>
        <pt x="158" y="16" on="1"/>
        <pt x="152" y="8" on="0"/>
        <pt x="134" y="0" on="0"/>
        <pt x="125" y="0" on="1"/>
        <pt x="108" y="0" on="0"/>
        <pt x="84" y="21" on="0"/>
        <pt x="84" y="41" on="1"/>
        <pt x="84" y="61" on="0"/>
        <pt x="108" y="82" on="0"/>
        <pt x="125" y="82" on="1"/>
        <pt x="143" y="82" on="0"/>
        <pt x="163" y="62" on="0"/>
        <pt x="173" y="32" on="0"/>
        <pt x="176" y="-1" on="0"/>
        <pt x="176" y="-13" on="1"/>
        <pt x="176" y="-55" on="0"/>
        <pt x="154" y="-122" on="0"/>
        <pt x="127" y="-169" on="0"/>
        <pt x="103" y="-194" on="0"/>
        <pt x="101" y="-194" on="1"/>
        <pt x="93" y="-194" on="0"/>
        <pt x="93" y="-186" on="1"/>
        <pt x="93" y="-184" on="0"/>
        <pt x="94" y="-181" on="0"/>
        <pt x="98" y="-177" on="1"/>
        <pt x="160" y="-103" on="0"/>
        <pt x="160" y="-12" on="1"/>
        <pt x="160" y="0" on="0"/>
        <pt x="160" y="9" on="0"/>
      </contour>
    </TTGlyph>
    <TTGlyph name="d" xMin="33" yMin="-8" xMax="479" yMax="694">
      <contour>
        <pt x="411" y="694" on="1"/>
        <pt x="411" y="80" on="1"/>
        <pt x="411" y="62" on="0"/>
        <pt x="416" y="41" on="0"/>
        <pt x="430" y="29" on="0"/>
        <pt x="457" y="26" on="0"/>
        <pt x="479" y="26" on="1"/>
        <pt x="479" y="0" on="1"/>
        <pt x="358" y="-8" on="1"/>
        <pt x="358" y="65" on="1"/>
        <pt x="356" y="62" on="0"/>
        <pt x="338" y="39" on="0"/>
        <pt x="304" y="13" on="0"/>
        <pt x="256" y="-8" on="0"/>
        <pt x="224" y="-8" on="1"/>
        <pt x="187" y="-8" on="0"/>
        <pt x="118" y="25" on="0"/>
        <pt x="65" y="84" on="0"/>
        <pt x="33" y="166" on="0"/>
        <pt x="33" y="215" on="1"/>
        <pt x="33" y="265" on="0"/>
        <pt x="67" y="347" on="0"/>
        <pt x="123" y="405" on="0"/>
        <pt x="196" y="438" on="0"/>
        <pt x="234" y="438" on="1"/>
        <pt x="264" y="438" on="0"/>
        <pt x="310" y="418" on="0"/>
        <pt x="342" y="393" on="0"/>
        <pt x="359" y="371" on="0"/>
        <pt x="360" y="369" on="1"/>
        <pt x="360" y="603" on="1"/>
        <pt x="360" y="621" on="0"/>
        <pt x="355" y="642" on="0"/>
        <pt x="341" y="654" on="0"/>
        <pt x="314" y="657" on="0"/>
        <pt x="292" y="657" on="1"/>
        <pt x="292" y="683" on="1"/>
      </contour>
      <contour>
        <pt x="358" y="318" on="1"/>
        <pt x="358" y="339" on="0"/>
        <pt x="336" y="377" on="0"/>
        <pt x="301" y="406" on="0"/>
        <pt x="259" y="422" on="0"/>
        <pt x="239" y="422" on="1"/>
        <pt x="229" y="422" on="0"/>
        <pt x="182" y="412" on="0"/>
        <pt x="134" y="371" on="0"/>
        <pt x="97" y="288" on="0"/>
        <pt x="97" y="214" on="1"/>
        <pt x="97" y="142" on="0"/>
        <pt x="130" y="60" on="0"/>
        <pt x="175" y="19" on="0"/>
        <pt x="219" y="8" on="0"/>
        <pt x="230" y="8" on="1"/>
        <pt x="251" y="8" on="0"/>
        <pt x="297" y="26" on="0"/>
        <pt x="334" y="56" on="0"/>
        <pt x="358" y="97" on="0"/>
        <pt x="358" y="120" on="1"/>
      </contour>
    </TTGlyph>
    <TTGlyph name="dieresis" xMin="98" yMin="578" xMax="360" yMax="657">
      <contour>
        <pt x="177" y="617" on="1"/>
        <pt x="177" y="600" on="0"/>
        <pt x="154" y="578" on="0"/>
        <pt x="138" y="578" on="1"/>
        <pt x="120" y="578" on="0"/>
        <pt x="98" y="603" on="0"/>
        <pt x="98" y="618" on="1"/>
        <pt x="98" y="631" on="0"/>
        <pt x="118" y="657" on="0"/>
        <pt x="138" y="657" on="1"/>
        <pt x="152" y="657" on="0"/>
        <pt x="177" y="636" on="0"/>
      </contour>
      <contour>
        <pt x="360" y="617" on="1"/>
        <pt x="360" y="604" on="0"/>
        <pt x="340" y="578" on="0"/>
        <pt x="320" y="578" on="1"/>
        <pt x="306" y="578" on="0"/>
        <pt x="281" y="599" on="0"/>
        <pt x="281" y="618" on="1"/>
        <pt x="281" y="635" on="0"/>
        <pt x="304" y="657" on="0"/>
        <pt x="320" y="657" on="1"/>
        <pt x="338" y="657" on="0"/>
        <pt x="360" y="632" on="0"/>
      </contour>
    </TTGlyph>
    <TTGlyph name="dollar" xMin="46" yMin="-55" xMax="412" yMax="749">
      <contour>
        <pt x="242" y="391" on="1"/>
        <pt x="276" y="383" on="0"/>
        <pt x="335" y="359" on="0"/>
        <pt x="363" y="327" on="1"/>
        <pt x="380" y="307" on="0"/>
        <pt x="399" y="267" on="0"/>
        <pt x="409" y="231" on="0"/>
        <pt x="412" y="201" on="0"/>
        <pt x="412" y="191" on="1"/>
        <pt x="412" y="154" on="0"/>
        <pt x="388" y="85" on="0"/>
        <pt x="344" y="31" on="0"/>
        <pt x="281" y="-4" on="0"/>
        <pt x="242" y="-7" on="1"/>
        <pt x="242" y="-55" on="1"/>
        <pt x="216" y="-55" on="1"/>
        <pt x="216" y="-8" on="1"/>
        <pt x="175" y="-6" on="0"/>
        <pt x="112" y="25" on="0"/>
        <pt x="68" y="75" on="0"/>
        <pt x="46" y="141" on="0"/>
        <pt x="46" y="178" on="1"/>
        <pt x="46" y="203" on="0"/>
        <pt x="69" y="219" on="0"/>
        <pt x="82" y="219" on="1"/>
        <pt x="92" y="219" on="0"/>
        <pt x="118" y="204" on="0"/>
        <pt x="118" y="183" on="1"/>
        <pt x="118" y="164" on="0"/>
        <pt x="95" y="147" on="0"/>
        <pt x="82" y="147" on="1"/>
        <pt x="72" y="147" on="0"/>
        <pt x="66" y="150" on="1"/>
        <pt x="73" y="112" on="0"/>
        <pt x="106" y="62" on="0"/>
        <pt x="148" y="32" on="0"/>
        <pt x="195" y="19" on="0"/>
        <pt x="216" y="18" on="1"/>
        <pt x="216" y="330" on="1"/>
        <pt x="194" y="336" on="0"/>
        <pt x="161" y="346" on="0"/>
        <pt x="133" y="359" on="0"/>
        <pt x="108" y="377" on="0"/>
        <pt x="94" y="392" on="1"/>
        <pt x="88" y="399" on="0"/>
        <pt x="72" y="421" on="0"/>
        <pt x="57" y="453" on="0"/>
        <pt x="46" y="493" on="0"/>
        <pt x="46" y="518" on="1"/>
        <pt x="46" y="554" on="0"/>
        <pt x="71" y="618" on="0"/>
        <pt x="116" y="667" on="0"/>
        <pt x="179" y="699" on="0"/>
        <pt x="216" y="702" on="1"/>
        <pt x="216" y="749" on="1"/>
        <pt x="242" y="749" on="1"/>
        <pt x="242" y="702" on="1"/>
        <pt x="287" y="699" on="0"/>
        <pt x="351" y="668" on="0"/>
        <pt x="393" y="620" on="0"/>
        <pt x="412" y="561" on="0"/>
        <pt x="412" y="530" on="1"/>
        <pt x="412" y="508" on="0"/>
        <pt x="392" y="489" on="0"/>
        <pt x="376" y="489" on="1"/>
        <pt x="363" y="489" on="0"/>
        <pt x="340" y="506" on="0"/>
        <pt x="340" y="525" on="1"/>
        <pt x="340" y="546" on="0"/>
        <pt x="366" y="561" on="0"/>
        <pt x="376" y="561" on="1"/>
        <pt x="385" y="561" on="0"/>
        <pt x="391" y="558" on="1"/>
        <pt x="384" y="593" on="0"/>
        <pt x="351" y="638" on="0"/>
        <pt x="309" y="664" on="0"/>
        <pt x="263" y="675" on="0"/>
        <pt x="242" y="676" on="1"/>
      </contour>
      <contour>
        <pt x="216" y="675" on="1"/>
        <pt x="184" y="672" on="0"/>
        <pt x="136" y="645" on="0"/>
        <pt x="103" y="607" on="0"/>
        <pt x="86" y="561" on="0"/>
        <pt x="86" y="538" on="1"/>
        <pt x="86" y="510" on="0"/>
        <pt x="107" y="463" on="0"/>
        <pt x="125" y="443" on="1"/>
        <pt x="146" y="421" on="0"/>
        <pt x="196" y="404" on="0"/>
        <pt x="216" y="399" on="1"/>
      </contour>
      <contour>
        <pt x="242" y="19" on="1"/>
        <pt x="272" y="22" on="0"/>
        <pt x="321" y="50" on="0"/>
        <pt x="354" y="92" on="0"/>
        <pt x="372" y="144" on="0"/>
        <pt x="372" y="170" on="1"/>
        <pt x="372" y="210" on="0"/>
        <pt x="343" y="264" on="0"/>
        <pt x="332" y="276" on="1"/>
        <pt x="310" y="299" on="0"/>
        <pt x="266" y="318" on="0"/>
        <pt x="242" y="323" on="1"/>
      </contour>
    </TTGlyph>
    <TTGlyph name="dotaccent" xMin="84" yMin="575" xMax="165" yMax="657">
      <contour>
        <pt x="165" y="616" on="1"/>
        <pt x="165" y="599" on="0"/>
        <pt x="142" y="575" on="0"/>
        <pt x="124" y="575" on="1"/>
        <pt x="108" y="575" on="0"/>
        <pt x="84" y="598" on="0"/>
        <pt x="84" y="616" on="1"/>
        <pt x="84" y="633" on="0"/>
        <pt x="107" y="657" on="0"/>
        <pt x="125" y="657" on="1"/>
        <pt x="141" y="657" on="0"/>
        <pt x="165" y="634" on="0"/>
      </contour>
    </TTGlyph>
    <TTGlyph name="dotlessi" xMin="34" yMin="0" xMax="214" yMax="438">
      <contour>
        <pt x="153" y="68" on="1"/>
        <pt x="153" y="55" on="0"/>
        <pt x="155" y="38" on="0"/>
        <pt x="167" y="29" on="0"/>
        <pt x="192" y="26" on="0"/>
        <pt x="214" y="26" on="1"/>
        <pt x="214" y="0" on="1"/>
        <pt x="197" y="2" on="0"/>
        <pt x="144" y="2" on="0"/>
        <pt x="126" y="2" on="1"/>
        <pt x="107" y="2" on="0"/>
        <pt x="52" y="2" on="0"/>
        <pt x="34" y="0" on="1"/>
        <pt x="34" y="26" on="1"/>
        <pt x="58" y="26" on="0"/>
        <pt x="85" y="29" on="0"/>
        <pt x="99" y="38" on="0"/>
        <pt x="102" y="55" on="0"/>
        <pt x="102" y="69" on="1"/>
        <pt x="102" y="347" on="1"/>
        <pt x="102" y="365" on="0"/>
        <pt x="98" y="386" on="0"/>
        <pt x="84" y="398" on="0"/>
        <pt x="59" y="401" on="0"/>
        <pt x="38" y="401" on="1"/>
        <pt x="38" y="427" on="1"/>
        <pt x="153" y="438" on="1"/>
      </contour>
    </TTGlyph>
    <TTGlyph name="e" xMin="27" yMin="-8" xMax="385" yMax="442">
      <contour>
        <pt x="91" y="235" on="1"/>
        <pt x="91" y="200" on="0"/>
        <pt x="99" y="116" on="0"/>
        <pt x="122" y="78" on="1"/>
        <pt x="142" y="45" on="0"/>
        <pt x="203" y="10" on="0"/>
        <pt x="235" y="10" on="1"/>
        <pt x="274" y="10" on="0"/>
        <pt x="347" y="61" on="0"/>
        <pt x="364" y="112" on="1"/>
        <pt x="367" y="121" on="0"/>
        <pt x="371" y="126" on="0"/>
        <pt x="376" y="126" on="1"/>
        <pt x="378" y="126" on="0"/>
        <pt x="384" y="124" on="0"/>
        <pt x="384" y="119" on="1"/>
        <pt x="384" y="111" on="0"/>
        <pt x="367" y="69" on="0"/>
        <pt x="329" y="26" on="0"/>
        <pt x="270" y="-8" on="0"/>
        <pt x="228" y="-8" on="1"/>
        <pt x="188" y="-8" on="0"/>
        <pt x="116" y="26" on="0"/>
        <pt x="60" y="86" on="0"/>
        <pt x="27" y="169" on="0"/>
        <pt x="27" y="218" on="1"/>
        <pt x="27" y="264" on="0"/>
        <pt x="57" y="346" on="0"/>
        <pt x="108" y="407" on="0"/>
        <pt x="177" y="442" on="0"/>
        <pt x="217" y="442" on="1"/>
        <pt x="260" y="442" on="0"/>
        <pt x="323" y="411" on="0"/>
        <pt x="365" y="359" on="0"/>
        <pt x="385" y="289" on="0"/>
        <pt x="385" y="251" on="1"/>
        <pt x="385" y="243" on="0"/>
        <pt x="384" y="238" on="0"/>
        <pt x="381" y="235" on="1"/>
      </contour>
      <contour>
        <pt x="331" y="250" on="1"/>
        <pt x="330" y="335" on="0"/>
        <pt x="267" y="426" on="0"/>
        <pt x="216" y="426" on="1"/>
        <pt x="201" y="426" on="0"/>
        <pt x="160" y="412" on="0"/>
        <pt x="123" y="373" on="0"/>
        <pt x="95" y="304" on="0"/>
        <pt x="92" y="250" on="1"/>
      </contour>
    </TTGlyph>
    <TTGlyph name="eight" xMin="33" yMin="-16" xMax="425" yMax="661">
      <contour>
        <pt x="324" y="323" on="1"/>
        <pt x="339" y="313" on="0"/>
        <pt x="374" y="286" on="0"/>
        <pt x="405" y="248" on="0"/>
        <pt x="425" y="197" on="0"/>
        <pt x="425" y="163" on="1"/>
        <pt x="425" y="125" on="0"/>
        <pt x="394" y="59" on="0"/>
        <pt x="340" y="11" on="0"/>
        <pt x="268" y="-16" on="0"/>
        <pt x="228" y="-16" on="1"/>
        <pt x="192" y="-16" on="0"/>
        <pt x="122" y="7" on="0"/>
        <pt x="67" y="51" on="0"/>
        <pt x="33" y="112" on="0"/>
        <pt x="33" y="151" on="1"/>
        <pt x="33" y="192" on="0"/>
        <pt x="67" y="255" on="0"/>
        <pt x="115" y="300" on="0"/>
        <pt x="166" y="330" on="0"/>
        <pt x="183" y="339" on="1"/>
        <pt x="173" y="346" on="0"/>
        <pt x="148" y="364" on="0"/>
        <pt x="126" y="380" on="0"/>
        <pt x="108" y="394" on="0"/>
        <pt x="104" y="398" on="1"/>
        <pt x="75" y="427" on="0"/>
        <pt x="59" y="485" on="0"/>
        <pt x="59" y="504" on="1"/>
        <pt x="59" y="538" on="0"/>
        <pt x="87" y="596" on="0"/>
        <pt x="134" y="638" on="0"/>
        <pt x="196" y="661" on="0"/>
        <pt x="230" y="661" on="1"/>
        <pt x="260" y="661" on="0"/>
        <pt x="321" y="642" on="0"/>
        <pt x="369" y="605" on="0"/>
        <pt x="399" y="551" on="0"/>
        <pt x="399" y="517" on="1"/>
        <pt x="399" y="488" on="0"/>
        <pt x="377" y="441" on="0"/>
        <pt x="341" y="402" on="0"/>
        <pt x="296" y="372" on="0"/>
        <pt x="272" y="360" on="1"/>
      </contour>
      <contour>
        <pt x="246" y="377" on="1"/>
        <pt x="252" y="372" on="0"/>
        <pt x="255" y="371" on="0"/>
        <pt x="256" y="371" on="1"/>
        <pt x="258" y="371" on="0"/>
        <pt x="292" y="390" on="0"/>
        <pt x="332" y="428" on="0"/>
        <pt x="365" y="482" on="0"/>
        <pt x="365" y="517" on="1"/>
        <pt x="365" y="541" on="0"/>
        <pt x="344" y="585" on="0"/>
        <pt x="308" y="618" on="0"/>
        <pt x="258" y="638" on="0"/>
        <pt x="228" y="638" on="1"/>
        <pt x="201" y="638" on="0"/>
        <pt x="152" y="622" on="0"/>
        <pt x="115" y="593" on="0"/>
        <pt x="93" y="554" on="0"/>
        <pt x="93" y="531" on="1"/>
        <pt x="93" y="513" on="0"/>
        <pt x="106" y="484" on="0"/>
        <pt x="122" y="463" on="0"/>
        <pt x="138" y="450" on="0"/>
        <pt x="141" y="448" on="1"/>
      </contour>
      <contour>
        <pt x="200" y="328" on="1"/>
        <pt x="174" y="316" on="0"/>
        <pt x="127" y="281" on="0"/>
        <pt x="91" y="235" on="0"/>
        <pt x="70" y="182" on="0"/>
        <pt x="70" y="152" on="1"/>
        <pt x="70" y="122" on="0"/>
        <pt x="94" y="70" on="0"/>
        <pt x="137" y="31" on="0"/>
        <pt x="196" y="8" on="0"/>
        <pt x="230" y="8" on="1"/>
        <pt x="262" y="8" on="0"/>
        <pt x="319" y="28" on="0"/>
        <pt x="362" y="63" on="0"/>
        <pt x="388" y="110" on="0"/>
        <pt x="388" y="138" on="1"/>
        <pt x="388" y="161" on="0"/>
        <pt x="373" y="196" on="0"/>
        <pt x="352" y="222" on="0"/>
        <pt x="331" y="239" on="0"/>
        <pt x="325" y="243" on="1"/>
      </contour>
    </TTGlyph>
    <TTGlyph name="emdash" xMin="-12" yMin="258" xMax="928" yMax="274">
      <contour>
        <pt x="-12" y="258" on="1"/>
        <pt x="-12" y="274" on="1"/>
        <pt x="928" y="274" on="1"/>
        <pt x="928" y="258" on="1"/>
      </contour>
    </TTGlyph>
    <TTGlyph name="endash" xMin="-6" yMin="258" xMax="464" yMax="274">
      <contour>
        <pt x="-6" y="258" on="1"/>
        <pt x="-6" y="274" on="1"/>
        <pt x="464" y="274" on="1"/>
        <pt x="464" y="258" on="1"/>
      </contour>
    </TTGlyph>
    <TTGlyph name="equal" xMin="46" yMin="143" xMax="673" yMax="356">
      <contour>
        <pt x="76" y="321" on="1"/>
        <pt x="65" y="321" on="0"/>
        <pt x="46" y="325" on="0"/>
        <pt x="46" y="338" on="1"/>
        <pt x="46" y="352" on="0"/>
        <pt x="67" y="356" on="0"/>
        <pt x="80" y="356" on="1"/>
        <pt x="639" y="356" on="1"/>
        <pt x="652" y="356" on="0"/>
        <pt x="673" y="352" on="0"/>
        <pt x="673" y="338" on="1"/>
        <pt x="673" y="325" on="0"/>
        <pt x="654" y="321" on="0"/>
        <pt x="643" y="321" on="1"/>
      </contour>
      <contour>
        <pt x="80" y="143" on="1"/>
        <pt x="67" y="143" on="0"/>
        <pt x="46" y="147" on="0"/>
        <pt x="46" y="161" on="1"/>
        <pt x="46" y="174" on="0"/>
        <pt x="65" y="178" on="0"/>
        <pt x="76" y="178" on="1"/>
        <pt x="643" y="178" on="1"/>
        <pt x="654" y="178" on="0"/>
        <pt x="673" y="174" on="0"/>
        <pt x="673" y="161" on="1"/>
        <pt x="673" y="147" on="0"/>
        <pt x="652" y="143" on="0"/>
        <pt x="639" y="143" on="1"/>
      </contour>
    </TTGlyph>
    <TTGlyph name="exclam" xMin="84" yMin="0" xMax="166" yMax="710">
      <contour>
        <pt x="135" y="187" on="1"/>
        <pt x="134" y="177" on="0"/>
        <pt x="132" y="169" on="0"/>
        <pt x="125" y="169" on="1"/>
        <pt x="118" y="169" on="0"/>
        <pt x="116" y="177" on="0"/>
        <pt x="115" y="187" on="1"/>
        <pt x="84" y="670" on="1"/>
        <pt x="84" y="692" on="0"/>
        <pt x="112" y="710" on="0"/>
        <pt x="125" y="710" on="1"/>
        <pt x="138" y="710" on="0"/>
        <pt x="166" y="692" on="0"/>
        <pt x="166" y="670" on="1"/>
      </contour>
      <contour>
        <pt x="166" y="41" on="1"/>
        <pt x="166" y="24" on="0"/>
        <pt x="142" y="0" on="0"/>
        <pt x="125" y="0" on="1"/>
        <pt x="108" y="0" on="0"/>
        <pt x="84" y="24" on="0"/>
        <pt x="84" y="41" on="1"/>
        <pt x="84" y="58" on="0"/>
        <pt x="108" y="82" on="0"/>
        <pt x="125" y="82" on="1"/>
        <pt x="142" y="82" on="0"/>
        <pt x="166" y="58" on="0"/>
      </contour>
    </TTGlyph>
    <TTGlyph name="exclamdown" xMin="84" yMin="-211" xMax="166" yMax="500">
      <contour>
        <pt x="166" y="459" on="1"/>
        <pt x="166" y="442" on="0"/>
        <pt x="142" y="418" on="0"/>
        <pt x="125" y="418" on="1"/>
        <pt x="108" y="418" on="0"/>
        <pt x="84" y="442" on="0"/>
        <pt x="84" y="459" on="1"/>
        <pt x="84" y="476" on="0"/>
        <pt x="108" y="500" on="0"/>
        <pt x="125" y="500" on="1"/>
        <pt x="142" y="500" on="0"/>
        <pt x="166" y="476" on="0"/>
      </contour>
      <contour>
        <pt x="166" y="-171" on="1"/>
        <pt x="166" y="-193" on="0"/>
        <pt x="138" y="-211" on="0"/>
        <pt x="125" y="-211" on="1"/>
        <pt x="112" y="-211" on="0"/>
        <pt x="84" y="-193" on="0"/>
        <pt x="84" y="-171" on="1"/>
        <pt x="115" y="313" on="1"/>
        <pt x="116" y="323" on="0"/>
        <pt x="118" y="331" on="0"/>
        <pt x="125" y="331" on="1"/>
        <pt x="132" y="331" on="0"/>
        <pt x="134" y="323" on="0"/>
        <pt x="135" y="313" on="1"/>
      </contour>
    </TTGlyph>
    <TTGlyph name="f" xMin="22" yMin="0" xMax="313" yMax="702">
      <contour>
        <pt x="153" y="71" on="1"/>
        <pt x="153" y="54" on="0"/>
        <pt x="159" y="36" on="0"/>
        <pt x="177" y="27" on="0"/>
        <pt x="210" y="26" on="0"/>
        <pt x="237" y="26" on="1"/>
        <pt x="237" y="0" on="1"/>
        <pt x="227" y="1" on="0"/>
        <pt x="199" y="2" on="0"/>
        <pt x="169" y="2" on="0"/>
        <pt x="141" y="2" on="0"/>
        <pt x="130" y="2" on="1"/>
        <pt x="120" y="2" on="0"/>
        <pt x="95" y="2" on="0"/>
        <pt x="68" y="2" on="0"/>
        <pt x="43" y="1" on="0"/>
        <pt x="34" y="0" on="1"/>
        <pt x="34" y="26" on="1"/>
        <pt x="58" y="26" on="0"/>
        <pt x="85" y="29" on="0"/>
        <pt x="99" y="38" on="0"/>
        <pt x="102" y="55" on="0"/>
        <pt x="102" y="69" on="1"/>
        <pt x="102" y="404" on="1"/>
        <pt x="22" y="404" on="1"/>
        <pt x="22" y="430" on="1"/>
        <pt x="102" y="430" on="1"/>
        <pt x="102" y="549" on="1"/>
        <pt x="102" y="589" on="0"/>
        <pt x="128" y="647" on="0"/>
        <pt x="168" y="684" on="0"/>
        <pt x="216" y="702" on="0"/>
        <pt x="237" y="702" on="1"/>
        <pt x="267" y="702" on="0"/>
        <pt x="313" y="670" on="0"/>
        <pt x="313" y="641" on="1"/>
        <pt x="313" y="621" on="0"/>
        <pt x="290" y="607" on="0"/>
        <pt x="279" y="607" on="1"/>
        <pt x="268" y="607" on="0"/>
        <pt x="245" y="621" on="0"/>
        <pt x="245" y="641" on="1"/>
        <pt x="245" y="660" on="0"/>
        <pt x="268" y="673" on="0"/>
        <pt x="274" y="675" on="1"/>
        <pt x="258" y="686" on="0"/>
        <pt x="236" y="686" on="1"/>
        <pt x="220" y="686" on="0"/>
        <pt x="189" y="667" on="0"/>
        <pt x="165" y="632" on="0"/>
        <pt x="151" y="582" on="0"/>
        <pt x="151" y="551" on="1"/>
        <pt x="151" y="430" on="1"/>
        <pt x="267" y="430" on="1"/>
        <pt x="267" y="404" on="1"/>
        <pt x="153" y="404" on="1"/>
      </contour>
    </TTGlyph>
    <TTGlyph name="f_f" xMin="19" yMin="0" xMax="559" yMax="702">
      <contour>
        <pt x="399" y="71" on="1"/>
        <pt x="399" y="54" on="0"/>
        <pt x="405" y="36" on="0"/>
        <pt x="423" y="27" on="0"/>
        <pt x="456" y="26" on="0"/>
        <pt x="483" y="26" on="1"/>
        <pt x="483" y="0" on="1"/>
        <pt x="473" y="1" on="0"/>
        <pt x="445" y="2" on="0"/>
        <pt x="415" y="2" on="0"/>
        <pt x="387" y="2" on="0"/>
        <pt x="376" y="2" on="1"/>
        <pt x="366" y="2" on="0"/>
        <pt x="341" y="2" on="0"/>
        <pt x="314" y="2" on="0"/>
        <pt x="289" y="1" on="0"/>
        <pt x="280" y="0" on="1"/>
        <pt x="280" y="26" on="1"/>
        <pt x="304" y="26" on="0"/>
        <pt x="331" y="29" on="0"/>
        <pt x="345" y="38" on="0"/>
        <pt x="348" y="55" on="0"/>
        <pt x="348" y="69" on="1"/>
        <pt x="348" y="404" on="1"/>
        <pt x="150" y="404" on="1"/>
        <pt x="150" y="69" on="1"/>
        <pt x="150" y="54" on="0"/>
        <pt x="153" y="37" on="0"/>
        <pt x="167" y="28" on="0"/>
        <pt x="194" y="26" on="0"/>
        <pt x="218" y="26" on="1"/>
        <pt x="218" y="0" on="1"/>
        <pt x="200" y="2" on="0"/>
        <pt x="144" y="2" on="0"/>
        <pt x="124" y="2" on="1"/>
        <pt x="105" y="2" on="0"/>
        <pt x="49" y="2" on="0"/>
        <pt x="31" y="0" on="1"/>
        <pt x="31" y="26" on="1"/>
        <pt x="55" y="26" on="0"/>
        <pt x="82" y="29" on="0"/>
        <pt x="96" y="38" on="0"/>
        <pt x="99" y="55" on="0"/>
        <pt x="99" y="69" on="1"/>
        <pt x="99" y="404" on="1"/>
        <pt x="19" y="404" on="1"/>
        <pt x="19" y="430" on="1"/>
        <pt x="99" y="430" on="1"/>
        <pt x="99" y="547" on="1"/>
        <pt x="99" y="588" on="0"/>
        <pt x="136" y="647" on="0"/>
        <pt x="192" y="685" on="0"/>
        <pt x="258" y="702" on="0"/>
        <pt x="287" y="702" on="1"/>
        <pt x="316" y="702" on="0"/>
        <pt x="370" y="684" on="0"/>
        <pt x="387" y="659" on="1"/>
        <pt x="406" y="677" on="0"/>
        <pt x="454" y="702" on="0"/>
        <pt x="483" y="702" on="1"/>
        <pt x="513" y="702" on="0"/>
        <pt x="559" y="670" on="0"/>
        <pt x="559" y="641" on="1"/>
        <pt x="559" y="621" on="0"/>
        <pt x="536" y="607" on="0"/>
        <pt x="525" y="607" on="1"/>
        <pt x="514" y="607" on="0"/>
        <pt x="491" y="621" on="0"/>
        <pt x="491" y="641" on="1"/>
        <pt x="491" y="660" on="0"/>
        <pt x="514" y="673" on="0"/>
        <pt x="520" y="675" on="1"/>
        <pt x="504" y="686" on="0"/>
        <pt x="482" y="686" on="1"/>
        <pt x="466" y="686" on="0"/>
        <pt x="435" y="667" on="0"/>
        <pt x="411" y="632" on="0"/>
        <pt x="397" y="582" on="0"/>
        <pt x="397" y="551" on="1"/>
        <pt x="397" y="430" on="1"/>
        <pt x="513" y="430" on="1"/>
        <pt x="513" y="404" on="1"/>
        <pt x="399" y="404" on="1"/>
      </contour>
      <contour>
        <pt x="348" y="430" on="1"/>
        <pt x="348" y="549" on="1"/>
        <pt x="348" y="554" on="0"/>
        <pt x="349" y="580" on="0"/>
        <pt x="353" y="594" on="1"/>
        <pt x="352" y="594" on="0"/>
        <pt x="344" y="597" on="0"/>
        <pt x="335" y="605" on="0"/>
        <pt x="328" y="617" on="0"/>
        <pt x="328" y="627" on="1"/>
        <pt x="328" y="646" on="0"/>
        <pt x="349" y="660" on="0"/>
        <pt x="363" y="661" on="1"/>
        <pt x="354" y="669" on="0"/>
        <pt x="332" y="679" on="0"/>
        <pt x="310" y="684" on="0"/>
        <pt x="291" y="686" on="0"/>
        <pt x="285" y="686" on="1"/>
        <pt x="260" y="686" on="0"/>
        <pt x="211" y="668" on="0"/>
        <pt x="172" y="633" on="0"/>
        <pt x="148" y="581" on="0"/>
        <pt x="148" y="547" on="1"/>
        <pt x="148" y="430" on="1"/>
      </contour>
    </TTGlyph>
    <TTGlyph name="f_f_i" xMin="19" yMin="0" xMax="717" yMax="702">
      <contour>
        <pt x="649" y="69" on="1"/>
        <pt x="649" y="54" on="0"/>
        <pt x="652" y="37" on="0"/>
        <pt x="666" y="28" on="0"/>
        <pt x="693" y="26" on="0"/>
        <pt x="717" y="26" on="1"/>
        <pt x="717" y="0" on="1"/>
        <pt x="699" y="2" on="0"/>
        <pt x="643" y="2" on="0"/>
        <pt x="623" y="2" on="1"/>
        <pt x="604" y="2" on="0"/>
        <pt x="548" y="2" on="0"/>
        <pt x="530" y="0" on="1"/>
        <pt x="530" y="26" on="1"/>
        <pt x="554" y="26" on="0"/>
        <pt x="581" y="29" on="0"/>
        <pt x="595" y="38" on="0"/>
        <pt x="598" y="55" on="0"/>
        <pt x="598" y="69" on="1"/>
        <pt x="598" y="351" on="1"/>
        <pt x="598" y="384" on="0"/>
        <pt x="579" y="404" on="0"/>
        <pt x="547" y="404" on="1"/>
        <pt x="400" y="404" on="1"/>
        <pt x="400" y="69" on="1"/>
        <pt x="400" y="54" on="0"/>
        <pt x="403" y="37" on="0"/>
        <pt x="417" y="28" on="0"/>
        <pt x="444" y="26" on="0"/>
        <pt x="468" y="26" on="1"/>
        <pt x="468" y="0" on="1"/>
        <pt x="450" y="2" on="0"/>
        <pt x="394" y="2" on="0"/>
        <pt x="374" y="2" on="1"/>
        <pt x="355" y="2" on="0"/>
        <pt x="299" y="2" on="0"/>
        <pt x="281" y="0" on="1"/>
        <pt x="281" y="26" on="1"/>
        <pt x="305" y="26" on="0"/>
        <pt x="332" y="29" on="0"/>
        <pt x="346" y="38" on="0"/>
        <pt x="349" y="55" on="0"/>
        <pt x="349" y="69" on="1"/>
        <pt x="349" y="404" on="1"/>
        <pt x="150" y="404" on="1"/>
        <pt x="150" y="69" on="1"/>
        <pt x="150" y="54" on="0"/>
        <pt x="153" y="37" on="0"/>
        <pt x="167" y="28" on="0"/>
        <pt x="194" y="26" on="0"/>
        <pt x="218" y="26" on="1"/>
        <pt x="218" y="0" on="1"/>
        <pt x="200" y="2" on="0"/>
        <pt x="144" y="2" on="0"/>
        <pt x="124" y="2" on="1"/>
        <pt x="105" y="2" on="0"/>
        <pt x="49" y="2" on="0"/>
        <pt x="31" y="0" on="1"/>
        <pt x="31" y="26" on="1"/>
        <pt x="55" y="26" on="0"/>
        <pt x="82" y="29" on="0"/>
        <pt x="96" y="38" on="0"/>
        <pt x="99" y="55" on="0"/>
        <pt x="99" y="69" on="1"/>
        <pt x="99" y="404" on="1"/>
        <pt x="19" y="404" on="1"/>
        <pt x="19" y="430" on="1"/>
        <pt x="99" y="430" on="1"/>
        <pt x="99" y="547" on="1"/>
        <pt x="99" y="588" on="0"/>
        <pt x="136" y="647" on="0"/>
        <pt x="192" y="685" on="0"/>
        <pt x="258" y="702" on="0"/>
        <pt x="287" y="702" on="1"/>
        <pt x="330" y="702" on="0"/>
        <pt x="380" y="666" on="0"/>
        <pt x="390" y="646" on="1"/>
        <pt x="410" y="664" on="0"/>
        <pt x="452" y="686" on="0"/>
        <pt x="492" y="698" on="0"/>
        <pt x="526" y="702" on="0"/>
        <pt x="538" y="702" on="1"/>
        <pt x="585" y="702" on="0"/>
        <pt x="648" y="651" on="0"/>
        <pt x="648" y="613" on="1"/>
        <pt x="648" y="593" on="0"/>
        <pt x="626" y="576" on="0"/>
        <pt x="612" y="576" on="1"/>
        <pt x="597" y="576" on="0"/>
        <pt x="576" y="594" on="0"/>
        <pt x="576" y="612" on="1"/>
        <pt x="576" y="625" on="0"/>
        <pt x="586" y="639" on="0"/>
        <pt x="600" y="646" on="0"/>
        <pt x="614" y="647" on="0"/>
        <pt x="618" y="647" on="1"/>
        <pt x="610" y="660" on="0"/>
        <pt x="587" y="675" on="0"/>
        <pt x="563" y="683" on="0"/>
        <pt x="541" y="686" on="0"/>
        <pt x="534" y="686" on="1"/>
        <pt x="512" y="686" on="0"/>
        <pt x="463" y="669" on="0"/>
        <pt x="424" y="635" on="0"/>
        <pt x="398" y="583" on="0"/>
        <pt x="398" y="547" on="1"/>
        <pt x="398" y="430" on="1"/>
        <pt x="512" y="430" on="1"/>
        <pt x="521" y="430" on="0"/>
        <pt x="527" y="430" on="0"/>
        <pt x="532" y="431" on="1"/>
        <pt x="539" y="432" on="0"/>
        <pt x="571" y="434" on="0"/>
        <pt x="607" y="437" on="0"/>
        <pt x="640" y="439" on="0"/>
        <pt x="649" y="439" on="1"/>
      </contour>
      <contour>
        <pt x="349" y="430" on="1"/>
        <pt x="349" y="547" on="1"/>
        <pt x="349" y="548" on="0"/>
        <pt x="349" y="570" on="0"/>
        <pt x="351" y="577" on="1"/>
        <pt x="325" y="585" on="0"/>
        <pt x="325" y="612" on="1"/>
        <pt x="325" y="625" on="0"/>
        <pt x="336" y="639" on="0"/>
        <pt x="350" y="646" on="0"/>
        <pt x="364" y="647" on="0"/>
        <pt x="368" y="647" on="1"/>
        <pt x="357" y="665" on="0"/>
        <pt x="310" y="686" on="0"/>
        <pt x="284" y="686" on="1"/>
        <pt x="261" y="686" on="0"/>
        <pt x="212" y="669" on="0"/>
        <pt x="173" y="635" on="0"/>
        <pt x="148" y="582" on="0"/>
        <pt x="148" y="547" on="1"/>
        <pt x="148" y="430" on="1"/>
      </contour>
    </TTGlyph>
    <TTGlyph name="f_f_l" xMin="19" yMin="0" xMax="717" yMax="702">
      <contour>
        <pt x="649" y="69" on="1"/>
        <pt x="649" y="54" on="0"/>
        <pt x="652" y="37" on="0"/>
        <pt x="666" y="28" on="0"/>
        <pt x="693" y="26" on="0"/>
        <pt x="717" y="26" on="1"/>
        <pt x="717" y="0" on="1"/>
        <pt x="699" y="2" on="0"/>
        <pt x="643" y="2" on="0"/>
        <pt x="623" y="2" on="1"/>
        <pt x="604" y="2" on="0"/>
        <pt x="548" y="2" on="0"/>
        <pt x="530" y="0" on="1"/>
        <pt x="530" y="26" on="1"/>
        <pt x="554" y="26" on="0"/>
        <pt x="581" y="29" on="0"/>
        <pt x="595" y="38" on="0"/>
        <pt x="598" y="55" on="0"/>
        <pt x="598" y="69" on="1"/>
        <pt x="598" y="404" on="1"/>
        <pt x="400" y="404" on="1"/>
        <pt x="400" y="69" on="1"/>
        <pt x="400" y="54" on="0"/>
        <pt x="403" y="37" on="0"/>
        <pt x="417" y="28" on="0"/>
        <pt x="444" y="26" on="0"/>
        <pt x="468" y="26" on="1"/>
        <pt x="468" y="0" on="1"/>
        <pt x="450" y="2" on="0"/>
        <pt x="394" y="2" on="0"/>
        <pt x="374" y="2" on="1"/>
        <pt x="355" y="2" on="0"/>
        <pt x="299" y="2" on="0"/>
        <pt x="281" y="0" on="1"/>
        <pt x="281" y="26" on="1"/>
        <pt x="305" y="26" on="0"/>
        <pt x="332" y="29" on="0"/>
        <pt x="346" y="38" on="0"/>
        <pt x="349" y="55" on="0"/>
        <pt x="349" y="69" on="1"/>
        <pt x="349" y="404" on="1"/>
        <pt x="150" y="404" on="1"/>
        <pt x="150" y="69" on="1"/>
        <pt x="150" y="54" on="0"/>
        <pt x="153" y="37" on="0"/>
        <pt x="167" y="28" on="0"/>
        <pt x="194" y="26" on="0"/>
        <pt x="218" y="26" on="1"/>
        <pt x="218" y="0" on="1"/>
        <pt x="200" y="2" on="0"/>
        <pt x="144" y="2" on="0"/>
        <pt x="124" y="2" on="1"/>
        <pt x="105" y="2" on="0"/>
        <pt x="49" y="2" on="0"/>
        <pt x="31" y="0" on="1"/>
        <pt x="31" y="26" on="1"/>
        <pt x="55" y="26" on="0"/>
        <pt x="82" y="29" on="0"/>
        <pt x="96" y="38" on="0"/>
        <pt x="99" y="55" on="0"/>
        <pt x="99" y="69" on="1"/>
        <pt x="99" y="404" on="1"/>
        <pt x="19" y="404" on="1"/>
        <pt x="19" y="430" on="1"/>
        <pt x="99" y="430" on="1"/>
        <pt x="99" y="547" on="1"/>
        <pt x="99" y="588" on="0"/>
        <pt x="135" y="647" on="0"/>
        <pt x="191" y="684" on="0"/>
        <pt x="258" y="702" on="0"/>
        <pt x="288" y="702" on="1"/>
        <pt x="332" y="702" on="0"/>
        <pt x="385" y="670" on="0"/>
        <pt x="394" y="650" on="1"/>
        <pt x="427" y="679" on="0"/>
        <pt x="504" y="702" on="0"/>
        <pt x="539" y="702" on="1"/>
        <pt x="547" y="702" on="0"/>
        <pt x="594" y="698" on="0"/>
        <pt x="616" y="687" on="1"/>
        <pt x="626" y="689" on="0"/>
        <pt x="641" y="692" on="0"/>
        <pt x="649" y="694" on="1"/>
      </contour>
      <contour>
        <pt x="349" y="430" on="1"/>
        <pt x="349" y="547" on="1"/>
        <pt x="349" y="555" on="0"/>
        <pt x="351" y="580" on="0"/>
        <pt x="356" y="594" on="1"/>
        <pt x="344" y="597" on="0"/>
        <pt x="329" y="613" on="0"/>
        <pt x="329" y="627" on="1"/>
        <pt x="329" y="658" on="0"/>
        <pt x="364" y="661" on="1"/>
        <pt x="354" y="670" on="0"/>
        <pt x="330" y="680" on="0"/>
        <pt x="307" y="685" on="0"/>
        <pt x="290" y="686" on="0"/>
        <pt x="286" y="686" on="1"/>
        <pt x="260" y="686" on="0"/>
        <pt x="211" y="668" on="0"/>
        <pt x="172" y="633" on="0"/>
        <pt x="148" y="581" on="0"/>
        <pt x="148" y="547" on="1"/>
        <pt x="148" y="430" on="1"/>
      </contour>
      <contour>
        <pt x="398" y="430" on="1"/>
        <pt x="598" y="430" on="1"/>
        <pt x="598" y="610" on="1"/>
        <pt x="578" y="618" on="0"/>
        <pt x="578" y="641" on="1"/>
        <pt x="578" y="658" on="0"/>
        <pt x="591" y="667" on="1"/>
        <pt x="597" y="673" on="0"/>
        <pt x="597" y="674" on="1"/>
        <pt x="597" y="678" on="0"/>
        <pt x="580" y="682" on="0"/>
        <pt x="558" y="685" on="0"/>
        <pt x="539" y="686" on="0"/>
        <pt x="537" y="686" on="1"/>
        <pt x="510" y="686" on="0"/>
        <pt x="459" y="667" on="0"/>
        <pt x="421" y="632" on="0"/>
        <pt x="398" y="580" on="0"/>
        <pt x="398" y="547" on="1"/>
      </contour>
    </TTGlyph>
    <TTGlyph name="fi" xMin="19" yMin="0" xMax="467" yMax="702">
      <contour>
        <pt x="399" y="69" on="1"/>
        <pt x="399" y="54" on="0"/>
        <pt x="402" y="37" on="0"/>
        <pt x="416" y="28" on="0"/>
        <pt x="443" y="26" on="0"/>
        <pt x="467" y="26" on="1"/>
        <pt x="467" y="0" on="1"/>
        <pt x="449" y="2" on="0"/>
        <pt x="393" y="2" on="0"/>
        <pt x="373" y="2" on="1"/>
        <pt x="354" y="2" on="0"/>
        <pt x="298" y="2" on="0"/>
        <pt x="280" y="0" on="1"/>
        <pt x="280" y="26" on="1"/>
        <pt x="304" y="26" on="0"/>
        <pt x="331" y="29" on="0"/>
        <pt x="345" y="38" on="0"/>
        <pt x="348" y="55" on="0"/>
        <pt x="348" y="69" on="1"/>
        <pt x="348" y="351" on="1"/>
        <pt x="348" y="384" on="0"/>
        <pt x="329" y="404" on="0"/>
        <pt x="297" y="404" on="1"/>
        <pt x="150" y="404" on="1"/>
        <pt x="150" y="69" on="1"/>
        <pt x="150" y="54" on="0"/>
        <pt x="153" y="37" on="0"/>
        <pt x="167" y="28" on="0"/>
        <pt x="194" y="26" on="0"/>
        <pt x="218" y="26" on="1"/>
        <pt x="218" y="0" on="1"/>
        <pt x="200" y="2" on="0"/>
        <pt x="144" y="2" on="0"/>
        <pt x="124" y="2" on="1"/>
        <pt x="105" y="2" on="0"/>
        <pt x="49" y="2" on="0"/>
        <pt x="31" y="0" on="1"/>
        <pt x="31" y="26" on="1"/>
        <pt x="55" y="26" on="0"/>
        <pt x="82" y="29" on="0"/>
        <pt x="96" y="38" on="0"/>
        <pt x="99" y="55" on="0"/>
        <pt x="99" y="69" on="1"/>
        <pt x="99" y="404" on="1"/>
        <pt x="19" y="404" on="1"/>
        <pt x="19" y="430" on="1"/>
        <pt x="99" y="430" on="1"/>
        <pt x="99" y="547" on="1"/>
        <pt x="99" y="588" on="0"/>
        <pt x="136" y="647" on="0"/>
        <pt x="192" y="685" on="0"/>
        <pt x="258" y="702" on="0"/>
        <pt x="288" y="702" on="1"/>
        <pt x="335" y="702" on="0"/>
        <pt x="398" y="651" on="0"/>
        <pt x="398" y="613" on="1"/>
        <pt x="398" y="593" on="0"/>
        <pt x="376" y="576" on="0"/>
        <pt x="362" y="576" on="1"/>
        <pt x="347" y="576" on="0"/>
        <pt x="326" y="594" on="0"/>
        <pt x="326" y="612" on="1"/>
        <pt x="326" y="625" on="0"/>
        <pt x="336" y="639" on="0"/>
        <pt x="350" y="646" on="0"/>
        <pt x="364" y="647" on="0"/>
        <pt x="368" y="647" on="1"/>
        <pt x="360" y="660" on="0"/>
        <pt x="337" y="675" on="0"/>
        <pt x="313" y="683" on="0"/>
        <pt x="291" y="686" on="0"/>
        <pt x="284" y="686" on="1"/>
        <pt x="262" y="686" on="0"/>
        <pt x="213" y="669" on="0"/>
        <pt x="174" y="635" on="0"/>
        <pt x="148" y="583" on="0"/>
        <pt x="148" y="547" on="1"/>
        <pt x="148" y="430" on="1"/>
        <pt x="262" y="430" on="1"/>
        <pt x="271" y="430" on="0"/>
        <pt x="277" y="430" on="0"/>
        <pt x="282" y="431" on="1"/>
        <pt x="289" y="432" on="0"/>
        <pt x="321" y="434" on="0"/>
        <pt x="357" y="437" on="0"/>
        <pt x="390" y="439" on="0"/>
        <pt x="399" y="439" on="1"/>
      </contour>
    </TTGlyph>
    <TTGlyph name="five" xMin="41" yMin="-16" xMax="417" yMax="660">
      <contour>
        <pt x="114" y="360" on="1"/>
        <pt x="166" y="415" on="0"/>
        <pt x="242" y="415" on="1"/>
        <pt x="278" y="415" on="0"/>
        <pt x="342" y="382" on="0"/>
        <pt x="390" y="325" on="0"/>
        <pt x="417" y="247" on="0"/>
        <pt x="417" y="202" on="1"/>
        <pt x="417" y="154" on="0"/>
        <pt x="383" y="73" on="0"/>
        <pt x="327" y="16" on="0"/>
        <pt x="255" y="-16" on="0"/>
        <pt x="216" y="-16" on="1"/>
        <pt x="176" y="-16" on="0"/>
        <pt x="112" y="15" on="0"/>
        <pt x="66" y="66" on="0"/>
        <pt x="41" y="129" on="0"/>
        <pt x="41" y="162" on="1"/>
        <pt x="41" y="183" on="0"/>
        <pt x="62" y="204" on="0"/>
        <pt x="79" y="204" on="1"/>
        <pt x="93" y="204" on="0"/>
        <pt x="117" y="186" on="0"/>
        <pt x="117" y="166" on="1"/>
        <pt x="117" y="143" on="0"/>
        <pt x="89" y="128" on="0"/>
        <pt x="79" y="128" on="1"/>
        <pt x="76" y="128" on="0"/>
        <pt x="66" y="130" on="0"/>
        <pt x="63" y="131" on="1"/>
        <pt x="70" y="102" on="0"/>
        <pt x="100" y="56" on="0"/>
        <pt x="141" y="25" on="0"/>
        <pt x="189" y="8" on="0"/>
        <pt x="214" y="8" on="1"/>
        <pt x="246" y="8" on="0"/>
        <pt x="302" y="39" on="0"/>
        <pt x="321" y="70" on="1"/>
        <pt x="332" y="87" on="0"/>
        <pt x="344" y="125" on="0"/>
        <pt x="350" y="161" on="0"/>
        <pt x="351" y="194" on="0"/>
        <pt x="351" y="206" on="1"/>
        <pt x="351" y="270" on="0"/>
        <pt x="326" y="346" on="0"/>
        <pt x="292" y="387" on="0"/>
        <pt x="254" y="399" on="0"/>
        <pt x="241" y="399" on="1"/>
        <pt x="203" y="399" on="0"/>
        <pt x="139" y="369" on="0"/>
        <pt x="115" y="335" on="1"/>
        <pt x="109" y="326" on="0"/>
        <pt x="103" y="326" on="1"/>
        <pt x="95" y="326" on="0"/>
        <pt x="93" y="335" on="0"/>
        <pt x="93" y="349" on="1"/>
        <pt x="93" y="639" on="1"/>
        <pt x="93" y="654" on="0"/>
        <pt x="95" y="660" on="0"/>
        <pt x="99" y="660" on="1"/>
        <pt x="100" y="660" on="0"/>
        <pt x="105" y="659" on="0"/>
        <pt x="113" y="655" on="1"/>
        <pt x="150" y="638" on="0"/>
        <pt x="214" y="629" on="0"/>
        <pt x="237" y="629" on="1"/>
        <pt x="275" y="629" on="0"/>
        <pt x="337" y="645" on="0"/>
        <pt x="363" y="656" on="1"/>
        <pt x="369" y="659" on="0"/>
        <pt x="373" y="660" on="0"/>
        <pt x="374" y="660" on="1"/>
        <pt x="379" y="660" on="0"/>
        <pt x="380" y="653" on="0"/>
        <pt x="380" y="647" on="1"/>
        <pt x="369" y="636" on="0"/>
        <pt x="339" y="609" on="0"/>
        <pt x="297" y="585" on="0"/>
        <pt x="242" y="568" on="0"/>
        <pt x="207" y="568" on="1"/>
        <pt x="175" y="568" on="0"/>
        <pt x="122" y="582" on="0"/>
        <pt x="114" y="585" on="1"/>
      </contour>
    </TTGlyph>
    <TTGlyph name="fl" xMin="19" yMin="0" xMax="467" yMax="702">
      <contour>
        <pt x="399" y="69" on="1"/>
        <pt x="399" y="54" on="0"/>
        <pt x="402" y="37" on="0"/>
        <pt x="416" y="28" on="0"/>
        <pt x="443" y="26" on="0"/>
        <pt x="467" y="26" on="1"/>
        <pt x="467" y="0" on="1"/>
        <pt x="449" y="2" on="0"/>
        <pt x="393" y="2" on="0"/>
        <pt x="373" y="2" on="1"/>
        <pt x="354" y="2" on="0"/>
        <pt x="298" y="2" on="0"/>
        <pt x="280" y="0" on="1"/>
        <pt x="280" y="26" on="1"/>
        <pt x="304" y="26" on="0"/>
        <pt x="331" y="29" on="0"/>
        <pt x="345" y="38" on="0"/>
        <pt x="348" y="55" on="0"/>
        <pt x="348" y="69" on="1"/>
        <pt x="348" y="404" on="1"/>
        <pt x="150" y="404" on="1"/>
        <pt x="150" y="69" on="1"/>
        <pt x="150" y="54" on="0"/>
        <pt x="153" y="37" on="0"/>
        <pt x="167" y="28" on="0"/>
        <pt x="194" y="26" on="0"/>
        <pt x="218" y="26" on="1"/>
        <pt x="218" y="0" on="1"/>
        <pt x="200" y="2" on="0"/>
        <pt x="144" y="2" on="0"/>
        <pt x="124" y="2" on="1"/>
        <pt x="105" y="2" on="0"/>
        <pt x="49" y="2" on="0"/>
        <pt x="31" y="0" on="1"/>
        <pt x="31" y="26" on="1"/>
        <pt x="55" y="26" on="0"/>
        <pt x="82" y="29" on="0"/>
        <pt x="96" y="38" on="0"/>
        <pt x="99" y="55" on="0"/>
        <pt x="99" y="69" on="1"/>
        <pt x="99" y="404" on="1"/>
        <pt x="19" y="404" on="1"/>
        <pt x="19" y="430" on="1"/>
        <pt x="99" y="430" on="1"/>
        <pt x="99" y="547" on="1"/>
        <pt x="99" y="587" on="0"/>
        <pt x="134" y="646" on="0"/>
        <pt x="190" y="684" on="0"/>
        <pt x="257" y="702" on="0"/>
        <pt x="289" y="702" on="1"/>
        <pt x="297" y="702" on="0"/>
        <pt x="344" y="698" on="0"/>
        <pt x="366" y="687" on="1"/>
        <pt x="376" y="689" on="0"/>
        <pt x="391" y="692" on="0"/>
        <pt x="399" y="694" on="1"/>
      </contour>
      <contour>
        <pt x="348" y="430" on="1"/>
        <pt x="348" y="610" on="1"/>
        <pt x="328" y="618" on="0"/>
        <pt x="328" y="641" on="1"/>
        <pt x="328" y="658" on="0"/>
        <pt x="341" y="667" on="1"/>
        <pt x="347" y="673" on="0"/>
        <pt x="347" y="674" on="1"/>
        <pt x="347" y="678" on="0"/>
        <pt x="330" y="682" on="0"/>
        <pt x="308" y="685" on="0"/>
        <pt x="289" y="686" on="0"/>
        <pt x="287" y="686" on="1"/>
        <pt x="260" y="686" on="0"/>
        <pt x="209" y="667" on="0"/>
        <pt x="171" y="632" on="0"/>
        <pt x="148" y="580" on="0"/>
        <pt x="148" y="547" on="1"/>
        <pt x="148" y="430" on="1"/>
      </contour>
    </TTGlyph>
    <TTGlyph name="four" xMin="20" yMin="0" xMax="438" yMax="669">
      <contour>
        <pt x="336" y="196" on="1"/>
        <pt x="438" y="196" on="1"/>
        <pt x="438" y="170" on="1"/>
        <pt x="336" y="170" on="1"/>
        <pt x="336" y="72" on="1"/>
        <pt x="336" y="59" on="0"/>
        <pt x="339" y="41" on="0"/>
        <pt x="353" y="30" on="0"/>
        <pt x="382" y="26" on="0"/>
        <pt x="408" y="26" on="1"/>
        <pt x="427" y="26" on="1"/>
        <pt x="427" y="0" on="1"/>
        <pt x="415" y="1" on="0"/>
        <pt x="384" y="2" on="0"/>
        <pt x="351" y="2" on="0"/>
        <pt x="320" y="2" on="0"/>
        <pt x="307" y="2" on="1"/>
        <pt x="294" y="2" on="0"/>
        <pt x="263" y="2" on="0"/>
        <pt x="230" y="2" on="0"/>
        <pt x="199" y="1" on="0"/>
        <pt x="187" y="0" on="1"/>
        <pt x="187" y="26" on="1"/>
        <pt x="206" y="26" on="1"/>
        <pt x="232" y="26" on="0"/>
        <pt x="261" y="30" on="0"/>
        <pt x="275" y="41" on="0"/>
        <pt x="278" y="59" on="0"/>
        <pt x="278" y="72" on="1"/>
        <pt x="278" y="170" on="1"/>
        <pt x="20" y="170" on="1"/>
        <pt x="20" y="196" on="1"/>
        <pt x="317" y="669" on="1"/>
        <pt x="331" y="669" on="0"/>
        <pt x="336" y="663" on="0"/>
        <pt x="336" y="647" on="1"/>
      </contour>
      <contour>
        <pt x="40" y="196" on="1"/>
        <pt x="281" y="196" on="1"/>
        <pt x="281" y="581" on="1"/>
      </contour>
    </TTGlyph>
    <TTGlyph name="g" xMin="20" yMin="-204" xMax="451" yMax="446">
      <contour>
        <pt x="111" y="180" on="1"/>
        <pt x="97" y="163" on="0"/>
        <pt x="92" y="134" on="0"/>
        <pt x="92" y="127" on="1"/>
        <pt x="92" y="101" on="0"/>
        <pt x="121" y="63" on="0"/>
        <pt x="144" y="59" on="1"/>
        <pt x="146" y="59" on="0"/>
        <pt x="161" y="58" on="0"/>
        <pt x="182" y="58" on="0"/>
        <pt x="204" y="58" on="0"/>
        <pt x="213" y="58" on="1"/>
        <pt x="242" y="58" on="0"/>
        <pt x="319" y="54" on="0"/>
        <pt x="389" y="28" on="0"/>
        <pt x="438" y="-27" on="0"/>
        <pt x="438" y="-78" on="1"/>
        <pt x="438" y="-106" on="0"/>
        <pt x="404" y="-153" on="0"/>
        <pt x="346" y="-186" on="0"/>
        <pt x="270" y="-204" on="0"/>
        <pt x="229" y="-204" on="1"/>
        <pt x="186" y="-204" on="0"/>
        <pt x="110" y="-185" on="0"/>
        <pt x="53" y="-152" on="0"/>
        <pt x="20" y="-106" on="0"/>
        <pt x="20" y="-79" on="1"/>
        <pt x="20" y="-41" on="0"/>
        <pt x="74" y="14" on="0"/>
        <pt x="113" y="24" on="1"/>
        <pt x="87" y="40" on="0"/>
        <pt x="69" y="89" on="0"/>
        <pt x="69" y="109" on="1"/>
        <pt x="69" y="111" on="0"/>
        <pt x="70" y="127" on="0"/>
        <pt x="76" y="150" on="0"/>
        <pt x="88" y="177" on="0"/>
        <pt x="99" y="190" on="1"/>
        <pt x="95" y="194" on="0"/>
        <pt x="81" y="211" on="0"/>
        <pt x="67" y="237" on="0"/>
        <pt x="56" y="272" on="0"/>
        <pt x="56" y="293" on="1"/>
        <pt x="56" y="324" on="0"/>
        <pt x="80" y="377" on="0"/>
        <pt x="120" y="416" on="0"/>
        <pt x="173" y="438" on="0"/>
        <pt x="203" y="438" on="1"/>
        <pt x="227" y="438" on="0"/>
        <pt x="278" y="421" on="0"/>
        <pt x="301" y="401" on="1"/>
        <pt x="322" y="421" on="0"/>
        <pt x="374" y="446" on="0"/>
        <pt x="404" y="446" on="1"/>
        <pt x="428" y="446" on="0"/>
        <pt x="451" y="421" on="0"/>
        <pt x="451" y="407" on="1"/>
        <pt x="451" y="397" on="0"/>
        <pt x="439" y="384" on="0"/>
        <pt x="428" y="384" on="1"/>
        <pt x="406" y="384" on="0"/>
        <pt x="406" y="406" on="1"/>
        <pt x="406" y="418" on="0"/>
        <pt x="416" y="426" on="0"/>
        <pt x="419" y="427" on="1"/>
        <pt x="415" y="429" on="0"/>
        <pt x="407" y="430" on="0"/>
        <pt x="404" y="430" on="1"/>
        <pt x="387" y="430" on="0"/>
        <pt x="333" y="413" on="0"/>
        <pt x="312" y="390" on="1"/>
        <pt x="335" y="367" on="0"/>
        <pt x="350" y="313" on="0"/>
        <pt x="350" y="293" on="1"/>
        <pt x="350" y="262" on="0"/>
        <pt x="326" y="209" on="0"/>
        <pt x="286" y="170" on="0"/>
        <pt x="233" y="148" on="0"/>
        <pt x="203" y="148" on="1"/>
        <pt x="173" y="148" on="0"/>
        <pt x="125" y="169" on="0"/>
      </contour>
      <contour>
        <pt x="203" y="165" on="1"/>
        <pt x="236" y="165" on="0"/>
        <pt x="272" y="199" on="0"/>
        <pt x="288" y="244" on="0"/>
        <pt x="291" y="286" on="0"/>
        <pt x="291" y="293" on="1"/>
        <pt x="291" y="301" on="0"/>
        <pt x="288" y="342" on="0"/>
        <pt x="272" y="387" on="0"/>
        <pt x="236" y="421" on="0"/>
        <pt x="203" y="421" on="1"/>
        <pt x="170" y="421" on="0"/>
        <pt x="134" y="387" on="0"/>
        <pt x="118" y="342" on="0"/>
        <pt x="115" y="301" on="0"/>
        <pt x="115" y="293" on="1"/>
        <pt x="115" y="286" on="0"/>
        <pt x="118" y="244" on="0"/>
        <pt x="134" y="199" on="0"/>
        <pt x="170" y="165" on="0"/>
      </contour>
      <contour>
        <pt x="229" y="-187" on="1"/>
        <pt x="267" y="-187" on="0"/>
        <pt x="329" y="-169" on="0"/>
        <pt x="373" y="-139" on="0"/>
        <pt x="398" y="-100" on="0"/>
        <pt x="398" y="-79" on="1"/>
        <pt x="398" y="-44" on="0"/>
        <pt x="360" y="-6" on="0"/>
        <pt x="302" y="11" on="0"/>
        <pt x="233" y="14" on="0"/>
        <pt x="202" y="14" on="1"/>
        <pt x="177" y="14" on="0"/>
        <pt x="145" y="13" on="0"/>
        <pt x="124" y="10" on="0"/>
        <pt x="108" y="3" on="0"/>
        <pt x="99" y="-3" on="1"/>
        <pt x="82" y="-15" on="0"/>
        <pt x="60" y="-56" on="0"/>
        <pt x="60" y="-79" on="1"/>
        <pt x="60" y="-100" on="0"/>
        <pt x="85" y="-139" on="0"/>
        <pt x="129" y="-169" on="0"/>
        <pt x="192" y="-187" on="0"/>
      </contour>
    </TTGlyph>
    <TTGlyph name="germandbls" xMin="31" yMin="-8" xMax="438" yMax="702">
      <contour>
        <pt x="269" y="420" on="1"/>
        <pt x="307" y="409" on="0"/>
        <pt x="369" y="361" on="0"/>
        <pt x="413" y="296" on="0"/>
        <pt x="438" y="217" on="0"/>
        <pt x="438" y="174" on="1"/>
        <pt x="438" y="131" on="0"/>
        <pt x="409" y="64" on="0"/>
        <pt x="361" y="17" on="0"/>
        <pt x="301" y="-8" on="0"/>
        <pt x="271" y="-8" on="1"/>
        <pt x="232" y="-8" on="0"/>
        <pt x="177" y="28" on="0"/>
        <pt x="177" y="57" on="1"/>
        <pt x="177" y="75" on="0"/>
        <pt x="198" y="86" on="0"/>
        <pt x="205" y="86" on="1"/>
        <pt x="213" y="86" on="0"/>
        <pt x="233" y="74" on="0"/>
        <pt x="233" y="58" on="1"/>
        <pt x="233" y="44" on="0"/>
        <pt x="216" y="32" on="0"/>
        <pt x="207" y="30" on="1"/>
        <pt x="225" y="13" on="0"/>
        <pt x="263" y="8" on="0"/>
        <pt x="269" y="8" on="1"/>
        <pt x="288" y="8" on="0"/>
        <pt x="327" y="26" on="0"/>
        <pt x="359" y="66" on="0"/>
        <pt x="380" y="129" on="0"/>
        <pt x="380" y="173" on="1"/>
        <pt x="380" y="219" on="0"/>
        <pt x="358" y="303" on="0"/>
        <pt x="316" y="369" on="0"/>
        <pt x="254" y="410" on="0"/>
        <pt x="214" y="414" on="1"/>
        <pt x="206" y="415" on="0"/>
        <pt x="202" y="417" on="0"/>
        <pt x="202" y="422" on="1"/>
        <pt x="202" y="427" on="0"/>
        <pt x="208" y="429" on="0"/>
        <pt x="216" y="430" on="1"/>
        <pt x="251" y="433" on="0"/>
        <pt x="303" y="456" on="0"/>
        <pt x="337" y="493" on="0"/>
        <pt x="354" y="539" on="0"/>
        <pt x="354" y="564" on="1"/>
        <pt x="354" y="621" on="0"/>
        <pt x="295" y="686" on="0"/>
        <pt x="253" y="686" on="1"/>
        <pt x="241" y="686" on="0"/>
        <pt x="205" y="676" on="0"/>
        <pt x="173" y="647" on="0"/>
        <pt x="150" y="597" on="0"/>
        <pt x="150" y="557" on="1"/>
        <pt x="150" y="0" on="1"/>
        <pt x="148" y="0" on="0"/>
        <pt x="128" y="2" on="0"/>
        <pt x="115" y="2" on="1"/>
        <pt x="107" y="2" on="0"/>
        <pt x="84" y="2" on="0"/>
        <pt x="60" y="2" on="0"/>
        <pt x="38" y="1" on="0"/>
        <pt x="31" y="0" on="1"/>
        <pt x="31" y="26" on="1"/>
        <pt x="55" y="26" on="0"/>
        <pt x="82" y="29" on="0"/>
        <pt x="96" y="38" on="0"/>
        <pt x="99" y="55" on="0"/>
        <pt x="99" y="69" on="1"/>
        <pt x="99" y="404" on="1"/>
        <pt x="31" y="404" on="1"/>
        <pt x="31" y="430" on="1"/>
        <pt x="99" y="430" on="1"/>
        <pt x="99" y="555" on="1"/>
        <pt x="99" y="594" on="0"/>
        <pt x="129" y="650" on="0"/>
        <pt x="175" y="686" on="0"/>
        <pt x="229" y="702" on="0"/>
        <pt x="254" y="702" on="1"/>
        <pt x="286" y="702" on="0"/>
        <pt x="344" y="680" on="0"/>
        <pt x="387" y="643" on="0"/>
        <pt x="412" y="592" on="0"/>
        <pt x="412" y="562" on="1"/>
        <pt x="412" y="534" on="0"/>
        <pt x="387" y="488" on="0"/>
        <pt x="347" y="452" on="0"/>
        <pt x="296" y="426" on="0"/>
      </contour>
    </TTGlyph>
    <TTGlyph name="grave" xMin="96" yMin="512" xMax="270" yMax="696">
      <contour>
        <pt x="182" y="579" on="1"/>
        <pt x="169" y="591" on="0"/>
        <pt x="141" y="616" on="0"/>
        <pt x="119" y="637" on="0"/>
        <pt x="104" y="651" on="0"/>
        <pt x="103" y="651" on="1"/>
        <pt x="102" y="653" on="0"/>
        <pt x="96" y="661" on="0"/>
        <pt x="96" y="669" on="1"/>
        <pt x="96" y="680" on="0"/>
        <pt x="112" y="696" on="0"/>
        <pt x="123" y="696" on="1"/>
        <pt x="128" y="696" on="0"/>
        <pt x="133" y="695" on="0"/>
        <pt x="140" y="690" on="0"/>
        <pt x="149" y="679" on="0"/>
        <pt x="157" y="669" on="1"/>
        <pt x="270" y="524" on="1"/>
        <pt x="268" y="523" on="0"/>
        <pt x="260" y="514" on="0"/>
        <pt x="258" y="512" on="1"/>
      </contour>
    </TTGlyph>
    <TTGlyph name="h" xMin="33" yMin="0" xMax="483" yMax="694">
      <contour>
        <pt x="415" y="69" on="1"/>
        <pt x="415" y="54" on="0"/>
        <pt x="418" y="37" on="0"/>
        <pt x="432" y="28" on="0"/>
        <pt x="459" y="26" on="0"/>
        <pt x="483" y="26" on="1"/>
        <pt x="483" y="0" on="1"/>
        <pt x="474" y="1" on="0"/>
        <pt x="449" y="2" on="0"/>
        <pt x="423" y="2" on="0"/>
        <pt x="398" y="2" on="0"/>
        <pt x="388" y="2" on="1"/>
        <pt x="368" y="2" on="0"/>
        <pt x="312" y="2" on="0"/>
        <pt x="294" y="0" on="1"/>
        <pt x="294" y="26" on="1"/>
        <pt x="318" y="26" on="0"/>
        <pt x="345" y="29" on="0"/>
        <pt x="359" y="38" on="0"/>
        <pt x="362" y="55" on="0"/>
        <pt x="362" y="69" on="1"/>
        <pt x="362" y="308" on="1"/>
        <pt x="362" y="326" on="0"/>
        <pt x="357" y="366" on="0"/>
        <pt x="340" y="400" on="0"/>
        <pt x="308" y="422" on="0"/>
        <pt x="280" y="422" on="1"/>
        <pt x="254" y="422" on="0"/>
        <pt x="208" y="398" on="0"/>
        <pt x="174" y="354" on="0"/>
        <pt x="154" y="296" on="0"/>
        <pt x="154" y="261" on="1"/>
        <pt x="154" y="69" on="1"/>
        <pt x="154" y="54" on="0"/>
        <pt x="157" y="37" on="0"/>
        <pt x="171" y="28" on="0"/>
        <pt x="198" y="26" on="0"/>
        <pt x="222" y="26" on="1"/>
        <pt x="222" y="0" on="1"/>
        <pt x="213" y="1" on="0"/>
        <pt x="188" y="2" on="0"/>
        <pt x="162" y="2" on="0"/>
        <pt x="137" y="2" on="0"/>
        <pt x="127" y="2" on="1"/>
        <pt x="107" y="2" on="0"/>
        <pt x="51" y="2" on="0"/>
        <pt x="33" y="0" on="1"/>
        <pt x="33" y="26" on="1"/>
        <pt x="57" y="26" on="0"/>
        <pt x="84" y="29" on="0"/>
        <pt x="98" y="38" on="0"/>
        <pt x="101" y="55" on="0"/>
        <pt x="101" y="69" on="1"/>
        <pt x="101" y="603" on="1"/>
        <pt x="101" y="621" on="0"/>
        <pt x="96" y="642" on="0"/>
        <pt x="82" y="654" on="0"/>
        <pt x="55" y="657" on="0"/>
        <pt x="33" y="657" on="1"/>
        <pt x="33" y="683" on="1"/>
        <pt x="152" y="694" on="1"/>
        <pt x="152" y="339" on="1"/>
        <pt x="153" y="339" on="1"/>
        <pt x="158" y="351" on="0"/>
        <pt x="177" y="385" on="0"/>
        <pt x="210" y="416" on="0"/>
        <pt x="256" y="438" on="0"/>
        <pt x="287" y="438" on="1"/>
        <pt x="331" y="438" on="0"/>
        <pt x="382" y="410" on="0"/>
        <pt x="408" y="370" on="0"/>
        <pt x="415" y="323" on="0"/>
        <pt x="415" y="304" on="1"/>
      </contour>
    </TTGlyph>
    <TTGlyph name="hungarumlaut" xMin="118" yMin="514" xMax="388" yMax="697">
      <contour>
        <pt x="177" y="673" on="1"/>
        <pt x="182" y="684" on="0"/>
        <pt x="191" y="697" on="0"/>
        <pt x="203" y="697" on="1"/>
        <pt x="213" y="697" on="0"/>
        <pt x="231" y="682" on="0"/>
        <pt x="231" y="671" on="1"/>
        <pt x="231" y="668" on="0"/>
        <pt x="229" y="658" on="0"/>
        <pt x="221" y="647" on="1"/>
        <pt x="132" y="514" on="1"/>
        <pt x="130" y="515" on="0"/>
        <pt x="118" y="522" on="0"/>
        <pt x="118" y="524" on="1"/>
        <pt x="118" y="526" on="0"/>
        <pt x="121" y="534" on="0"/>
        <pt x="122" y="536" on="1"/>
      </contour>
      <contour>
        <pt x="334" y="673" on="1"/>
        <pt x="339" y="684" on="0"/>
        <pt x="348" y="697" on="0"/>
        <pt x="360" y="697" on="1"/>
        <pt x="370" y="697" on="0"/>
        <pt x="388" y="682" on="0"/>
        <pt x="388" y="671" on="1"/>
        <pt x="388" y="668" on="0"/>
        <pt x="386" y="658" on="0"/>
        <pt x="378" y="647" on="1"/>
        <pt x="289" y="514" on="1"/>
        <pt x="287" y="515" on="0"/>
        <pt x="275" y="522" on="0"/>
        <pt x="275" y="524" on="1"/>
        <pt x="275" y="526" on="0"/>
        <pt x="278" y="534" on="0"/>
        <pt x="279" y="536" on="1"/>
      </contour>
    </TTGlyph>
    <TTGlyph name="hyphen" xMin="4" yMin="193" xMax="255" yMax="237">
      <contour>
        <pt x="4" y="193" on="1"/>
        <pt x="4" y="237" on="1"/>
        <pt x="255" y="237" on="1"/>
        <pt x="255" y="193" on="1"/>
      </contour>
    </TTGlyph>
    <TTGlyph name="i" xMin="34" yMin="0" xMax="214" yMax="657">
      <contour>
        <pt x="155" y="616" on="1"/>
        <pt x="155" y="599" on="0"/>
        <pt x="131" y="575" on="0"/>
        <pt x="114" y="575" on="1"/>
        <pt x="97" y="575" on="0"/>
        <pt x="73" y="599" on="0"/>
        <pt x="73" y="616" on="1"/>
        <pt x="73" y="633" on="0"/>
        <pt x="97" y="657" on="0"/>
        <pt x="114" y="657" on="1"/>
        <pt x="131" y="657" on="0"/>
        <pt x="155" y="633" on="0"/>
      </contour>
      <contour>
        <pt x="153" y="438" on="1"/>
        <pt x="153" y="68" on="1"/>
        <pt x="153" y="55" on="0"/>
        <pt x="155" y="38" on="0"/>
        <pt x="167" y="29" on="0"/>
        <pt x="192" y="26" on="0"/>
        <pt x="214" y="26" on="1"/>
        <pt x="214" y="0" on="1"/>
        <pt x="197" y="2" on="0"/>
        <pt x="144" y="2" on="0"/>
        <pt x="126" y="2" on="1"/>
        <pt x="107" y="2" on="0"/>
        <pt x="52" y="2" on="0"/>
        <pt x="34" y="0" on="1"/>
        <pt x="34" y="26" on="1"/>
        <pt x="58" y="26" on="0"/>
        <pt x="85" y="29" on="0"/>
        <pt x="99" y="38" on="0"/>
        <pt x="102" y="55" on="0"/>
        <pt x="102" y="69" on="1"/>
        <pt x="102" y="347" on="1"/>
        <pt x="102" y="365" on="0"/>
        <pt x="98" y="386" on="0"/>
        <pt x="84" y="398" on="0"/>
        <pt x="59" y="401" on="0"/>
        <pt x="38" y="401" on="1"/>
        <pt x="38" y="427" on="1"/>
      </contour>
    </TTGlyph>
    <TTGlyph name="j" xMin="-33" yMin="-203" xMax="182" yMax="657">
      <contour>
        <pt x="182" y="616" on="1"/>
        <pt x="182" y="599" on="0"/>
        <pt x="158" y="575" on="0"/>
        <pt x="141" y="575" on="1"/>
        <pt x="124" y="575" on="0"/>
        <pt x="100" y="599" on="0"/>
        <pt x="100" y="616" on="1"/>
        <pt x="100" y="633" on="0"/>
        <pt x="124" y="657" on="0"/>
        <pt x="141" y="657" on="1"/>
        <pt x="158" y="657" on="0"/>
        <pt x="182" y="633" on="0"/>
      </contour>
      <contour>
        <pt x="182" y="438" on="1"/>
        <pt x="182" y="-55" on="1"/>
        <pt x="182" y="-87" on="0"/>
        <pt x="164" y="-141" on="0"/>
        <pt x="132" y="-181" on="0"/>
        <pt x="88" y="-203" on="0"/>
        <pt x="62" y="-203" on="1"/>
        <pt x="24" y="-203" on="0"/>
        <pt x="-33" y="-167" on="0"/>
        <pt x="-33" y="-137" on="1"/>
        <pt x="-33" y="-120" on="0"/>
        <pt x="-14" y="-100" on="0"/>
        <pt x="3" y="-100" on="1"/>
        <pt x="20" y="-100" on="0"/>
        <pt x="39" y="-122" on="0"/>
        <pt x="39" y="-136" on="1"/>
        <pt x="39" y="-147" on="0"/>
        <pt x="31" y="-160" on="0"/>
        <pt x="20" y="-168" on="0"/>
        <pt x="10" y="-172" on="0"/>
        <pt x="7" y="-172" on="1"/>
        <pt x="24" y="-183" on="0"/>
        <pt x="58" y="-187" on="0"/>
        <pt x="63" y="-187" on="1"/>
        <pt x="85" y="-187" on="0"/>
        <pt x="112" y="-161" on="0"/>
        <pt x="126" y="-122" on="0"/>
        <pt x="131" y="-78" on="0"/>
        <pt x="131" y="-59" on="1"/>
        <pt x="131" y="346" on="1"/>
        <pt x="131" y="364" on="0"/>
        <pt x="126" y="386" on="0"/>
        <pt x="111" y="397" on="0"/>
        <pt x="82" y="401" on="0"/>
        <pt x="57" y="401" on="1"/>
        <pt x="57" y="427" on="1"/>
      </contour>
    </TTGlyph>
    <TTGlyph name="k" xMin="31" yMin="0" xMax="475" yMax="694">
      <contour>
        <pt x="387" y="79" on="1"/>
        <pt x="398" y="63" on="0"/>
        <pt x="415" y="42" on="0"/>
        <pt x="434" y="30" on="0"/>
        <pt x="457" y="26" on="0"/>
        <pt x="475" y="26" on="1"/>
        <pt x="475" y="0" on="1"/>
        <pt x="462" y="1" on="0"/>
        <pt x="417" y="2" on="0"/>
        <pt x="403" y="2" on="1"/>
        <pt x="384" y="2" on="0"/>
        <pt x="329" y="2" on="0"/>
        <pt x="311" y="0" on="1"/>
        <pt x="311" y="26" on="1"/>
        <pt x="320" y="26" on="0"/>
        <pt x="341" y="33" on="0"/>
        <pt x="341" y="47" on="1"/>
        <pt x="341" y="57" on="0"/>
        <pt x="328" y="78" on="0"/>
        <pt x="319" y="92" on="1"/>
        <pt x="218" y="242" on="1"/>
        <pt x="149" y="179" on="1"/>
        <pt x="149" y="69" on="1"/>
        <pt x="149" y="54" on="0"/>
        <pt x="152" y="37" on="0"/>
        <pt x="166" y="28" on="0"/>
        <pt x="193" y="26" on="0"/>
        <pt x="217" y="26" on="1"/>
        <pt x="217" y="0" on="1"/>
        <pt x="199" y="2" on="0"/>
        <pt x="143" y="2" on="0"/>
        <pt x="124" y="2" on="1"/>
        <pt x="105" y="2" on="0"/>
        <pt x="49" y="2" on="0"/>
        <pt x="31" y="0" on="1"/>
        <pt x="31" y="26" on="1"/>
        <pt x="55" y="26" on="0"/>
        <pt x="82" y="29" on="0"/>
        <pt x="96" y="38" on="0"/>
        <pt x="99" y="55" on="0"/>
        <pt x="99" y="69" on="1"/>
        <pt x="99" y="603" on="1"/>
        <pt x="99" y="621" on="0"/>
        <pt x="94" y="642" on="0"/>
        <pt x="80" y="654" on="0"/>
        <pt x="53" y="657" on="0"/>
        <pt x="31" y="657" on="1"/>
        <pt x="31" y="683" on="1"/>
        <pt x="150" y="694" on="1"/>
        <pt x="150" y="204" on="1"/>
        <pt x="301" y="342" on="1"/>
        <pt x="302" y="342" on="0"/>
        <pt x="322" y="366" on="0"/>
        <pt x="322" y="381" on="1"/>
        <pt x="322" y="392" on="0"/>
        <pt x="309" y="403" on="0"/>
        <pt x="298" y="404" on="1"/>
        <pt x="298" y="430" on="1"/>
        <pt x="318" y="428" on="0"/>
        <pt x="375" y="428" on="0"/>
        <pt x="396" y="428" on="1"/>
        <pt x="445" y="429" on="1"/>
        <pt x="446" y="430" on="0"/>
        <pt x="454" y="430" on="1"/>
        <pt x="454" y="404" on="1"/>
        <pt x="435" y="403" on="0"/>
        <pt x="378" y="386" on="0"/>
        <pt x="335" y="350" on="1"/>
        <pt x="332" y="347" on="0"/>
        <pt x="306" y="323" on="0"/>
        <pt x="277" y="297" on="0"/>
        <pt x="255" y="276" on="0"/>
        <pt x="255" y="275" on="1"/>
        <pt x="255" y="273" on="0"/>
        <pt x="260" y="266" on="0"/>
        <pt x="261" y="264" on="1"/>
      </contour>
    </TTGlyph>
    <TTGlyph name="l" xMin="34" yMin="0" xMax="221" yMax="694">
      <contour>
        <pt x="153" y="69" on="1"/>
        <pt x="153" y="54" on="0"/>
        <pt x="156" y="37" on="0"/>
        <pt x="170" y="28" on="0"/>
        <pt x="197" y="26" on="0"/>
        <pt x="221" y="26" on="1"/>
        <pt x="221" y="0" on="1"/>
        <pt x="203" y="2" on="0"/>
        <pt x="147" y="2" on="0"/>
        <pt x="127" y="2" on="1"/>
        <pt x="108" y="2" on="0"/>
        <pt x="52" y="2" on="0"/>
        <pt x="34" y="0" on="1"/>
        <pt x="34" y="26" on="1"/>
        <pt x="58" y="26" on="0"/>
        <pt x="85" y="29" on="0"/>
        <pt x="99" y="38" on="0"/>
        <pt x="102" y="55" on="0"/>
        <pt x="102" y="69" on="1"/>
        <pt x="102" y="603" on="1"/>
        <pt x="102" y="621" on="0"/>
        <pt x="97" y="642" on="0"/>
        <pt x="83" y="654" on="0"/>
        <pt x="56" y="657" on="0"/>
        <pt x="34" y="657" on="1"/>
        <pt x="34" y="683" on="1"/>
        <pt x="153" y="694" on="1"/>
      </contour>
    </TTGlyph>
</ttFont>
